OxygenSans-Light.ufo
<glyph name="exclam" format="1">
  <advance width="554.6"/>
  <unicode hex="0021"/>
  <outline>
    <contour>
      <point x="279.0" y="-13.4" type="curve" smooth="yes"/>
      <point x="358.0" y="-13.4"/>
      <point x="389.6" y="41.6"/>
      <point x="389.6" y="95.6" type="curve" smooth="yes"/>
      <point x="389.6" y="148.2"/>
      <point x="358.0" y="204.0"/>
      <point x="279.0" y="204.0" type="curve" smooth="yes"/>
      <point x="200.6" y="204.0"/>
      <point x="169.8" y="148.2"/>
      <point x="169.8" y="95.6" type="curve" smooth="yes"/>
      <point x="169.8" y="43.2"/>
      <point x="200.6" y="-13.4"/>
    </contour>
    <contour>
      <point x="248.0" y="415.0" type="line"/>
      <point x="306.8" y="415.0" type="line"/>
      <point x="358.0" y="1358.0" type="line"/>
      <point x="358.0" y="1467.4" type="line"/>
      <point x="191.2" y="1467.4" type="line"/>
      <point x="191.2" y="1358.0" type="line"/>
    </contour>
  </outline>
</glyph>
<glyph name="quotedbl" format="1">
  <advance width="624.4"/>
  <unicode hex="0022"/>
  <outline>
    <contour>
      <point x="411.2" y="1014.4" type="line"/>
      <point x="485.8" y="1014.4" type="line"/>
      <point x="514.8" y="1475.2" type="line"/>
      <point x="378.0" y="1475.2" type="line"/>
    </contour>
    <contour>
      <point x="153.4" y="1014.4" type="line"/>
      <point x="228.0" y="1014.4" type="line"/>
      <point x="256.2" y="1475.2" type="line"/>
      <point x="120.2" y="1475.2" type="line"/>
    </contour>
  </outline>
</glyph>
<glyph name="numbersign" format="1">
  <advance width="1188.2"/>
  <unicode hex="0023"/>
  <outline>
    <contour>
      <point x="697.6" y="499.4" type="line"/>
      <point x="452.0" y="499.4" type="line"/>
      <point x="538.2" y="934.0" type="line"/>
      <point x="783.6" y="934.0" type="line"/>
    </contour>
    <contour>
      <point x="595.4" y="-22.4" type="line"/>
      <point x="704.6" y="-22.4" type="line"/>
      <point x="791.0" y="415.2" type="line"/>
      <point x="957.8" y="415.2" type="line"/>
      <point x="971.8" y="499.4" type="line"/>
      <point x="808.0" y="499.4" type="line"/>
      <point x="894.0" y="934.0" type="line"/>
      <point x="1045.2" y="934.0" type="line"/>
      <point x="1059.2" y="1018.2" type="line"/>
      <point x="910.6" y="1018.2" type="line"/>
      <point x="989.6" y="1419.2" type="line"/>
      <point x="880.0" y="1419.2" type="line"/>
      <point x="800.4" y="1018.2" type="line"/>
      <point x="554.8" y="1018.2" type="line"/>
      <point x="633.8" y="1419.2" type="line"/>
      <point x="524.0" y="1419.2" type="line"/>
      <point x="444.4" y="1018.2" type="line"/>
      <point x="284.6" y="1018.2" type="line"/>
      <point x="273.0" y="934.0" type="line"/>
      <point x="427.8" y="934.0" type="line"/>
      <point x="342.6" y="499.4" type="line"/>
      <point x="197.2" y="499.4" type="line"/>
      <point x="185.6" y="415.2" type="line"/>
      <point x="325.8" y="415.2" type="line"/>
      <point x="239.6" y="-22.4" type="line"/>
      <point x="348.8" y="-22.4" type="line"/>
      <point x="435.2" y="415.2" type="line"/>
      <point x="680.8" y="415.2" type="line"/>
    </contour>
  </outline>
</glyph>
<glyph name="percent" format="1">
  <advance width="1796.4"/>
  <unicode hex="0025"/>
  <outline>
    <contour>
      <point x="1397.6" y="-13.2" type="curve" smooth="yes"/>
      <point x="1171.8" y="-13.2"/>
      <point x="1060.4" y="150.2"/>
      <point x="1060.4" y="360.4" type="curve" smooth="yes"/>
      <point x="1060.4" y="571.6"/>
      <point x="1175.6" y="733.0"/>
      <point x="1397.6" y="733.0" type="curve" smooth="yes"/>
      <point x="1624.4" y="733.0"/>
      <point x="1736.0" y="574.6"/>
      <point x="1736.0" y="360.4" type="curve" smooth="yes"/>
      <point x="1736.0" y="150.2"/>
      <point x="1621.4" y="-13.2"/>
    </contour>
    <contour>
      <point x="1399.2" y="75.0" type="curve" smooth="yes"/>
      <point x="1558.4" y="75.0"/>
      <point x="1626.6" y="200.8"/>
      <point x="1626.6" y="361.6" type="curve" smooth="yes"/>
      <point x="1626.6" y="528.0"/>
      <point x="1557.4" y="645.2"/>
      <point x="1399.2" y="645.2" type="curve" smooth="yes"/>
      <point x="1239.2" y="645.2"/>
      <point x="1169.8" y="522.2"/>
      <point x="1169.8" y="361.6" type="curve" smooth="yes"/>
      <point x="1169.8" y="196.2"/>
      <point x="1240.0" y="75.0"/>
    </contour>
    <contour>
      <point x="416.6" y="795.0" type="curve" smooth="yes"/>
      <point x="575.8" y="795.0"/>
      <point x="644.0" y="920.8"/>
      <point x="644.0" y="1081.6" type="curve" smooth="yes"/>
      <point x="644.0" y="1248.0"/>
      <point x="574.8" y="1365.2"/>
      <point x="416.6" y="1365.2" type="curve" smooth="yes"/>
      <point x="256.6" y="1365.2"/>
      <point x="187.2" y="1242.2"/>
      <point x="187.2" y="1081.6" type="curve" smooth="yes"/>
      <point x="187.2" y="916.2"/>
      <point x="257.4" y="795.0"/>
    </contour>
    <contour>
      <point x="415.0" y="706.8" type="curve" smooth="yes"/>
      <point x="189.2" y="706.8"/>
      <point x="77.8" y="870.2"/>
      <point x="77.8" y="1080.4" type="curve" smooth="yes"/>
      <point x="77.8" y="1291.6"/>
      <point x="193.0" y="1453.0"/>
      <point x="415.0" y="1453.0" type="curve" smooth="yes"/>
      <point x="641.8" y="1453.0"/>
      <point x="753.4" y="1294.6"/>
      <point x="753.4" y="1080.4" type="curve" smooth="yes"/>
      <point x="753.4" y="870.2"/>
      <point x="638.8" y="706.8"/>
    </contour>
    <contour>
      <point x="434.2" y="0.0" type="line"/>
      <point x="1264.0" y="1443.2" type="line"/>
      <point x="1379.6" y="1443.2" type="line"/>
      <point x="558.6" y="0.0" type="line"/>
    </contour>
  </outline>
</glyph>
<glyph name="ampersand" format="1">
  <advance width="1449.2"/>
  <unicode hex="0026"/>
  <outline>
    <contour>
      <point x="672.2" y="-18.6" type="curve" smooth="yes"/>
      <point x="882.0" y="-18.6"/>
      <point x="952.6" y="18.0"/>
      <point x="1079.2" y="112.6" type="curve"/>
      <point x="1204.6" y="-18.8" type="line"/>
      <point x="1332.4" y="35.6" type="line"/>
      <point x="1169.6" y="203.0" type="line"/>
      <point x="1238.0" y="272.8"/>
      <point x="1322.8" y="404.8"/>
      <point x="1359.2" y="490.2" type="curve"/>
      <point x="1254.2" y="560.2" type="line"/>
      <point x="1219.0" y="477.2"/>
      <point x="1144.6" y="351.4"/>
      <point x="1088.8" y="294.6" type="curve"/>
      <point x="659.4" y="773.2" type="line"/>
      <point x="858.0" y="863.6"/>
      <point x="1016.0" y="991.8"/>
      <point x="1016.0" y="1158.6" type="curve" smooth="yes"/>
      <point x="1016.0" y="1352.4"/>
      <point x="882.0" y="1462.0"/>
      <point x="676.4" y="1462.0" type="curve" smooth="yes"/>
      <point x="450.4" y="1462.0"/>
      <point x="296.4" y="1335.8"/>
      <point x="296.4" y="1152.2" type="curve" smooth="yes"/>
      <point x="296.4" y="1024.6"/>
      <point x="358.0" y="916.2"/>
      <point x="469.8" y="798.0" type="curve"/>
      <point x="314.4" y="706.0"/>
      <point x="173.2" y="579.8"/>
      <point x="173.2" y="369.0" type="curve" smooth="yes"/>
      <point x="173.2" y="135.4"/>
      <point x="340.4" y="-18.6"/>
    </contour>
    <contour>
      <point x="683.2" y="98.8" type="curve" smooth="yes"/>
      <point x="450.8" y="98.8"/>
      <point x="320.0" y="204.2"/>
      <point x="320.0" y="377.4" type="curve" smooth="yes"/>
      <point x="320.0" y="523.2"/>
      <point x="412.8" y="634.6"/>
      <point x="546.6" y="712.4" type="curve"/>
      <point x="998.0" y="207.6" type="line"/>
      <point x="901.8" y="130.8"/>
      <point x="834.2" y="98.8"/>
    </contour>
    <contour>
      <point x="587.0" y="857.2" type="curve"/>
      <point x="466.2" y="970.0"/>
      <point x="429.6" y="1061.0"/>
      <point x="429.6" y="1161.2" type="curve" smooth="yes"/>
      <point x="429.6" y="1279.0"/>
      <point x="547.6" y="1349.6"/>
      <point x="677.8" y="1349.6" type="curve" smooth="yes"/>
      <point x="813.2" y="1349.6"/>
      <point x="879.4" y="1283.2"/>
      <point x="879.4" y="1162.4" type="curve" smooth="yes"/>
      <point x="879.4" y="1032.8"/>
      <point x="735.6" y="927.2"/>
    </contour>
  </outline>
</glyph>
<glyph name="quotesingle" format="1">
  <advance width="317.2"/>
  <unicode hex="0027"/>
  <outline>
    <contour>
      <point x="113.8" y="960.6" type="line"/>
      <point x="204.4" y="960.6" type="line"/>
      <point x="220.8" y="1440.8" type="line"/>
      <point x="98.4" y="1440.8" type="line"/>
    </contour>
  </outline>
</glyph>
<glyph name="parenleft" format="1">
  <advance width="700.2"/>
  <unicode hex="0028"/>
  <outline>
    <contour>
      <point x="455.0" y="-240.6" type="curve"/>
      <point x="595.8" y="-240.6" type="line"/>
      <point x="406.8" y="54.2"/>
      <point x="345.2" y="376.4"/>
      <point x="345.2" y="694.6" type="curve" smooth="yes"/>
      <point x="345.2" y="992.2"/>
      <point x="410.2" y="1263.0"/>
      <point x="597.6" y="1552.4" type="curve"/>
      <point x="453.2" y="1552.4" type="line"/>
      <point x="286.8" y="1308.0"/>
      <point x="196.2" y="1010.0"/>
      <point x="196.2" y="690.2" type="curve" smooth="yes"/>
      <point x="196.2" y="335.0"/>
      <point x="290.8" y="-12.0"/>
    </contour>
  </outline>
</glyph>
<glyph name="parenright" format="1">
  <advance width="702.4"/>
  <unicode hex="0029"/>
  <outline>
    <contour>
      <point x="116.8" y="-240.6" type="curve"/>
      <point x="258.8" y="-240.6" type="line"/>
      <point x="420.4" y="-17.8"/>
      <point x="516.6" y="338.0"/>
      <point x="516.6" y="693.8" type="curve" smooth="yes"/>
      <point x="516.6" y="1013.0"/>
      <point x="429.2" y="1302.2"/>
      <point x="260.2" y="1552.4" type="curve"/>
      <point x="116.2" y="1552.4" type="line"/>
      <point x="310.8" y="1245.6"/>
      <point x="367.6" y="990.6"/>
      <point x="367.6" y="697.2" type="curve" smooth="yes"/>
      <point x="367.6" y="374.8"/>
      <point x="298.6" y="36.8"/>
    </contour>
  </outline>
</glyph>
<glyph name="asterisk" format="1">
  <advance width="1180.4"/>
  <unicode hex="002A"/>
  <outline>
    <contour>
      <point x="390.8" y="568.4" type="line"/>
      <point x="265.4" y="650.6" type="line"/>
      <point x="510.8" y="986.2" type="line"/>
      <point x="149.0" y="1070.0" type="line"/>
      <point x="188.8" y="1214.8" type="line"/>
      <point x="546.8" y="1063.8" type="line"/>
      <point x="510.8" y="1473.6" type="line"/>
      <point x="668.4" y="1473.6" type="line"/>
      <point x="631.0" y="1063.8" type="line"/>
      <point x="991.2" y="1214.8" type="line"/>
      <point x="1032.2" y="1070.0" type="line"/>
      <point x="663.6" y="986.2" type="line"/>
      <point x="703.6" y="931.4"/>
      <point x="804.4" y="793.8"/>
      <point x="916.4" y="650.6" type="curve"/>
      <point x="847.6" y="607.4"/>
      <point x="859.2" y="612.0"/>
      <point x="790.4" y="568.8" type="curve"/>
      <point x="584.2" y="935.0" type="line"/>
    </contour>
  </outline>
</glyph>
<glyph name="plus" format="1">
  <advance width="1113.4"/>
  <unicode hex="002B"/>
  <outline>
    <contour>
      <point x="510.0" y="176.8" type="line"/>
      <point x="624.2" y="176.8" type="line"/>
      <point x="624.2" y="578.2" type="line"/>
      <point x="996.8" y="578.2" type="line"/>
      <point x="996.8" y="679.0" type="line"/>
      <point x="624.4" y="679.0" type="line"/>
      <point x="624.4" y="1072.4" type="line"/>
      <point x="510.4" y="1072.4" type="line"/>
      <point x="510.4" y="679.0" type="line"/>
      <point x="131.0" y="679.0" type="line"/>
      <point x="131.0" y="578.2" type="line"/>
      <point x="510.0" y="578.2" type="line"/>
    </contour>
  </outline>
</glyph>
<glyph name="comma" format="1">
  <advance width="474.4"/>
  <unicode hex="002C"/>
  <outline>
    <contour>
      <point x="140.8" y="-277.0" type="curve"/>
      <point x="225.2" y="-277.0" type="line"/>
      <point x="225.2" y="-277.0"/>
      <point x="326.4" y="145.6"/>
      <point x="326.4" y="178.4" type="curve"/>
      <point x="327.6" y="215.4" type="line"/>
      <point x="173.8" y="215.4" type="line"/>
      <point x="173.8" y="132.2"/>
      <point x="140.8" y="-277.0"/>
    </contour>
  </outline>
</glyph>
<glyph name="hyphen" format="1">
  <advance width="736.6"/>
  <unicode hex="002D"/>
  <outline>
    <contour>
      <point x="125.8" y="498.0" type="line"/>
      <point x="592.4" y="498.0" type="line"/>
      <point x="592.4" y="611.6" type="line"/>
      <point x="125.8" y="611.6" type="line"/>
    </contour>
  </outline>
</glyph>
<glyph name="period" format="1">
  <advance width="480.2"/>
  <unicode hex="002E"/>
  <outline>
    <contour>
      <point x="250.2" y="-13.0" type="curve" smooth="yes"/>
      <point x="322.0" y="-13.0"/>
      <point x="351.2" y="39.4"/>
      <point x="351.2" y="89.4" type="curve" smooth="yes"/>
      <point x="351.2" y="139.6"/>
      <point x="322.0" y="192.4"/>
      <point x="250.2" y="192.4" type="curve" smooth="yes"/>
      <point x="176.6" y="192.4"/>
      <point x="148.0" y="139.6"/>
      <point x="148.0" y="89.4" type="curve" smooth="yes"/>
      <point x="148.0" y="40.0"/>
      <point x="178.4" y="-13.0"/>
    </contour>
  </outline>
</glyph>
<glyph name="slash" format="1">
  <advance width="974.6"/>
  <unicode hex="002F"/>
  <outline>
    <contour>
      <point x="105.4" y="-212.0" type="line"/>
      <point x="209.6" y="-212.0" type="line"/>
      <point x="893.6" y="1408.8" type="line"/>
      <point x="787.0" y="1408.8" type="line"/>
    </contour>
  </outline>
</glyph>
<glyph name="zero" format="1">
  <advance width="1225.8"/>
  <unicode hex="0030"/>
  <outline>
    <contour>
      <point x="624.4" y="92.8" type="curve" smooth="yes"/>
      <point x="421.6" y="92.8"/>
      <point x="285.4" y="281.6"/>
      <point x="285.4" y="719.6" type="curve"/>
      <point x="284.2" y="1135.0"/>
      <point x="420.4" y="1334.4"/>
      <point x="624.4" y="1334.4" type="curve" smooth="yes"/>
      <point x="827.2" y="1334.4"/>
      <point x="953.6" y="1167.4"/>
      <point x="953.6" y="720.6" type="curve" smooth="yes"/>
      <point x="953.6" y="282.0"/>
      <point x="827.2" y="92.8"/>
    </contour>
    <contour>
      <point x="624.4" y="-30.2" type="curve" smooth="yes"/>
      <point x="961.0" y="-30.2"/>
      <point x="1102.2" y="273.8"/>
      <point x="1102.2" y="715.2" type="curve" smooth="yes"/>
      <point x="1102.2" y="1182.4"/>
      <point x="942.8" y="1458.8"/>
      <point x="624.4" y="1458.8" type="curve" smooth="yes"/>
      <point x="305.6" y="1458.8"/>
      <point x="135.6" y="1181.4"/>
      <point x="135.6" y="715.2" type="curve" smooth="yes"/>
      <point x="135.6" y="273.8"/>
      <point x="288.0" y="-30.2"/>
    </contour>
  </outline>
</glyph>
<glyph name="one" format="1">
  <advance width="1200.0"/>
  <unicode hex="0031"/>
  <outline>
    <contour>
      <point x="237.4" y="0.0" type="line"/>
      <point x="1065.0" y="0.0" type="line"/>
      <point x="1065.0" y="117.2" type="line"/>
      <point x="689.4" y="117.2" type="line"/>
      <point x="746.6" y="59.8" type="line"/>
      <point x="746.6" y="1443.2" type="line"/>
      <point x="604.2" y="1443.2" type="line"/>
      <point x="529.4" y="1390.6"/>
      <point x="349.0" y="1336.6"/>
      <point x="271.6" y="1321.8" type="curve"/>
      <point x="271.6" y="1200.4" type="line"/>
      <point x="362.4" y="1212.2"/>
      <point x="557.6" y="1269.2"/>
      <point x="635.0" y="1330.8" type="curve"/>
      <point x="595.2" y="1351.6" type="line"/>
      <point x="595.2" y="61.4" type="line"/>
      <point x="650.8" y="117.2" type="line"/>
      <point x="237.4" y="117.2" type="line"/>
    </contour>
  </outline>
</glyph>
<glyph name="two" format="1">
  <advance width="1200.0"/>
  <unicode hex="0032"/>
  <outline>
    <contour>
      <point x="157.8" y="0.0" type="line"/>
      <point x="1011.6" y="0.0" type="line"/>
      <point x="1019.2" y="117.2" type="line"/>
      <point x="238.6" y="117.2" type="line"/>
      <point x="255.8" y="63.8" type="line"/>
      <point x="755.8" y="579.8" type="line"/>
      <point x="943.0" y="774.0"/>
      <point x="1011.2" y="863.0"/>
      <point x="1011.2" y="1072.4" type="curve" smooth="yes"/>
      <point x="1011.2" y="1377.8"/>
      <point x="723.8" y="1461.8"/>
      <point x="559.8" y="1461.8" type="curve" smooth="yes"/>
      <point x="402.6" y="1461.8"/>
      <point x="244.0" y="1407.4"/>
      <point x="155.0" y="1348.0" type="curve"/>
      <point x="200.4" y="1236.4" type="line"/>
      <point x="299.2" y="1296.4"/>
      <point x="430.0" y="1336.8"/>
      <point x="553.0" y="1336.8" type="curve" smooth="yes"/>
      <point x="676.6" y="1336.8"/>
      <point x="864.0" y="1289.4"/>
      <point x="864.0" y="1055.6" type="curve" smooth="yes"/>
      <point x="864.0" y="881.0"/>
      <point x="785.6" y="804.8"/>
      <point x="657.6" y="671.6" type="curve" smooth="yes"/>
      <point x="130.2" y="118.6" type="line"/>
    </contour>
  </outline>
</glyph>
<glyph name="three" format="1">
  <advance width="1200.0"/>
  <unicode hex="0033"/>
  <outline>
    <contour>
      <point x="570.0" y="-20.4" type="curve" smooth="yes"/>
      <point x="870.6" y="-20.4"/>
      <point x="1060.6" y="133.0"/>
      <point x="1060.6" y="390.6" type="curve" smooth="yes"/>
      <point x="1060.6" y="607.2"/>
      <point x="928.4" y="730.6"/>
      <point x="741.8" y="766.2" type="curve"/>
      <point x="915.2" y="806.2"/>
      <point x="1023.6" y="903.4"/>
      <point x="1023.6" y="1103.4" type="curve" smooth="yes"/>
      <point x="1023.6" y="1333.4"/>
      <point x="815.8" y="1462.0"/>
      <point x="567.2" y="1462.0" type="curve" smooth="yes"/>
      <point x="418.2" y="1462.0"/>
      <point x="280.2" y="1423.4"/>
      <point x="162.8" y="1351.0" type="curve"/>
      <point x="212.0" y="1242.8" type="line"/>
      <point x="310.0" y="1304.8"/>
      <point x="441.8" y="1342.4"/>
      <point x="563.4" y="1342.4" type="curve" smooth="yes"/>
      <point x="737.8" y="1342.4"/>
      <point x="879.6" y="1263.0"/>
      <point x="879.6" y="1094.6" type="curve" smooth="yes"/>
      <point x="879.6" y="864.4"/>
      <point x="660.4" y="832.0"/>
      <point x="454.8" y="824.6" type="curve"/>
      <point x="413.4" y="824.6" type="line"/>
      <point x="413.4" y="701.8" type="line"/>
      <point x="453.2" y="701.8" type="line"/>
      <point x="706.4" y="696.8"/>
      <point x="915.0" y="654.0"/>
      <point x="915.0" y="389.2" type="curve" smooth="yes"/>
      <point x="915.0" y="190.0"/>
      <point x="775.0" y="102.0"/>
      <point x="564.0" y="102.0" type="curve" smooth="yes"/>
      <point x="422.2" y="102.0"/>
      <point x="295.4" y="148.8"/>
      <point x="222.6" y="193.6" type="curve"/>
      <point x="171.2" y="89.4" type="line"/>
      <point x="242.8" y="43.8"/>
      <point x="383.2" y="-20.4"/>
    </contour>
  </outline>
</glyph>
<glyph name="four" format="1">
  <advance width="1200.0"/>
  <unicode hex="0034"/>
  <outline>
    <contour>
      <point x="789.6" y="0.0" type="line"/>
      <point x="931.6" y="0.0" type="line"/>
      <point x="931.6" y="375.8" type="line"/>
      <point x="1101.0" y="375.8" type="line"/>
      <point x="1112.0" y="491.8" type="line"/>
      <point x="931.6" y="491.8" type="line"/>
      <point x="931.6" y="1443.2" type="line"/>
      <point x="785.6" y="1443.2" type="line"/>
      <point x="118.2" y="512.8" type="line"/>
      <point x="118.2" y="375.8" type="line"/>
      <point x="789.6" y="375.8" type="line"/>
    </contour>
    <contour>
      <point x="267.8" y="492.6" type="line"/>
      <point x="788.8" y="1249.8" type="line"/>
      <point x="788.8" y="492.6" type="line"/>
    </contour>
  </outline>
</glyph>
<glyph name="five" format="1">
  <advance width="1200.0"/>
  <unicode hex="0035"/>
  <outline>
    <contour>
      <point x="561.0" y="-19.8" type="curve" smooth="yes"/>
      <point x="844.2" y="-19.8"/>
      <point x="1074.0" y="145.8"/>
      <point x="1074.0" y="460.2" type="curve" smooth="yes"/>
      <point x="1074.0" y="699.4"/>
      <point x="921.2" y="898.8"/>
      <point x="632.2" y="898.8" type="curve" smooth="yes"/>
      <point x="524.2" y="898.8"/>
      <point x="440.4" y="872.2"/>
      <point x="358.4" y="817.4" type="curve"/>
      <point x="394.6" y="1323.6" type="line"/>
      <point x="999.2" y="1323.6" type="line"/>
      <point x="1011.6" y="1443.2" type="line"/>
      <point x="268.6" y="1443.2" type="line"/>
      <point x="221.0" y="685.6" type="line"/>
      <point x="346.8" y="671.4" type="line"/>
      <point x="408.2" y="737.6"/>
      <point x="512.0" y="779.0"/>
      <point x="614.0" y="779.0" type="curve" smooth="yes"/>
      <point x="836.6" y="779.0"/>
      <point x="921.0" y="630.8"/>
      <point x="921.0" y="456.8" type="curve" smooth="yes"/>
      <point x="921.0" y="225.4"/>
      <point x="756.8" y="101.2"/>
      <point x="545.8" y="101.2" type="curve" smooth="yes"/>
      <point x="425.2" y="101.2"/>
      <point x="300.0" y="148.6"/>
      <point x="208.8" y="205.4" type="curve"/>
      <point x="157.4" y="96.8" type="line"/>
      <point x="260.4" y="32.8"/>
      <point x="412.0" y="-19.8"/>
    </contour>
  </outline>
</glyph>
<glyph name="six" format="1">
  <advance width="1200.0"/>
  <unicode hex="0036"/>
  <outline>
    <contour>
      <point x="625.2" y="-19.0" type="curve" smooth="yes"/>
      <point x="911.6" y="-19.0"/>
      <point x="1087.4" y="180.4"/>
      <point x="1087.4" y="427.6" type="curve" smooth="yes"/>
      <point x="1087.4" y="686.4"/>
      <point x="881.2" y="856.0"/>
      <point x="654.6" y="856.0" type="curve" smooth="yes"/>
      <point x="397.4" y="856.0"/>
      <point x="271.0" y="642.0"/>
      <point x="259.2" y="620.8" type="curve"/>
      <point x="282.8" y="601.2" type="line"/>
      <point x="282.8" y="601.2"/>
      <point x="437.4" y="801.2"/>
      <point x="535.8" y="946.0" type="curve"/>
      <point x="878.8" y="1443.2" type="line"/>
      <point x="708.8" y="1443.2" type="line"/>
      <point x="387.4" y="976.0" type="line"/>
      <point x="252.4" y="779.6"/>
      <point x="164.4" y="648.0"/>
      <point x="164.4" y="431.0" type="curve" smooth="yes"/>
      <point x="164.4" y="199.2"/>
      <point x="323.0" y="-19.0"/>
    </contour>
    <contour>
      <point x="621.6" y="99.4" type="curve" smooth="yes"/>
      <point x="411.4" y="99.4"/>
      <point x="307.2" y="249.2"/>
      <point x="307.2" y="420.0" type="curve" smooth="yes"/>
      <point x="307.2" y="669.6"/>
      <point x="504.4" y="737.2"/>
      <point x="628.6" y="737.2" type="curve" smooth="yes"/>
      <point x="828.8" y="737.2"/>
      <point x="943.2" y="606.6"/>
      <point x="943.2" y="426.8" type="curve" smooth="yes"/>
      <point x="943.2" y="253.6"/>
      <point x="830.4" y="99.4"/>
    </contour>
  </outline>
</glyph>
<glyph name="seven" format="1">
  <advance width="1200.0"/>
  <unicode hex="0037"/>
  <outline>
    <contour>
      <point x="366.2" y="0.8" type="line"/>
      <point x="513.2" y="0.8" type="line"/>
      <point x="1035.0" y="1334.2" type="line"/>
      <point x="1035.0" y="1443.2" type="line"/>
      <point x="193.4" y="1443.2" type="line"/>
      <point x="215.8" y="1322.4" type="line"/>
      <point x="881.4" y="1322.4" type="line"/>
    </contour>
  </outline>
</glyph>
<glyph name="eight" format="1">
  <advance width="1200.0"/>
  <unicode hex="0038"/>
  <outline>
    <contour>
      <point x="600.6" y="-19.0" type="curve" smooth="yes"/>
      <point x="858.0" y="-19.0"/>
      <point x="1066.8" y="104.6"/>
      <point x="1066.8" y="356.4" type="curve" smooth="yes"/>
      <point x="1066.8" y="544.4"/>
      <point x="945.0" y="698.0"/>
      <point x="754.0" y="755.6" type="curve"/>
      <point x="921.0" y="812.4"/>
      <point x="1034.6" y="925.4"/>
      <point x="1034.6" y="1105.4" type="curve" smooth="yes"/>
      <point x="1034.6" y="1330.2"/>
      <point x="857.2" y="1462.0"/>
      <point x="601.2" y="1462.0" type="curve" smooth="yes"/>
      <point x="344.0" y="1462.0"/>
      <point x="164.2" y="1330.2"/>
      <point x="164.2" y="1105.4" type="curve" smooth="yes"/>
      <point x="164.2" y="926.2"/>
      <point x="288.0" y="802.4"/>
      <point x="448.2" y="753.2" type="curve"/>
      <point x="248.4" y="687.0"/>
      <point x="133.2" y="560.8"/>
      <point x="133.2" y="356.6" type="curve" smooth="yes"/>
      <point x="133.2" y="104.2"/>
      <point x="345.2" y="-19.0"/>
    </contour>
    <contour>
      <point x="600.6" y="98.0" type="curve" smooth="yes"/>
      <point x="385.2" y="98.0"/>
      <point x="271.6" y="194.6"/>
      <point x="271.6" y="371.2" type="curve" smooth="yes"/>
      <point x="271.6" y="551.2"/>
      <point x="414.2" y="653.6"/>
      <point x="600.6" y="693.0" type="curve"/>
      <point x="788.4" y="653.6"/>
      <point x="925.8" y="543.8"/>
      <point x="925.8" y="371.4" type="curve" smooth="yes"/>
      <point x="925.8" y="186.6"/>
      <point x="822.6" y="98.0"/>
    </contour>
    <contour>
      <point x="600.6" y="803.8" type="curve"/>
      <point x="409.4" y="845.6"/>
      <point x="310.8" y="951.0"/>
      <point x="310.8" y="1110.0" type="curve" smooth="yes"/>
      <point x="310.8" y="1257.0"/>
      <point x="427.6" y="1347.8"/>
      <point x="600.6" y="1347.8" type="curve" smooth="yes"/>
      <point x="775.2" y="1347.8"/>
      <point x="887.4" y="1257.0"/>
      <point x="887.4" y="1110.0" type="curve" smooth="yes"/>
      <point x="887.4" y="951.0"/>
      <point x="794.0" y="845.6"/>
    </contour>
  </outline>
</glyph>
<glyph name="nine" format="1">
  <advance width="1200.0"/>
  <unicode hex="0039"/>
  <outline>
    <contour>
      <point x="313.6" y="0.0" type="line"/>
      <point x="490.6" y="0.0" type="line"/>
      <point x="490.6" y="0.0"/>
      <point x="837.4" y="463.8"/>
      <point x="841.8" y="469.6" type="curve" smooth="yes"/>
      <point x="981.2" y="659.4"/>
      <point x="1081.6" y="795.6"/>
      <point x="1081.6" y="1011.8" type="curve" smooth="yes"/>
      <point x="1081.6" y="1244.0"/>
      <point x="922.8" y="1462.0"/>
      <point x="620.6" y="1462.0" type="curve" smooth="yes"/>
      <point x="334.0" y="1462.0"/>
      <point x="157.6" y="1262.6"/>
      <point x="157.6" y="1014.8" type="curve" smooth="yes"/>
      <point x="157.6" y="755.2"/>
      <point x="364.4" y="586.0"/>
      <point x="591.0" y="586.0" type="curve" smooth="yes"/>
      <point x="844.4" y="586.0"/>
      <point x="975.8" y="798.2"/>
      <point x="987.0" y="820.6" type="curve"/>
      <point x="962.8" y="839.4" type="line"/>
      <point x="962.8" y="839.4"/>
      <point x="799.6" y="642.2"/>
      <point x="694.8" y="502.2" type="curve"/>
    </contour>
    <contour>
      <point x="616.6" y="705.4" type="curve" smooth="yes"/>
      <point x="416.4" y="705.4"/>
      <point x="302.4" y="835.6"/>
      <point x="302.4" y="1016.0" type="curve" smooth="yes"/>
      <point x="302.4" y="1189.6"/>
      <point x="415.8" y="1343.0"/>
      <point x="624.6" y="1343.0" type="curve" smooth="yes"/>
      <point x="834.8" y="1343.0"/>
      <point x="939.0" y="1193.4"/>
      <point x="939.0" y="1022.4" type="curve" smooth="yes"/>
      <point x="939.0" y="772.0"/>
      <point x="740.6" y="705.4"/>
    </contour>
  </outline>
</glyph>
<glyph name="colon" format="1">
  <advance width="522.0"/>
  <unicode hex="003A"/>
  <outline>
    <contour>
      <point x="174.6" y="0.0" type="line"/>
      <point x="343.4" y="0.0" type="line"/>
      <point x="343.4" y="193.4" type="line"/>
      <point x="174.6" y="193.4" type="line"/>
    </contour>
    <contour>
      <point x="174.6" y="862.2" type="line"/>
      <point x="343.4" y="862.2" type="line"/>
      <point x="343.4" y="1057.4" type="line"/>
      <point x="174.6" y="1057.4" type="line"/>
    </contour>
  </outline>
</glyph>
<glyph name="semicolon" format="1">
  <advance width="511.2"/>
  <unicode hex="003B"/>
  <outline>
    <contour>
      <point x="177.8" y="862.2" type="line"/>
      <point x="346.6" y="862.2" type="line"/>
      <point x="346.6" y="1057.4" type="line"/>
      <point x="177.8" y="1057.4" type="line"/>
    </contour>
    <contour>
      <point x="145.0" y="-299.4" type="line"/>
      <point x="230.0" y="-299.4" type="line"/>
      <point x="351.2" y="166.4" type="line"/>
      <point x="199.4" y="166.4" type="line"/>
    </contour>
  </outline>
</glyph>
<glyph name="less" format="1">
  <advance width="1187.4"/>
  <unicode hex="003C"/>
  <outline>
    <contour>
      <point x="1040.2" y="129.0" type="line"/>
      <point x="1040.2" y="129.0"/>
      <point x="1041.6" y="257.2"/>
      <point x="1041.4" y="257.4" type="curve" smooth="yes"/>
      <point x="259.6" y="619.0" type="line"/>
      <point x="1043.4" y="1004.0" type="line"/>
      <point x="1043.4" y="1134.2" type="line"/>
      <point x="111.4" y="655.6" type="line"/>
      <point x="111.4" y="574.6" type="line"/>
    </contour>
  </outline>
</glyph>
<glyph name="greater" format="1">
  <advance width="1197.8"/>
  <unicode hex="003E"/>
  <outline>
    <contour>
      <point x="146.2" y="135.2" type="line"/>
      <point x="1078.2" y="573.0" type="line"/>
      <point x="1078.2" y="654.4" type="line"/>
      <point x="148.6" y="1140.8" type="line"/>
      <point x="148.6" y="1011.4" type="line"/>
      <point x="921.0" y="619.0" type="line"/>
      <point x="146.2" y="265.0" type="line"/>
    </contour>
  </outline>
</glyph>
<glyph name="question" format="1">
  <advance width="924.2"/>
  <unicode hex="003F"/>
  <outline>
    <contour>
      <point x="430.2" y="408.8" type="line"/>
      <point x="543.8" y="756.2"/>
      <point x="777.0" y="906.2"/>
      <point x="777.0" y="1181.2" type="curve" smooth="yes"/>
      <point x="777.0" y="1373.6"/>
      <point x="622.8" y="1487.0"/>
      <point x="440.8" y="1487.0" type="curve" smooth="yes"/>
      <point x="310.2" y="1487.0"/>
      <point x="207.4" y="1448.2"/>
      <point x="130.2" y="1395.6" type="curve"/>
      <point x="160.6" y="1279.6" type="line"/>
      <point x="204.4" y="1307.2"/>
      <point x="310.0" y="1365.6"/>
      <point x="423.0" y="1365.6" type="curve" smooth="yes"/>
      <point x="558.2" y="1365.6"/>
      <point x="640.8" y="1302.4"/>
      <point x="641.0" y="1165.2" type="curve"/>
      <point x="641.0" y="928.0"/>
      <point x="367.2" y="652.0"/>
      <point x="360.2" y="408.8" type="curve"/>
    </contour>
    <contour>
      <point x="399.0" y="-13.4" type="curve" smooth="yes"/>
      <point x="477.4" y="-13.4"/>
      <point x="509.2" y="41.6"/>
      <point x="509.2" y="95.6" type="curve" smooth="yes"/>
      <point x="509.2" y="148.2"/>
      <point x="477.4" y="204.0"/>
      <point x="399.0" y="204.0" type="curve" smooth="yes"/>
      <point x="321.0" y="204.0"/>
      <point x="290.6" y="148.2"/>
      <point x="290.6" y="95.6" type="curve" smooth="yes"/>
      <point x="290.6" y="43.0"/>
      <point x="321.2" y="-13.4"/>
    </contour>
  </outline>
</glyph>
<glyph name="at" format="1">
  <advance width="2014.2"/>
  <unicode hex="0040"/>
  <outline>
    <contour>
      <point x="983.8" y="-207.2" type="curve" smooth="yes"/>
      <point x="1182.2" y="-207.2"/>
      <point x="1367.0" y="-160.8"/>
      <point x="1500.8" y="-71.0" type="curve"/>
      <point x="1460.8" y="21.6" type="line"/>
      <point x="1323.0" y="-57.4"/>
      <point x="1158.8" y="-100.8"/>
      <point x="988.0" y="-100.8" type="curve" smooth="yes"/>
      <point x="577.2" y="-100.8"/>
      <point x="300.0" y="161.0"/>
      <point x="300.0" y="604.8" type="curve" smooth="yes"/>
      <point x="300.0" y="1049.6"/>
      <point x="613.0" y="1378.2"/>
      <point x="1050.6" y="1378.2" type="curve" smooth="yes"/>
      <point x="1452.6" y="1378.2"/>
      <point x="1722.2" y="1117.8"/>
      <point x="1722.2" y="756.4" type="curve" smooth="yes"/>
      <point x="1722.2" y="501.8"/>
      <point x="1608.0" y="313.4"/>
      <point x="1453.2" y="313.4" type="curve" smooth="yes"/>
      <point x="1357.2" y="313.4"/>
      <point x="1309.0" y="393.4"/>
      <point x="1309.0" y="491.2" type="curve" smooth="yes"/>
      <point x="1309.0" y="619.2"/>
      <point x="1347.4" y="810.4"/>
      <point x="1376.6" y="1018.6" type="curve"/>
      <point x="1287.6" y="1052.8"/>
      <point x="1167.8" y="1081.4"/>
      <point x="1067.4" y="1081.4" type="curve" smooth="yes"/>
      <point x="779.4" y="1081.4"/>
      <point x="618.6" y="843.4"/>
      <point x="618.6" y="570.8" type="curve" smooth="yes"/>
      <point x="618.6" y="350.8"/>
      <point x="728.4" y="211.4"/>
      <point x="918.6" y="211.4" type="curve" smooth="yes"/>
      <point x="1097.4" y="211.4"/>
      <point x="1206.6" y="387.6"/>
      <point x="1252.4" y="559.8" type="curve"/>
      <point x="1200.4" y="559.8" type="line"/>
      <point x="1212.0" y="329.8"/>
      <point x="1289.4" y="223.2"/>
      <point x="1455.4" y="223.2" type="curve" smooth="yes"/>
      <point x="1632.0" y="223.2"/>
      <point x="1836.6" y="402.4"/>
      <point x="1836.6" y="749.0" type="curve" smooth="yes"/>
      <point x="1836.6" y="1205.2"/>
      <point x="1494.8" y="1487.6"/>
      <point x="1054.0" y="1487.6" type="curve" smooth="yes"/>
      <point x="540.6" y="1487.6"/>
      <point x="174.4" y="1113.2"/>
      <point x="174.4" y="605.2" type="curve" smooth="yes"/>
      <point x="174.4" y="96.2"/>
      <point x="494.6" y="-207.2"/>
    </contour>
    <contour>
      <point x="933.4" y="313.4" type="curve" smooth="yes"/>
      <point x="816.6" y="313.4"/>
      <point x="746.0" y="390.6"/>
      <point x="746.0" y="571.4" type="curve" smooth="yes"/>
      <point x="746.0" y="781.6"/>
      <point x="868.0" y="983.8"/>
      <point x="1066.8" y="983.8" type="curve" smooth="yes"/>
      <point x="1119.2" y="983.8"/>
      <point x="1256.0" y="959.0"/>
      <point x="1296.2" y="945.2" type="curve"/>
      <point x="1237.0" y="1027.2" type="line"/>
      <point x="1232.2" y="976.8"/>
      <point x="1192.0" y="741.2"/>
      <point x="1184.8" y="691.6" type="curve" smooth="yes"/>
      <point x="1156.6" y="486.8"/>
      <point x="1091.6" y="313.4"/>
    </contour>
  </outline>
</glyph>
<glyph name="A" format="1">
  <advance width="1336.6"/>
  <unicode hex="0041"/>
  <outline>
    <contour>
      <point x="49.0" y="0.0" type="line"/>
      <point x="209.4" y="0.0" type="line"/>
      <point x="403.4" y="518.2" type="line"/>
      <point x="339.0" y="471.0" type="line"/>
      <point x="1007.8" y="471.0" type="line"/>
      <point x="941.2" y="515.6" type="line"/>
      <point x="1133.4" y="0.0" type="line"/>
      <point x="1287.6" y="0.0" type="line"/>
      <point x="749.0" y="1443.2" type="line"/>
      <point x="588.0" y="1443.2" type="line"/>
    </contour>
    <contour>
      <point x="407.8" y="534.6" type="line"/>
      <point x="693.0" y="1349.8" type="line"/>
      <point x="645.4" y="1351.4" type="line"/>
      <point x="936.6" y="534.8" type="line"/>
      <point x="975.8" y="582.2" type="line"/>
      <point x="372.8" y="582.2" type="line"/>
    </contour>
  </outline>
</glyph>
<glyph name="B" format="1">
  <advance width="1371.8"/>
  <unicode hex="0042"/>
  <outline>
    <contour>
      <point x="209.2" y="0.0" type="line"/>
      <point x="748.4" y="0.0" type="line" smooth="yes"/>
      <point x="1099.6" y="0.0"/>
      <point x="1257.0" y="159.4"/>
      <point x="1257.0" y="405.2" type="curve" smooth="yes"/>
      <point x="1257.0" y="624.8"/>
      <point x="1112.4" y="743.2"/>
      <point x="871.8" y="779.2" type="curve"/>
      <point x="871.8" y="735.8" type="line"/>
      <point x="1130.8" y="796.8"/>
      <point x="1198.2" y="916.2"/>
      <point x="1198.2" y="1090.2" type="curve" smooth="yes"/>
      <point x="1198.2" y="1332.4"/>
      <point x="1029.6" y="1443.2"/>
      <point x="661.2" y="1443.2" type="curve" smooth="yes"/>
      <point x="209.2" y="1443.2" type="line"/>
    </contour>
    <contour>
      <point x="317.8" y="120.6" type="line"/>
      <point x="367.2" y="69.8" type="line"/>
      <point x="367.2" y="746.4" type="line"/>
      <point x="317.0" y="701.4" type="line"/>
      <point x="663.4" y="701.4" type="line" smooth="yes"/>
      <point x="958.2" y="701.4"/>
      <point x="1099.0" y="630.2"/>
      <point x="1099.0" y="407.6" type="curve" smooth="yes"/>
      <point x="1099.0" y="202.6"/>
      <point x="986.0" y="120.6"/>
      <point x="724.0" y="120.6" type="curve" smooth="yes"/>
    </contour>
    <contour>
      <point x="316.2" y="816.2" type="line"/>
      <point x="367.2" y="775.6" type="line"/>
      <point x="367.2" y="1372.6" type="line"/>
      <point x="318.6" y="1323.8" type="line"/>
      <point x="664.4" y="1323.8" type="line" smooth="yes"/>
      <point x="924.2" y="1323.8"/>
      <point x="1048.2" y="1274.6"/>
      <point x="1048.2" y="1072.2" type="curve" smooth="yes"/>
      <point x="1048.2" y="864.2"/>
      <point x="918.2" y="816.2"/>
      <point x="723.2" y="816.2" type="curve" smooth="yes"/>
    </contour>
  </outline>
</glyph>
<glyph name="C" format="1">
  <advance width="1309.4"/>
  <unicode hex="0043"/>
  <outline>
    <contour>
      <point x="834.0" y="-19.0" type="curve" smooth="yes"/>
      <point x="1038.2" y="-19.0"/>
      <point x="1172.2" y="43.6"/>
      <point x="1215.6" y="66.8" type="curve"/>
      <point x="1176.4" y="184.0" type="line"/>
      <point x="1132.6" y="163.4"/>
      <point x="1016.8" y="106.6"/>
      <point x="851.0" y="106.6" type="curve" smooth="yes"/>
      <point x="499.2" y="106.6"/>
      <point x="297.4" y="359.8"/>
      <point x="297.4" y="720.0" type="curve" smooth="yes"/>
      <point x="297.4" y="1077.6"/>
      <point x="490.6" y="1337.4"/>
      <point x="837.6" y="1337.4" type="curve" smooth="yes"/>
      <point x="959.2" y="1337.4"/>
      <point x="1082.4" y="1302.8"/>
      <point x="1169.8" y="1247.4" type="curve"/>
      <point x="1225.0" y="1349.8" type="line"/>
      <point x="1135.8" y="1415.4"/>
      <point x="996.2" y="1462.0"/>
      <point x="822.6" y="1462.0" type="curve" smooth="yes"/>
      <point x="397.8" y="1462.0"/>
      <point x="139.2" y="1155.4"/>
      <point x="139.2" y="726.2" type="curve" smooth="yes"/>
      <point x="139.2" y="270.2"/>
      <point x="425.4" y="-19.0"/>
    </contour>
  </outline>
</glyph>
<glyph name="D" format="1">
  <advance width="1536.4"/>
  <unicode hex="0044"/>
  <outline>
    <contour>
      <point x="367.2" y="64.8" type="line"/>
      <point x="367.2" y="1378.0" type="line"/>
      <point x="312.2" y="1323.8" type="line"/>
      <point x="609.4" y="1323.8" type="line" smooth="yes"/>
      <point x="1007.6" y="1323.8"/>
      <point x="1239.8" y="1157.0"/>
      <point x="1239.8" y="720.0" type="curve" smooth="yes"/>
      <point x="1239.8" y="321.4"/>
      <point x="1039.6" y="120.6"/>
      <point x="636.4" y="120.6" type="curve" smooth="yes"/>
      <point x="312.4" y="120.6" type="line"/>
    </contour>
    <contour>
      <point x="209.2" y="0.0" type="line"/>
      <point x="649.6" y="0.0" type="line" smooth="yes"/>
      <point x="1110.6" y="0.0"/>
      <point x="1397.6" y="247.4"/>
      <point x="1397.6" y="725.0" type="curve" smooth="yes"/>
      <point x="1397.6" y="1228.4"/>
      <point x="1081.4" y="1443.2"/>
      <point x="620.0" y="1443.2" type="curve" smooth="yes"/>
      <point x="209.2" y="1443.2" type="line"/>
    </contour>
  </outline>
</glyph>
<glyph name="E" format="1">
  <advance width="1164.4"/>
  <unicode hex="0045"/>
  <outline>
    <contour>
      <point x="209.2" y="0.0" type="line"/>
      <point x="1076.4" y="0.0" type="line"/>
      <point x="1087.2" y="120.6" type="line"/>
      <point x="316.2" y="120.6" type="line"/>
      <point x="367.2" y="69.2" type="line"/>
      <point x="367.2" y="730.4" type="line"/>
      <point x="316.0" y="685.4" type="line"/>
      <point x="1013.0" y="685.4" type="line"/>
      <point x="1013.0" y="804.8" type="line"/>
      <point x="316.2" y="804.8" type="line"/>
      <point x="367.2" y="756.4" type="line"/>
      <point x="367.2" y="1370.2" type="line"/>
      <point x="317.6" y="1323.8" type="line"/>
      <point x="1079.6" y="1323.8" type="line"/>
      <point x="1085.0" y="1443.2" type="line"/>
      <point x="209.2" y="1443.2" type="line"/>
    </contour>
  </outline>
</glyph>
<glyph name="F" format="1">
  <advance width="1092.0"/>
  <unicode hex="0046"/>
  <outline>
    <contour>
      <point x="209.2" y="0.0" type="line"/>
      <point x="370.4" y="0.0" type="line"/>
      <point x="370.4" y="713.8" type="line"/>
      <point x="309.4" y="667.4" type="line"/>
      <point x="972.6" y="667.4" type="line"/>
      <point x="972.6" y="782.4" type="line"/>
      <point x="303.0" y="782.4" type="line"/>
      <point x="370.4" y="734.6" type="line"/>
      <point x="370.4" y="1381.8" type="line"/>
      <point x="302.0" y="1321.8" type="line"/>
      <point x="1020.4" y="1321.8" type="line"/>
      <point x="1030.0" y="1443.2" type="line"/>
      <point x="209.2" y="1443.2" type="line"/>
    </contour>
  </outline>
</glyph>
<glyph name="G" format="1">
  <advance width="1477.6"/>
  <unicode hex="0047"/>
  <outline>
    <contour>
      <point x="824.6" y="-19.0" type="curve" smooth="yes"/>
      <point x="1021.4" y="-19.0"/>
      <point x="1176.0" y="13.2"/>
      <point x="1321.4" y="68.4" type="curve"/>
      <point x="1321.4" y="731.0" type="line"/>
      <point x="851.8" y="731.0" type="line"/>
      <point x="843.8" y="602.6" type="line"/>
      <point x="1227.8" y="602.6" type="line"/>
      <point x="1172.0" y="658.4" type="line"/>
      <point x="1172.0" y="93.4" type="line"/>
      <point x="1221.0" y="166.6" type="line"/>
      <point x="1163.4" y="143.6"/>
      <point x="1027.0" y="106.4"/>
      <point x="858.0" y="106.4" type="curve" smooth="yes"/>
      <point x="456.4" y="106.4"/>
      <point x="296.4" y="351.2"/>
      <point x="296.4" y="719.4" type="curve" smooth="yes"/>
      <point x="296.4" y="1069.2"/>
      <point x="499.6" y="1337.8"/>
      <point x="853.4" y="1337.8" type="curve" smooth="yes"/>
      <point x="1080.2" y="1337.8"/>
      <point x="1174.8" y="1267.0"/>
      <point x="1241.4" y="1228.8" type="curve"/>
      <point x="1280.6" y="1349.0" type="line"/>
      <point x="1167.0" y="1431.8"/>
      <point x="1020.2" y="1462.0"/>
      <point x="853.2" y="1462.0" type="curve" smooth="yes"/>
      <point x="407.0" y="1462.0"/>
      <point x="138.2" y="1142.4"/>
      <point x="138.2" y="718.0" type="curve" smooth="yes"/>
      <point x="138.2" y="298.6"/>
      <point x="371.0" y="-19.0"/>
    </contour>
  </outline>
</glyph>
<glyph name="H" format="1">
  <advance width="1512.8"/>
  <unicode hex="0048"/>
  <outline>
    <contour>
      <point x="206.8" y="0.0" type="line"/>
      <point x="364.8" y="0.0" type="line"/>
      <point x="364.8" y="728.6" type="line"/>
      <point x="304.2" y="684.2" type="line"/>
      <point x="1213.0" y="684.2" type="line"/>
      <point x="1148.0" y="728.6" type="line"/>
      <point x="1148.0" y="0.0" type="line"/>
      <point x="1306.0" y="0.0" type="line"/>
      <point x="1306.0" y="1443.2" type="line"/>
      <point x="1148.0" y="1443.2" type="line"/>
      <point x="1148.0" y="753.8" type="line"/>
      <point x="1210.0" y="799.0" type="line"/>
      <point x="304.0" y="799.0" type="line"/>
      <point x="364.8" y="753.8" type="line"/>
      <point x="364.8" y="1443.2" type="line"/>
      <point x="206.8" y="1443.2" type="line"/>
    </contour>
  </outline>
</glyph>
<glyph name="I" format="1">
  <advance width="778.0"/>
  <unicode hex="0049"/>
  <outline>
    <contour>
      <point x="115.2" y="1443.2" type="line"/>
      <point x="115.2" y="1345.8" type="line"/>
      <point x="357.0" y="1345.8" type="line"/>
      <point x="311.2" y="1390.2" type="line"/>
      <point x="311.2" y="47.2" type="line"/>
      <point x="360.8" y="97.2" type="line"/>
      <point x="115.2" y="97.2" type="line"/>
      <point x="115.2" y="0.0" type="line"/>
      <point x="663.6" y="0.0" type="line"/>
      <point x="663.6" y="97.2" type="line"/>
      <point x="417.6" y="97.2" type="line"/>
      <point x="469.2" y="48.6" type="line"/>
      <point x="469.2" y="1389.2" type="line"/>
      <point x="420.8" y="1345.8" type="line"/>
      <point x="663.6" y="1345.8" type="line"/>
      <point x="663.6" y="1443.2" type="line"/>
    </contour>
  </outline>
</glyph>
<glyph name="J" format="1">
  <advance width="743.4"/>
  <unicode hex="004A"/>
  <outline>
    <contour>
      <point x="108.6" y="-158.6" type="line"/>
      <point x="429.0" y="-158.6"/>
      <point x="534.4" y="-3.0"/>
      <point x="534.4" y="292.8" type="curve" smooth="yes"/>
      <point x="534.4" y="1443.2" type="line"/>
      <point x="376.2" y="1443.2" type="line"/>
      <point x="376.2" y="265.6" type="line" smooth="yes"/>
      <point x="376.2" y="60.8"/>
      <point x="307.6" y="-30.6"/>
      <point x="100.4" y="-30.6" type="curve" smooth="yes"/>
      <point x="9.0" y="-30.6" type="line"/>
      <point x="9.0" y="-158.6" type="line"/>
    </contour>
  </outline>
</glyph>
<glyph name="K" format="1">
  <advance width="1300.6"/>
  <unicode hex="004B"/>
  <outline>
    <contour>
      <point x="209.2" y="0.0" type="line"/>
      <point x="367.2" y="0.0" type="line"/>
      <point x="367.2" y="651.0" type="line"/>
      <point x="319.6" y="546.6" type="line"/>
      <point x="543.6" y="755.2" type="line"/>
      <point x="467.2" y="759.2" type="line"/>
      <point x="1066.8" y="0.0" type="line"/>
      <point x="1253.0" y="0.0" type="line"/>
      <point x="578.8" y="848.8" type="line"/>
      <point x="578.8" y="766.2" type="line"/>
      <point x="1222.4" y="1443.2" type="line"/>
      <point x="1037.4" y="1443.2" type="line"/>
      <point x="320.2" y="695.4" type="line"/>
      <point x="367.2" y="685.6" type="line"/>
      <point x="367.2" y="1443.2" type="line"/>
      <point x="209.2" y="1443.2" type="line"/>
    </contour>
  </outline>
</glyph>
<glyph name="L" format="1">
  <advance width="1110.0"/>
  <unicode hex="004C"/>
  <outline>
    <contour>
      <point x="209.2" y="0.0" type="line"/>
      <point x="1044.2" y="0.0" type="line"/>
      <point x="1047.0" y="120.6" type="line"/>
      <point x="302.0" y="120.6" type="line"/>
      <point x="367.2" y="53.6" type="line"/>
      <point x="367.2" y="1443.2" type="line"/>
      <point x="209.2" y="1443.2" type="line"/>
    </contour>
  </outline>
</glyph>
<glyph name="M" format="1">
  <advance width="1813.8"/>
  <unicode hex="004D"/>
  <outline>
    <contour>
      <point x="188.0" y="0.0" type="line"/>
      <point x="336.8" y="0.0" type="line"/>
      <point x="351.6" y="957.6" type="line"/>
      <point x="351.6" y="1342.0" type="line"/>
      <point x="321.2" y="1342.0" type="line"/>
      <point x="836.0" y="157.2" type="line"/>
      <point x="978.0" y="157.2" type="line"/>
      <point x="1501.0" y="1342.0" type="line"/>
      <point x="1463.8" y="1342.0" type="line"/>
      <point x="1463.8" y="961.4" type="line"/>
      <point x="1478.6" y="0.0" type="line"/>
      <point x="1625.6" y="0.0" type="line"/>
      <point x="1597.0" y="1443.2" type="line"/>
      <point x="1400.0" y="1443.2" type="line"/>
      <point x="875.0" y="242.2" type="line"/>
      <point x="942.4" y="242.2" type="line"/>
      <point x="419.4" y="1443.2" type="line"/>
      <point x="215.0" y="1443.2" type="line"/>
    </contour>
  </outline>
</glyph>
<glyph name="N" format="1">
  <advance width="1566.2"/>
  <unicode hex="004E"/>
  <outline>
    <contour>
      <point x="209.2" y="0.0" type="line"/>
      <point x="353.0" y="0.0" type="line"/>
      <point x="353.0" y="808.2" type="line"/>
      <point x="337.6" y="1321.4" type="line"/>
      <point x="297.6" y="1303.8" type="line"/>
      <point x="1198.2" y="0.0" type="line"/>
      <point x="1357.0" y="0.0" type="line"/>
      <point x="1357.0" y="1443.2" type="line"/>
      <point x="1214.0" y="1443.2" type="line"/>
      <point x="1214.0" y="596.0" type="line"/>
      <point x="1224.6" y="125.8" type="line"/>
      <point x="1267.0" y="129.8" type="line"/>
      <point x="362.4" y="1443.2" type="line"/>
      <point x="209.2" y="1443.2" type="line"/>
    </contour>
  </outline>
</glyph>
<glyph name="O" format="1">
  <advance width="1649.8"/>
  <unicode hex="004F"/>
  <outline>
    <contour>
      <point x="826.0" y="105.6" type="curve" smooth="yes"/>
      <point x="460.6" y="105.6"/>
      <point x="297.4" y="357.4"/>
      <point x="297.4" y="711.8" type="curve" smooth="yes"/>
      <point x="297.4" y="1083.2"/>
      <point x="472.8" y="1337.0"/>
      <point x="827.6" y="1337.0" type="curve" smooth="yes"/>
      <point x="1183.2" y="1337.0"/>
      <point x="1352.6" y="1080.8"/>
      <point x="1352.6" y="711.8" type="curve" smooth="yes"/>
      <point x="1352.6" y="357.4"/>
      <point x="1191.4" y="105.6"/>
    </contour>
    <contour>
      <point x="827.6" y="-19.0" type="curve" smooth="yes"/>
      <point x="1273.4" y="-19.0"/>
      <point x="1510.6" y="279.8"/>
      <point x="1510.6" y="709.8" type="curve" smooth="yes"/>
      <point x="1510.6" y="1159.8"/>
      <point x="1260.2" y="1462.0"/>
      <point x="828.4" y="1462.0" type="curve" smooth="yes"/>
      <point x="386.2" y="1462.0"/>
      <point x="139.2" y="1163.8"/>
      <point x="139.2" y="712.2" type="curve" smooth="yes"/>
      <point x="139.2" y="273.4"/>
      <point x="375.4" y="-19.0"/>
    </contour>
  </outline>
</glyph>
<glyph name="P" format="1">
  <advance width="1247.8"/>
  <unicode hex="0050"/>
  <outline>
    <contour>
      <point x="209.2" y="0.0" type="line"/>
      <point x="367.2" y="0.0" type="line"/>
      <point x="367.2" y="745.0" type="line"/>
      <point x="307.8" y="695.6" type="line"/>
      <point x="692.8" y="695.6" type="line" smooth="yes"/>
      <point x="1020.8" y="695.6"/>
      <point x="1155.8" y="835.2"/>
      <point x="1155.8" y="1089.2" type="curve" smooth="yes"/>
      <point x="1155.8" y="1347.6"/>
      <point x="962.0" y="1443.2"/>
      <point x="696.8" y="1443.2" type="curve" smooth="yes"/>
      <point x="209.2" y="1443.2" type="line"/>
    </contour>
    <contour>
      <point x="693.0" y="816.8" type="curve" smooth="yes"/>
      <point x="307.6" y="816.8" type="line"/>
      <point x="367.2" y="771.6" type="line"/>
      <point x="367.2" y="1380.0" type="line"/>
      <point x="307.6" y="1323.8" type="line"/>
      <point x="695.4" y="1323.8" type="line" smooth="yes"/>
      <point x="877.2" y="1323.8"/>
      <point x="997.8" y="1268.0"/>
      <point x="997.8" y="1088.2" type="curve" smooth="yes"/>
      <point x="997.8" y="884.4"/>
      <point x="909.6" y="816.8"/>
    </contour>
  </outline>
</glyph>
<glyph name="Q" format="1">
  <advance width="1649.4"/>
  <unicode hex="0051"/>
  <outline>
    <contour>
      <point x="1258.0" y="-423.8" type="curve"/>
      <point x="1347.0" y="-340.2" type="line"/>
      <point x="1259.6" y="-250.4"/>
      <point x="1130.0" y="-79.6"/>
      <point x="1079.0" y="25.8" type="curve"/>
      <point x="951.2" y="3.8" type="line"/>
      <point x="1040.2" y="-169.2"/>
      <point x="1194.0" y="-361.0"/>
    </contour>
    <component base="O"/>
  </outline>
</glyph>
<glyph name="R" format="1">
  <advance width="1411.4"/>
  <unicode hex="0052"/>
  <outline>
    <contour>
      <point x="209.2" y="0.0" type="line"/>
      <point x="367.2" y="0.0" type="line"/>
      <point x="367.2" y="741.4" type="line"/>
      <point x="308.2" y="696.8" type="line"/>
      <point x="898.0" y="696.8" type="line"/>
      <point x="809.0" y="753.0" type="line"/>
      <point x="932.8" y="473.6" type="line"/>
      <point x="1133.6" y="0.0" type="line"/>
      <point x="1296.4" y="0.0" type="line"/>
      <point x="1061.4" y="527.0" type="line"/>
      <point x="951.4" y="790.2" type="line"/>
      <point x="943.2" y="710.4" type="line"/>
      <point x="1133.6" y="748.0"/>
      <point x="1237.0" y="855.0"/>
      <point x="1237.0" y="1077.4" type="curve" smooth="yes"/>
      <point x="1237.0" y="1322.8"/>
      <point x="1101.8" y="1443.2"/>
      <point x="800.8" y="1443.2" type="curve" smooth="yes"/>
      <point x="209.2" y="1443.2" type="line"/>
    </contour>
    <contour>
      <point x="367.2" y="765.6" type="line"/>
      <point x="367.2" y="1378.2" type="line"/>
      <point x="307.4" y="1323.8" type="line"/>
      <point x="802.0" y="1323.8" type="line" smooth="yes"/>
      <point x="1019.6" y="1323.8"/>
      <point x="1083.0" y="1234.0"/>
      <point x="1083.0" y="1075.0" type="curve" smooth="yes"/>
      <point x="1083.0" y="885.8"/>
      <point x="1030.0" y="814.2"/>
      <point x="768.8" y="814.2" type="curve" smooth="yes"/>
      <point x="307.8" y="814.2" type="line"/>
    </contour>
  </outline>
</glyph>
<glyph name="S" format="1">
  <advance width="1205.43606652"/>
  <unicode hex="0053"/>
  <outline>
    <contour>
      <point x="603.2" y="-19.0" type="curve" smooth="yes"/>
      <point x="870.2" y="-19.0"/>
      <point x="1076.2" y="85.8"/>
      <point x="1089.0" y="373.6" type="curve" smooth="yes"/>
      <point x="1100.2" y="624.8"/>
      <point x="939.8" y="703.0"/>
      <point x="736.0" y="781.2" type="curve" smooth="yes"/>
      <point x="505.6" y="870.8" type="line" smooth="yes"/>
      <point x="356.8" y="929.4"/>
      <point x="309.8" y="970.6"/>
      <point x="309.8" y="1102.6" type="curve" smooth="yes"/>
      <point x="309.8" y="1282.6"/>
      <point x="474.8" y="1337.0"/>
      <point x="634.8" y="1337.0" type="curve" smooth="yes"/>
      <point x="803.0" y="1337.0"/>
      <point x="928.8" y="1257.8"/>
      <point x="971.4" y="1233.4" type="curve"/>
      <point x="1033.4" y="1339.6" type="line"/>
      <point x="956.8" y="1398.0"/>
      <point x="806.8" y="1462.0"/>
      <point x="642.8" y="1462.0" type="curve" smooth="yes"/>
      <point x="409.8" y="1462.0"/>
      <point x="165.2" y="1374.4"/>
      <point x="165.2" y="1092.6" type="curve" smooth="yes"/>
      <point x="165.2" y="893.4"/>
      <point x="278.4" y="814.8"/>
      <point x="462.0" y="744.4" type="curve" smooth="yes"/>
      <point x="699.8" y="654.2" type="line" smooth="yes"/>
      <point x="893.0" y="579.4"/>
      <point x="951.8" y="523.0"/>
      <point x="946.2" y="371.2" type="curve" smooth="yes"/>
      <point x="938.2" y="179.8"/>
      <point x="819.6" y="105.6"/>
      <point x="609.2" y="105.6" type="curve" smooth="yes"/>
      <point x="422.2" y="105.6"/>
      <point x="299.4" y="169.2"/>
      <point x="205.6" y="238.8" type="curve"/>
      <point x="149.6" y="125.4" type="line"/>
      <point x="214.0" y="76.4"/>
      <point x="346.2" y="-19.0"/>
    </contour>
  </outline>
</glyph>
<glyph name="T" format="1">
  <advance width="1150.2"/>
  <unicode hex="0054"/>
  <outline>
    <contour>
      <point x="493.6" y="0.0" type="line"/>
      <point x="651.8" y="0.0" type="line"/>
      <point x="651.8" y="1380.6" type="line"/>
      <point x="602.0" y="1324.4" type="line"/>
      <point x="1095.0" y="1324.4" type="line"/>
      <point x="1095.0" y="1443.2" type="line"/>
      <point x="55.2" y="1443.2" type="line"/>
      <point x="55.2" y="1324.4" type="line"/>
      <point x="543.4" y="1324.4" type="line"/>
      <point x="493.6" y="1379.2" type="line"/>
    </contour>
  </outline>
</glyph>
<glyph name="U" format="1">
  <advance width="1478.6"/>
  <unicode hex="0055"/>
  <outline>
    <contour>
      <point x="740.2" y="-19.0" type="curve" smooth="yes"/>
      <point x="1127.4" y="-19.0"/>
      <point x="1310.2" y="216.0"/>
      <point x="1310.2" y="528.8" type="curve" smooth="yes"/>
      <point x="1310.2" y="1443.2" type="line"/>
      <point x="1152.2" y="1443.2" type="line"/>
      <point x="1152.2" y="532.4" type="line" smooth="yes"/>
      <point x="1152.2" y="255.4"/>
      <point x="1013.6" y="106.4"/>
      <point x="740.2" y="106.4" type="curve" smooth="yes"/>
      <point x="455.2" y="106.4"/>
      <point x="326.6" y="256.0"/>
      <point x="326.6" y="533.0" type="curve" smooth="yes"/>
      <point x="326.6" y="1443.2" type="line"/>
      <point x="168.4" y="1443.2" type="line"/>
      <point x="168.4" y="531.4" type="line" smooth="yes"/>
      <point x="168.4" y="208.4"/>
      <point x="348.8" y="-19.0"/>
    </contour>
  </outline>
</glyph>
<glyph name="V" format="1">
  <advance width="1365.6"/>
  <unicode hex="0056"/>
  <outline>
    <contour>
      <point x="619.0" y="0.0" type="line"/>
      <point x="747.0" y="0.0" type="line"/>
      <point x="1294.4" y="1443.2" type="line"/>
      <point x="1133.4" y="1443.2" type="line"/>
      <point x="796.8" y="512.8" type="line"/>
      <point x="653.2" y="117.0" type="line"/>
      <point x="713.6" y="117.0" type="line"/>
      <point x="570.0" y="508.6" type="line"/>
      <point x="233.6" y="1443.2" type="line"/>
      <point x="71.2" y="1443.2" type="line"/>
    </contour>
  </outline>
</glyph>
<glyph name="W" format="1">
  <advance width="2068.4"/>
  <unicode hex="0057"/>
  <outline>
    <contour>
      <point x="505.6" y="0.0" type="line"/>
      <point x="656.6" y="0.0" type="line"/>
      <point x="1061.8" y="1307.2" type="line"/>
      <point x="1012.4" y="1307.2" type="line"/>
      <point x="1410.8" y="0.0" type="line"/>
      <point x="1565.6" y="0.0" type="line"/>
      <point x="2010.0" y="1442.4" type="line"/>
      <point x="1858.2" y="1442.4" type="line"/>
      <point x="1467.4" y="129.4" type="line"/>
      <point x="1509.0" y="129.4" type="line"/>
      <point x="1112.6" y="1408.2" type="line"/>
      <point x="957.4" y="1408.2" type="line"/>
      <point x="563.0" y="127.8" type="line"/>
      <point x="604.6" y="127.8" type="line"/>
      <point x="208.0" y="1442.4" type="line"/>
      <point x="58.4" y="1442.4" type="line"/>
    </contour>
  </outline>
</glyph>
<glyph name="X" format="1">
  <advance width="1352.0"/>
  <unicode hex="0058"/>
  <outline>
    <contour>
      <point x="132.6" y="0.0" type="line"/>
      <point x="285.2" y="0.0" type="line"/>
      <point x="689.0" y="636.4" type="line"/>
      <point x="757.0" y="697.2" type="line"/>
      <point x="1228.4" y="1443.2" type="line"/>
      <point x="1071.2" y="1443.2" type="line"/>
      <point x="682.4" y="812.4" type="line"/>
      <point x="606.0" y="741.6" type="line"/>
    </contour>
    <contour>
      <point x="1081.8" y="0.0" type="line"/>
      <point x="1233.0" y="0.0" type="line"/>
      <point x="278.6" y="1443.2" type="line"/>
      <point x="125.8" y="1443.2" type="line"/>
    </contour>
  </outline>
</glyph>
<glyph name="Y" format="1">
  <advance width="1240.4"/>
  <unicode hex="0059"/>
  <outline>
    <contour>
      <point x="560.0" y="0.0" type="line"/>
      <point x="711.2" y="0.0" type="line"/>
      <point x="711.2" y="664.6" type="line"/>
      <point x="669.6" y="515.6" type="line"/>
      <point x="1180.6" y="1443.2" type="line"/>
      <point x="1026.8" y="1443.2" type="line"/>
      <point x="607.4" y="671.2" type="line"/>
      <point x="663.6" y="671.2" type="line"/>
      <point x="213.8" y="1443.2" type="line"/>
      <point x="59.8" y="1443.2" type="line"/>
      <point x="607.0" y="507.6" type="line"/>
      <point x="560.0" y="664.2" type="line"/>
    </contour>
  </outline>
</glyph>
<glyph name="Z" format="1">
  <advance width="1220.2"/>
  <unicode hex="005A"/>
  <outline>
    <contour>
      <point x="148.4" y="0.0" type="line"/>
      <point x="1091.8" y="0.0" type="line"/>
      <point x="1100.6" y="120.6" type="line"/>
      <point x="263.8" y="120.6" type="line"/>
      <point x="287.6" y="65.6" type="line"/>
      <point x="1094.0" y="1332.8" type="line"/>
      <point x="1086.0" y="1443.2" type="line"/>
      <point x="185.2" y="1443.2" type="line"/>
      <point x="185.2" y="1323.8" type="line"/>
      <point x="981.0" y="1323.8" type="line"/>
      <point x="948.6" y="1368.2" type="line"/>
      <point x="148.4" y="116.2" type="line"/>
    </contour>
  </outline>
</glyph>
<glyph name="bracketleft" format="1">
  <advance width="663.2"/>
  <unicode hex="005B"/>
  <outline>
    <contour>
      <point x="188.8" y="-268.2" type="line"/>
      <point x="188.8" y="1460.4" type="line"/>
      <point x="621.2" y="1460.4" type="line"/>
      <point x="621.2" y="1352.2" type="line"/>
      <point x="320.2" y="1352.2" type="line"/>
      <point x="320.2" y="-161.4" type="line"/>
      <point x="621.2" y="-161.4" type="line"/>
      <point x="621.2" y="-268.2" type="line"/>
    </contour>
  </outline>
</glyph>
<glyph name="backslash" format="1">
  <advance width="935.8"/>
  <unicode hex="005C"/>
  <outline>
    <contour>
      <point x="684.4" y="-48.0" type="line"/>
      <point x="129.4" y="1439.8" type="line"/>
      <point x="244.2" y="1439.8" type="line"/>
      <point x="799.0" y="-48.0" type="line"/>
    </contour>
  </outline>
</glyph>
<glyph name="bracketright" format="1">
  <advance width="665.6"/>
  <unicode hex="005D"/>
  <outline>
    <contour>
      <point x="56.0" y="-268.2" type="line"/>
      <point x="56.0" y="-161.6" type="line"/>
      <point x="357.8" y="-161.6" type="line"/>
      <point x="357.8" y="1352.0" type="line"/>
      <point x="56.0" y="1352.0" type="line"/>
      <point x="56.0" y="1460.4" type="line"/>
      <point x="487.6" y="1460.4" type="line"/>
      <point x="487.6" y="-268.2" type="line"/>
    </contour>
  </outline>
</glyph>
<glyph name="asciicircum" format="1">
  <advance width="1278.6"/>
  <unicode hex="005E"/>
  <outline>
    <contour>
      <point x="165.6" y="588.0" type="line"/>
      <point x="590.4" y="1482.8" type="line"/>
      <point x="676.0" y="1482.8" type="line"/>
      <point x="1124.6" y="588.0" type="line"/>
      <point x="1010.2" y="588.0" type="line"/>
      <point x="635.0" y="1344.2" type="line"/>
      <point x="277.6" y="588.0" type="line"/>
    </contour>
  </outline>
</glyph>
<glyph name="underscore" format="1">
  <advance width="1064.0"/>
  <unicode hex="005F"/>
  <outline>
    <contour>
      <point x="88.6" y="-270.4" type="line"/>
      <point x="975.0" y="-270.4" type="line"/>
      <point x="975.0" y="-161.6" type="line"/>
      <point x="88.6" y="-161.6" type="line"/>
    </contour>
  </outline>
</glyph>
<glyph name="grave" format="1">
  <advance width="679.0"/>
  <unicode hex="0060"/>
  <outline>
    <contour>
      <point x="430.0" y="1233.4" type="line"/>
      <point x="511.8" y="1233.4" type="line"/>
      <point x="337.0" y="1606.8" type="line"/>
      <point x="167.8" y="1606.8" type="line"/>
    </contour>
  </outline>
</glyph>
<glyph name="a" format="1">
  <advance width="1132.8"/>
  <unicode hex="0061"/>
  <outline>
    <contour>
      <point x="449.4" y="-15.8" type="curve" smooth="yes"/>
      <point x="582.6" y="-15.8"/>
      <point x="746.0" y="25.2"/>
      <point x="864.8" y="200.8" type="curve"/>
      <point x="826.0" y="208.4" type="line"/>
      <point x="854.8" y="0.8" type="line"/>
      <point x="963.6" y="0.8" type="line"/>
      <point x="963.6" y="700.2" type="line" smooth="yes"/>
      <point x="963.6" y="981.8"/>
      <point x="793.8" y="1078.4"/>
      <point x="553.4" y="1078.4" type="curve" smooth="yes"/>
      <point x="431.4" y="1078.4"/>
      <point x="279.4" y="1041.6"/>
      <point x="181.8" y="991.4" type="curve"/>
      <point x="223.8" y="885.8" type="line"/>
      <point x="321.8" y="935.2"/>
      <point x="457.8" y="965.2"/>
      <point x="563.4" y="965.2" type="curve" smooth="yes"/>
      <point x="733.2" y="965.2"/>
      <point x="814.8" y="878.6"/>
      <point x="814.8" y="723.0" type="curve" smooth="yes"/>
      <point x="814.8" y="592.2" type="line"/>
      <point x="848.8" y="628.2" type="line"/>
      <point x="613.8" y="624.4" type="line" smooth="yes"/>
      <point x="269.4" y="620.0"/>
      <point x="119.2" y="506.0"/>
      <point x="119.2" y="279.8" type="curve" smooth="yes"/>
      <point x="119.2" y="86.8"/>
      <point x="258.0" y="-15.8"/>
    </contour>
    <contour>
      <point x="452.4" y="96.2" type="curve" smooth="yes"/>
      <point x="358.0" y="96.2"/>
      <point x="264.8" y="152.2"/>
      <point x="264.8" y="280.8" type="curve" smooth="yes"/>
      <point x="264.8" y="438.2"/>
      <point x="336.4" y="521.6"/>
      <point x="649.4" y="525.0" type="curve" smooth="yes"/>
      <point x="845.8" y="527.4" type="line"/>
      <point x="814.6" y="562.0" type="line"/>
      <point x="814.6" y="236.2" type="line"/>
      <point x="848.6" y="345.6" type="line"/>
      <point x="757.8" y="170.4"/>
      <point x="613.4" y="96.2"/>
    </contour>
  </outline>
</glyph>
<glyph name="b" format="1">
  <advance width="1246.6"/>
  <unicode hex="0062"/>
  <outline>
    <contour>
      <point x="671.8" y="-19.0" type="curve" smooth="yes"/>
      <point x="970.6" y="-19.0"/>
      <point x="1131.4" y="196.8"/>
      <point x="1131.4" y="525.0" type="curve" smooth="yes"/>
      <point x="1131.4" y="856.8"/>
      <point x="983.0" y="1077.8"/>
      <point x="679.8" y="1077.8" type="curve" smooth="yes"/>
      <point x="504.0" y="1077.8"/>
      <point x="360.6" y="968.0"/>
      <point x="296.4" y="823.6" type="curve"/>
      <point x="328.4" y="819.8" type="line"/>
      <point x="329.6" y="1069.8" type="line"/>
      <point x="329.6" y="1478.4" type="line"/>
      <point x="175.8" y="1467.2" type="line"/>
      <point x="175.8" y="0.0" type="line"/>
      <point x="297.4" y="0.0" type="line"/>
      <point x="317.8" y="287.2" type="line"/>
      <point x="270.6" y="281.0" type="line"/>
      <point x="315.0" y="158.4"/>
      <point x="445.4" y="-19.0"/>
    </contour>
    <contour>
      <point x="662.6" y="96.0" type="curve" smooth="yes"/>
      <point x="455.0" y="96.0"/>
      <point x="326.2" y="248.6"/>
      <point x="326.2" y="543.4" type="curve"/>
      <point x="325.8" y="791.0"/>
      <point x="430.2" y="963.0"/>
      <point x="670.8" y="963.0" type="curve" smooth="yes"/>
      <point x="897.8" y="963.0"/>
      <point x="980.0" y="777.8"/>
      <point x="980.0" y="526.0" type="curve" smooth="yes"/>
      <point x="980.0" y="264.6"/>
      <point x="886.4" y="96.0"/>
    </contour>
  </outline>
</glyph>
<glyph name="c" format="1">
  <advance width="991.4"/>
  <unicode hex="0063"/>
  <outline>
    <contour>
      <point x="614.2" y="-19.0" type="curve" smooth="yes"/>
      <point x="748.2" y="-19.0"/>
      <point x="853.2" y="21.4"/>
      <point x="892.0" y="52.6" type="curve"/>
      <point x="861.0" y="153.4" type="line"/>
      <point x="810.0" y="124.2"/>
      <point x="721.6" y="95.8"/>
      <point x="633.2" y="96.8" type="curve" smooth="yes"/>
      <point x="386.0" y="98.2"/>
      <point x="266.6" y="288.6"/>
      <point x="266.6" y="521.4" type="curve" smooth="yes"/>
      <point x="266.6" y="787.2"/>
      <point x="414.2" y="962.0"/>
      <point x="630.8" y="962.0" type="curve" smooth="yes"/>
      <point x="760.8" y="962.0"/>
      <point x="843.0" y="908.6"/>
      <point x="849.4" y="904.8" type="curve"/>
      <point x="894.0" y="1007.8" type="line"/>
      <point x="876.8" y="1019.6"/>
      <point x="778.2" y="1077.8"/>
      <point x="614.8" y="1077.8" type="curve" smooth="yes"/>
      <point x="327.0" y="1077.8"/>
      <point x="116.8" y="851.0"/>
      <point x="116.8" y="522.0" type="curve" smooth="yes"/>
      <point x="116.8" y="210.2"/>
      <point x="311.4" y="-19.0"/>
    </contour>
  </outline>
</glyph>
<glyph name="d" format="1">
  <advance width="1240.6"/>
  <unicode hex="0064"/>
  <outline>
    <contour>
      <point x="574.8" y="-18.8" type="curve" smooth="yes"/>
      <point x="804.6" y="-18.8"/>
      <point x="910.2" y="132.8"/>
      <point x="960.6" y="283.6" type="curve"/>
      <point x="921.4" y="287.6" type="line"/>
      <point x="941.2" y="0.0" type="line"/>
      <point x="1065.8" y="0.0" type="line"/>
      <point x="1065.8" y="1478.4" type="line"/>
      <point x="914.4" y="1467.2" type="line"/>
      <point x="914.4" y="1134.6" type="line"/>
      <point x="926.2" y="791.2" type="line"/>
      <point x="959.0" y="799.6" type="line"/>
      <point x="895.0" y="942.8"/>
      <point x="807.6" y="1077.8"/>
      <point x="571.6" y="1077.8" type="curve" smooth="yes"/>
      <point x="287.0" y="1077.8"/>
      <point x="116.8" y="855.8"/>
      <point x="116.8" y="535.8" type="curve" smooth="yes"/>
      <point x="116.8" y="200.4"/>
      <point x="274.4" y="-18.8"/>
    </contour>
    <contour>
      <point x="582.6" y="96.0" type="curve" smooth="yes"/>
      <point x="355.6" y="96.0"/>
      <point x="268.2" y="281.0"/>
      <point x="268.2" y="533.2" type="curve" smooth="yes"/>
      <point x="268.2" y="796.0"/>
      <point x="370.0" y="962.6"/>
      <point x="591.4" y="962.6" type="curve" smooth="yes"/>
      <point x="797.6" y="962.6"/>
      <point x="919.2" y="804.2"/>
      <point x="919.2" y="517.2" type="curve"/>
      <point x="918.8" y="269.6"/>
      <point x="822.4" y="96.0"/>
    </contour>
  </outline>
</glyph>
<glyph name="e" format="1">
  <advance width="1146.8"/>
  <unicode hex="0065"/>
  <outline>
    <contour>
      <point x="625.2" y="-19.2" type="curve" smooth="yes"/>
      <point x="781.2" y="-19.2"/>
      <point x="902.4" y="16.2"/>
      <point x="1003.4" y="73.8" type="curve"/>
      <point x="967.2" y="174.6" type="line"/>
      <point x="859.2" y="121.8"/>
      <point x="760.4" y="96.4"/>
      <point x="643.0" y="96.4" type="curve" smooth="yes"/>
      <point x="433.0" y="96.4"/>
      <point x="263.8" y="223.6"/>
      <point x="264.0" y="540.8" type="curve"/>
      <point x="221.0" y="507.4" type="line"/>
      <point x="1022.0" y="507.4" type="line"/>
      <point x="1022.0" y="507.4"/>
      <point x="1028.4" y="559.4"/>
      <point x="1028.4" y="587.4" type="curve" smooth="yes"/>
      <point x="1028.4" y="883.4"/>
      <point x="876.6" y="1077.6"/>
      <point x="612.4" y="1077.6" type="curve" smooth="yes"/>
      <point x="343.8" y="1077.4"/>
      <point x="116.8" y="869.4"/>
      <point x="116.8" y="522.6" type="curve" smooth="yes"/>
      <point x="116.8" y="184.8"/>
      <point x="328.6" y="-19.2"/>
    </contour>
    <contour>
      <point x="267.6" y="570.6" type="line"/>
      <point x="277.2" y="806.8"/>
      <point x="420.0" y="964.8"/>
      <point x="617.6" y="964.8" type="curve" smooth="yes"/>
      <point x="808.6" y="964.8"/>
      <point x="895.6" y="825.8"/>
      <point x="896.4" y="563.4" type="curve"/>
      <point x="945.2" y="606.2" type="line"/>
      <point x="221.4" y="606.2" type="line"/>
    </contour>
  </outline>
</glyph>
<glyph name="f" format="1">
  <advance width="751.6"/>
  <unicode hex="0066"/>
  <outline>
    <contour>
      <point x="274.8" y="0.0" type="line"/>
      <point x="426.2" y="0.0" type="line"/>
      <point x="426.2" y="999.0" type="line"/>
      <point x="383.4" y="962.6" type="line"/>
      <point x="677.6" y="962.6" type="line"/>
      <point x="677.6" y="1057.4" type="line"/>
      <point x="382.8" y="1057.4" type="line"/>
      <point x="426.2" y="1026.6" type="line"/>
      <point x="426.2" y="1136.0" type="line" smooth="yes"/>
      <point x="426.2" y="1345.8"/>
      <point x="490.0" y="1370.6"/>
      <point x="592.8" y="1370.6" type="curve" smooth="yes"/>
      <point x="638.8" y="1370.6"/>
      <point x="702.6" y="1361.2"/>
      <point x="709.0" y="1360.2" type="curve"/>
      <point x="719.4" y="1464.6" type="line"/>
      <point x="705.4" y="1467.4"/>
      <point x="640.4" y="1480.6"/>
      <point x="564.8" y="1480.6" type="curve" smooth="yes"/>
      <point x="382.2" y="1480.6"/>
      <point x="274.8" y="1390.6"/>
      <point x="274.8" y="1127.6" type="curve" smooth="yes"/>
      <point x="274.8" y="1026.2" type="line"/>
      <point x="317.8" y="1060.6" type="line"/>
      <point x="82.0" y="1040.0" type="line"/>
      <point x="77.0" y="962.6" type="line"/>
      <point x="308.8" y="962.6" type="line"/>
      <point x="274.8" y="1001.4" type="line"/>
    </contour>
  </outline>
</glyph>
<glyph name="g" format="1">
  <advance width="1257.4"/>
  <unicode hex="0067"/>
  <outline>
    <contour>
      <point x="599.4" y="119.6" type="curve" smooth="yes"/>
      <point x="348.2" y="119.6"/>
      <point x="262.2" y="349.0"/>
      <point x="262.2" y="529.6" type="curve" smooth="yes"/>
      <point x="262.2" y="729.6"/>
      <point x="350.4" y="962.6"/>
      <point x="603.6" y="962.6" type="curve" smooth="yes"/>
      <point x="854.2" y="962.6"/>
      <point x="943.0" y="794.0"/>
      <point x="943.0" y="581.4" type="curve" smooth="yes"/>
      <point x="943.0" y="483.4" type="line"/>
      <point x="942.6" y="296.6"/>
      <point x="846.2" y="119.6"/>
    </contour>
    <contour>
      <point x="519.6" y="-452.6" type="curve" smooth="yes"/>
      <point x="943.8" y="-452.6"/>
      <point x="1092.0" y="-209.6"/>
      <point x="1092.0" y="103.8" type="curve" smooth="yes"/>
      <point x="1092.0" y="1057.4" type="line"/>
      <point x="953.2" y="1057.4" type="line"/>
      <point x="938.2" y="830.0" type="line"/>
      <point x="972.0" y="832.0" type="line"/>
      <point x="920.0" y="978.6"/>
      <point x="795.0" y="1077.8"/>
      <point x="600.0" y="1077.8" type="curve" smooth="yes"/>
      <point x="253.0" y="1077.8"/>
      <point x="110.8" y="805.8"/>
      <point x="110.8" y="521.0" type="curve" smooth="yes"/>
      <point x="110.8" y="278.4"/>
      <point x="254.8" y="4.2"/>
      <point x="586.2" y="4.2" type="curve" smooth="yes"/>
      <point x="806.4" y="4.2"/>
      <point x="942.0" y="134.0"/>
      <point x="981.2" y="284.8" type="curve"/>
      <point x="942.4" y="285.2" type="line"/>
      <point x="942.4" y="82.2" type="line" smooth="yes"/>
      <point x="942.4" y="-190.6"/>
      <point x="829.6" y="-335.0"/>
      <point x="508.8" y="-335.0" type="curve" smooth="yes"/>
      <point x="443.8" y="-335.0"/>
      <point x="318.4" y="-325.4"/>
      <point x="284.8" y="-323.6" type="curve"/>
      <point x="284.8" y="-441.2" type="line"/>
      <point x="332.0" y="-442.2"/>
      <point x="430.2" y="-452.6"/>
    </contour>
  </outline>
</glyph>
<glyph name="h" format="1">
  <advance width="1198.4"/>
  <unicode hex="0068"/>
  <outline>
    <contour>
      <point x="175.8" y="0.0" type="line"/>
      <point x="326.6" y="0.0" type="line"/>
      <point x="326.6" y="588.6" type="line" smooth="yes"/>
      <point x="326.6" y="767.4"/>
      <point x="393.0" y="962.6"/>
      <point x="655.0" y="962.6" type="curve" smooth="yes"/>
      <point x="823.2" y="962.6"/>
      <point x="883.8" y="857.0"/>
      <point x="883.8" y="648.0" type="curve" smooth="yes"/>
      <point x="883.8" y="0.0" type="line"/>
      <point x="1034.4" y="0.0" type="line"/>
      <point x="1034.4" y="652.0" type="line" smooth="yes"/>
      <point x="1034.4" y="920.6"/>
      <point x="913.2" y="1077.6"/>
      <point x="680.2" y="1077.6" type="curve" smooth="yes"/>
      <point x="493.2" y="1077.6"/>
      <point x="346.8" y="989.8"/>
      <point x="281.2" y="824.8" type="curve"/>
      <point x="319.6" y="811.8" type="line"/>
      <point x="327.2" y="1112.0" type="line"/>
      <point x="327.2" y="1478.2" type="line"/>
      <point x="175.8" y="1467.0" type="line"/>
    </contour>
  </outline>
</glyph>
<glyph name="i" format="1">
  <advance width="500.8"/>
  <unicode hex="0069"/>
  <outline>
    <contour>
      <point x="178.0" y="0.0" type="line"/>
      <point x="329.4" y="0.0" type="line"/>
      <point x="329.4" y="1057.4" type="line"/>
      <point x="178.0" y="1057.4" type="line"/>
    </contour>
    <contour>
      <point x="178.0" y="1278.2" type="line"/>
      <point x="329.4" y="1278.2" type="line"/>
      <point x="329.4" y="1443.2" type="line"/>
      <point x="178.0" y="1443.2" type="line"/>
    </contour>
  </outline>
</glyph>
<glyph name="j" format="1">
  <advance width="533.8"/>
  <unicode hex="006A"/>
  <outline>
    <contour>
      <point x="21.0" y="-338.0" type="line"/>
      <point x="78.4" y="-338.0" type="line" smooth="yes"/>
      <point x="282.8" y="-338.0"/>
      <point x="367.8" y="-246.4"/>
      <point x="367.8" y="0.4" type="curve" smooth="yes"/>
      <point x="367.8" y="1057.6" type="line"/>
      <point x="215.4" y="1057.6" type="line"/>
      <point x="215.4" y="40.0" type="line" smooth="yes"/>
      <point x="215.4" y="-149.6"/>
      <point x="211.8" y="-212.8"/>
      <point x="59.8" y="-212.8" type="curve" smooth="yes"/>
      <point x="14.8" y="-212.8" type="line"/>
    </contour>
    <contour>
      <point x="215.4" y="1278.2" type="line"/>
      <point x="367.8" y="1278.2" type="line"/>
      <point x="367.8" y="1443.2" type="line"/>
      <point x="215.4" y="1443.2" type="line"/>
    </contour>
  </outline>
</glyph>
<glyph name="k" format="1">
  <advance width="1095.4"/>
  <unicode hex="006B"/>
  <outline>
    <contour>
      <point x="175.8" y="0.0" type="line"/>
      <point x="327.2" y="0.0" type="line"/>
      <point x="327.2" y="425.2" type="line"/>
      <point x="286.6" y="342.6" type="line"/>
      <point x="486.2" y="524.2" type="line"/>
      <point x="422.0" y="524.2" type="line"/>
      <point x="886.2" y="0.0" type="line"/>
      <point x="1064.6" y="0.0" type="line"/>
      <point x="527.2" y="604.4" type="line"/>
      <point x="527.2" y="535.6" type="line"/>
      <point x="1054.0" y="1057.4" type="line"/>
      <point x="872.6" y="1057.4" type="line"/>
      <point x="284.8" y="483.0" type="line"/>
      <point x="320.2" y="483.0" type="line"/>
      <point x="327.2" y="727.2" type="line"/>
      <point x="327.2" y="1478.4" type="line"/>
      <point x="175.8" y="1467.2" type="line"/>
    </contour>
  </outline>
</glyph>
<glyph name="l" format="1">
  <advance width="644.2"/>
  <unicode hex="006C"/>
  <outline>
    <contour>
      <point x="472.0" y="-11.6" type="curve" smooth="yes"/>
      <point x="545.8" y="-11.6"/>
      <point x="607.4" y="1.2"/>
      <point x="624.2" y="3.6" type="curve"/>
      <point x="624.2" y="106.4" type="line"/>
      <point x="616.2" y="105.6"/>
      <point x="558.6" y="98.4"/>
      <point x="499.0" y="98.4" type="curve" smooth="yes"/>
      <point x="373.4" y="98.4"/>
      <point x="327.4" y="142.6"/>
      <point x="327.4" y="275.4" type="curve" smooth="yes"/>
      <point x="327.4" y="1478.4" type="line"/>
      <point x="176.0" y="1467.2" type="line"/>
      <point x="176.0" y="287.6" type="line" smooth="yes"/>
      <point x="176.0" y="46.2"/>
      <point x="309.0" y="-11.6"/>
    </contour>
  </outline>
</glyph>
<glyph name="m" format="1">
  <advance width="1774.0"/>
  <unicode hex="006D"/>
  <outline>
    <contour>
      <point x="175.8" y="0.0" type="line"/>
      <point x="327.2" y="0.0" type="line"/>
      <point x="327.2" y="663.0" type="line" smooth="yes"/>
      <point x="356.8" y="832.2"/>
      <point x="456.2" y="962.8"/>
      <point x="622.8" y="962.8" type="curve" smooth="yes"/>
      <point x="779.4" y="962.8"/>
      <point x="823.4" y="850.4"/>
      <point x="823.4" y="590.4" type="curve" smooth="yes"/>
      <point x="823.4" y="0.0" type="line"/>
      <point x="974.8" y="0.0" type="line"/>
      <point x="974.8" y="531.6" type="line"/>
      <point x="976.0" y="619.2"/>
      <point x="976.2" y="673.8"/>
      <point x="983.0" y="700.8" type="curve" smooth="yes"/>
      <point x="1023.0" y="877.8"/>
      <point x="1143.6" y="962.8"/>
      <point x="1269.0" y="962.8" type="curve" smooth="yes"/>
      <point x="1469.2" y="962.8"/>
      <point x="1458.8" y="753.6"/>
      <point x="1458.8" y="601.6" type="curve" smooth="yes"/>
      <point x="1458.8" y="0.0" type="line"/>
      <point x="1610.2" y="0.0" type="line"/>
      <point x="1610.2" y="682.8" type="line" smooth="yes"/>
      <point x="1610.2" y="941.2"/>
      <point x="1506.8" y="1077.8"/>
      <point x="1290.4" y="1077.8" type="curve" smooth="yes"/>
      <point x="1100.8" y="1077.8"/>
      <point x="979.6" y="965.2"/>
      <point x="912.2" y="805.8" type="curve"/>
      <point x="950.4" y="805.8" type="line"/>
      <point x="911.8" y="945.8"/>
      <point x="844.6" y="1077.8"/>
      <point x="642.4" y="1077.8" type="curve" smooth="yes"/>
      <point x="471.2" y="1077.8"/>
      <point x="351.6" y="974.8"/>
      <point x="279.4" y="830.8" type="curve"/>
      <point x="324.2" y="820.6" type="line"/>
      <point x="298.0" y="1057.4" type="line"/>
      <point x="175.8" y="1057.4" type="line"/>
    </contour>
  </outline>
</glyph>
<glyph name="n" format="1">
  <advance width="1200.6"/>
  <unicode hex="006E"/>
  <outline>
    <contour>
      <point x="175.8" y="0.0" type="line"/>
      <point x="327.2" y="0.0" type="line"/>
      <point x="327.2" y="600.2" type="line" smooth="yes"/>
      <point x="327.2" y="787.4"/>
      <point x="397.6" y="962.8"/>
      <point x="661.0" y="962.8" type="curve" smooth="yes"/>
      <point x="836.2" y="962.8"/>
      <point x="885.8" y="849.4"/>
      <point x="885.2" y="667.8" type="curve"/>
      <point x="885.2" y="0.0" type="line"/>
      <point x="1036.6" y="0.0" type="line"/>
      <point x="1036.6" y="643.2" type="line" smooth="yes"/>
      <point x="1036.6" y="935.2"/>
      <point x="927.2" y="1077.8"/>
      <point x="684.2" y="1077.8" type="curve" smooth="yes"/>
      <point x="479.8" y="1077.8"/>
      <point x="357.8" y="984.6"/>
      <point x="293.0" y="849.4" type="curve"/>
      <point x="332.8" y="849.4" type="line"/>
      <point x="309.2" y="1057.4" type="line"/>
      <point x="175.8" y="1057.4" type="line"/>
    </contour>
  </outline>
</glyph>
<glyph name="o" format="1">
  <advance width="1222.8"/>
  <unicode hex="006F"/>
  <outline>
    <contour>
      <point x="611.4" y="95.8" type="curve" smooth="yes"/>
      <point x="382.0" y="95.8"/>
      <point x="266.6" y="282.8"/>
      <point x="266.6" y="525.2" type="curve" smooth="yes"/>
      <point x="266.6" y="775.0"/>
      <point x="382.6" y="962.8"/>
      <point x="611.4" y="962.8" type="curve" smooth="yes"/>
      <point x="846.4" y="962.8"/>
      <point x="956.2" y="774.2"/>
      <point x="956.2" y="524.4" type="curve" smooth="yes"/>
      <point x="956.2" y="282.4"/>
      <point x="848.6" y="95.8"/>
    </contour>
    <contour>
      <point x="611.4" y="-19.0" type="curve" smooth="yes"/>
      <point x="905.6" y="-19.0"/>
      <point x="1106.0" y="212.6"/>
      <point x="1106.0" y="526.8" type="curve" smooth="yes"/>
      <point x="1106.0" y="851.4"/>
      <point x="925.0" y="1077.8"/>
      <point x="611.4" y="1077.8" type="curve" smooth="yes"/>
      <point x="302.8" y="1077.8"/>
      <point x="116.8" y="849.2"/>
      <point x="116.8" y="526.8" type="curve" smooth="yes"/>
      <point x="116.8" y="211.2"/>
      <point x="305.4" y="-19.0"/>
    </contour>
  </outline>
</glyph>
<glyph name="p" format="1">
  <advance width="1241.2"/>
  <unicode hex="0070"/>
  <outline>
    <contour>
      <point x="176.2" y="-469.6" type="line"/>
      <point x="327.4" y="-460.6" type="line"/>
      <point x="327.4" y="-72.8" type="line"/>
      <point x="315.8" y="316.0" type="line"/>
      <point x="276.8" y="285.4" type="line"/>
      <point x="327.8" y="139.4"/>
      <point x="455.8" y="-19.0"/>
      <point x="677.4" y="-19.0" type="curve" smooth="yes"/>
      <point x="961.6" y="-19.0"/>
      <point x="1124.4" y="204.4"/>
      <point x="1124.4" y="523.8" type="curve" smooth="yes"/>
      <point x="1124.4" y="854.2"/>
      <point x="972.2" y="1077.8"/>
      <point x="674.6" y="1077.8" type="curve" smooth="yes"/>
      <point x="487.8" y="1077.8"/>
      <point x="352.0" y="964.8"/>
      <point x="289.4" y="800.2" type="curve"/>
      <point x="321.0" y="796.2" type="line"/>
      <point x="300.2" y="1057.4" type="line"/>
      <point x="176.2" y="1057.4" type="line"/>
    </contour>
    <contour>
      <point x="655.2" y="96.0" type="curve" smooth="yes"/>
      <point x="446.6" y="96.0"/>
      <point x="323.8" y="265.2"/>
      <point x="323.8" y="543.2" type="curve"/>
      <point x="324.2" y="788.0"/>
      <point x="425.0" y="962.8"/>
      <point x="664.0" y="962.8" type="curve" smooth="yes"/>
      <point x="889.0" y="962.8"/>
      <point x="973.0" y="776.8"/>
      <point x="973.0" y="525.8" type="curve" smooth="yes"/>
      <point x="973.0" y="266.8"/>
      <point x="876.8" y="96.0"/>
    </contour>
  </outline>
</glyph>
<glyph name="q" format="1">
  <advance width="1276.4"/>
  <unicode hex="0071"/>
  <outline>
    <contour>
      <point x="952.0" y="-469.6" type="line"/>
      <point x="1101.8" y="-461.8" type="line"/>
      <point x="1101.8" y="1057.4" type="line"/>
      <point x="963.4" y="1057.4" type="line"/>
      <point x="940.6" y="814.2" type="line"/>
      <point x="971.8" y="820.2" type="line"/>
      <point x="910.6" y="968.0"/>
      <point x="791.8" y="1077.8"/>
      <point x="588.0" y="1077.8" type="curve" smooth="yes"/>
      <point x="287.6" y="1077.8"/>
      <point x="116.8" y="847.6"/>
      <point x="116.8" y="519.8" type="curve" smooth="yes"/>
      <point x="116.8" y="207.2"/>
      <point x="306.6" y="-19.0"/>
      <point x="584.2" y="-19.0" type="curve" smooth="yes"/>
      <point x="831.6" y="-19.0"/>
      <point x="945.0" y="130.2"/>
      <point x="995.8" y="283.6" type="curve"/>
      <point x="959.0" y="302.2" type="line"/>
      <point x="952.0" y="-83.8" type="line"/>
    </contour>
    <contour>
      <point x="606.6" y="95.6" type="curve" smooth="yes"/>
      <point x="377.8" y="95.6"/>
      <point x="266.6" y="271.6"/>
      <point x="266.6" y="529.8" type="curve" smooth="yes"/>
      <point x="266.6" y="778.8"/>
      <point x="371.4" y="962.6"/>
      <point x="607.6" y="962.6" type="curve" smooth="yes"/>
      <point x="854.0" y="962.6"/>
      <point x="947.0" y="795.2"/>
      <point x="947.0" y="557.6" type="curve"/>
      <point x="948.8" y="272.0"/>
      <point x="868.6" y="95.6"/>
    </contour>
  </outline>
</glyph>
<glyph name="r" format="1">
  <advance width="800.2"/>
  <unicode hex="0072"/>
  <outline>
    <contour>
      <point x="176.0" y="0.0" type="line"/>
      <point x="327.4" y="0.0" type="line"/>
      <point x="327.4" y="602.2" type="line" smooth="yes"/>
      <point x="327.4" y="789.4"/>
      <point x="465.0" y="948.6"/>
      <point x="650.8" y="948.6" type="curve" smooth="yes"/>
      <point x="672.2" y="948.6"/>
      <point x="699.0" y="945.8"/>
      <point x="722.8" y="940.6" type="curve"/>
      <point x="730.0" y="1063.6" type="line"/>
      <point x="707.6" y="1067.2"/>
      <point x="679.2" y="1068.8"/>
      <point x="648.8" y="1068.8" type="curve" smooth="yes"/>
      <point x="513.6" y="1068.8"/>
      <point x="361.6" y="992.2"/>
      <point x="282.4" y="769.0" type="curve"/>
      <point x="317.0" y="763.6" type="line"/>
      <point x="295.0" y="1057.4" type="line"/>
      <point x="176.0" y="1057.4" type="line"/>
    </contour>
  </outline>
</glyph>
<glyph name="s" format="1">
  <advance width="955.0"/>
  <unicode hex="0073"/>
  <outline>
    <contour>
      <point x="480.8" y="-18.8" type="curve" smooth="yes"/>
      <point x="710.0" y="-18.8"/>
      <point x="847.6" y="81.6"/>
      <point x="847.6" y="273.0" type="curve" smooth="yes"/>
      <point x="847.6" y="430.6"/>
      <point x="787.0" y="519.8"/>
      <point x="549.6" y="591.2" type="curve" smooth="yes"/>
      <point x="445.6" y="622.4" type="line" smooth="yes"/>
      <point x="304.0" y="665.8"/>
      <point x="268.6" y="708.2"/>
      <point x="268.6" y="806.2" type="curve" smooth="yes"/>
      <point x="268.6" y="896.2"/>
      <point x="352.2" y="965.0"/>
      <point x="513.6" y="965.0" type="curve" smooth="yes"/>
      <point x="625.8" y="965.0"/>
      <point x="696.4" y="938.4"/>
      <point x="758.2" y="910.8" type="curve"/>
      <point x="796.0" y="1019.4" type="line"/>
      <point x="704.8" y="1060.0"/>
      <point x="624.0" y="1077.8"/>
      <point x="497.6" y="1077.8" type="curve" smooth="yes"/>
      <point x="268.2" y="1077.8"/>
      <point x="135.4" y="954.6"/>
      <point x="135.4" y="791.0" type="curve"/>
      <point x="135.6" y="667.4"/>
      <point x="192.8" y="571.8"/>
      <point x="390.2" y="513.4" type="curve" smooth="yes"/>
      <point x="498.0" y="481.6" type="line" smooth="yes"/>
      <point x="683.6" y="426.0"/>
      <point x="717.8" y="373.8"/>
      <point x="716.6" y="267.4" type="curve" smooth="yes"/>
      <point x="715.6" y="154.0"/>
      <point x="644.6" y="93.4"/>
      <point x="485.2" y="93.4" type="curve" smooth="yes"/>
      <point x="344.2" y="93.4"/>
      <point x="242.4" y="132.4"/>
      <point x="190.0" y="153.0" type="curve"/>
      <point x="151.6" y="48.2" type="line"/>
      <point x="189.4" y="28.8"/>
      <point x="325.4" y="-18.8"/>
    </contour>
  </outline>
</glyph>
<glyph name="t" format="1">
  <advance width="804.0"/>
  <unicode hex="0074"/>
  <outline>
    <contour>
      <point x="531.6" y="-11.6" type="curve" smooth="yes"/>
      <point x="641.4" y="-11.6"/>
      <point x="709.0" y="7.8"/>
      <point x="709.0" y="7.8" type="curve"/>
      <point x="709.0" y="106.6" type="line"/>
      <point x="709.0" y="106.6"/>
      <point x="626.0" y="95.8"/>
      <point x="558.8" y="95.8" type="curve" smooth="yes"/>
      <point x="454.0" y="95.8"/>
      <point x="385.6" y="135.6"/>
      <point x="385.6" y="306.0" type="curve" smooth="yes"/>
      <point x="385.6" y="998.8" type="line"/>
      <point x="351.6" y="965.4" type="line"/>
      <point x="702.6" y="965.4" type="line"/>
      <point x="702.6" y="1057.4" type="line"/>
      <point x="351.4" y="1057.4" type="line"/>
      <point x="385.6" y="1021.2" type="line"/>
      <point x="385.6" y="1327.8" type="line"/>
      <point x="283.4" y="1323.0" type="line"/>
      <point x="235.6" y="1032.0" type="line"/>
      <point x="274.4" y="1060.4" type="line"/>
      <point x="85.0" y="1046.8" type="line"/>
      <point x="82.0" y="965.6" type="line"/>
      <point x="268.2" y="965.6" type="line"/>
      <point x="234.2" y="999.8" type="line"/>
      <point x="234.2" y="304.6" type="line" smooth="yes"/>
      <point x="234.2" y="83.2"/>
      <point x="347.6" y="-11.6"/>
    </contour>
  </outline>
</glyph>
<glyph name="u" format="1">
  <advance width="1199.6"/>
  <unicode hex="0075"/>
  <outline>
    <contour>
      <point x="1025.6" y="1057.4" type="line"/>
      <point x="874.4" y="1057.4" type="line"/>
      <point x="874.4" y="451.8" type="line" smooth="yes"/>
      <point x="874.4" y="264.6"/>
      <point x="803.6" y="94.6"/>
      <point x="546.6" y="94.6" type="curve" smooth="yes"/>
      <point x="368.8" y="94.6"/>
      <point x="315.6" y="208.0"/>
      <point x="316.4" y="389.6" type="curve" smooth="yes"/>
      <point x="316.4" y="1057.4" type="line"/>
      <point x="165.0" y="1057.4" type="line"/>
      <point x="165.0" y="414.2" type="line" smooth="yes"/>
      <point x="165.0" y="120.0"/>
      <point x="276.6" y="-20.4"/>
      <point x="519.6" y="-20.4" type="curve" smooth="yes"/>
      <point x="724.0" y="-20.4"/>
      <point x="847.0" y="55.2"/>
      <point x="917.8" y="233.6" type="curve"/>
      <point x="877.2" y="233.6" type="line"/>
      <point x="901.6" y="0.0" type="line"/>
      <point x="1025.6" y="0.0" type="line"/>
    </contour>
  </outline>
</glyph>
<glyph name="v" format="1">
  <advance width="1071.4"/>
  <unicode hex="0076"/>
  <outline>
    <contour>
      <point x="461.4" y="0.0" type="line"/>
      <point x="616.2" y="0.0" type="line"/>
      <point x="1017.4" y="1057.4" type="line"/>
      <point x="864.4" y="1057.4" type="line"/>
      <point x="646.6" y="449.4" type="line"/>
      <point x="518.8" y="86.6" type="line"/>
      <point x="560.0" y="86.6" type="line"/>
      <point x="430.0" y="446.4" type="line"/>
      <point x="207.8" y="1057.4" type="line"/>
      <point x="54.0" y="1057.4" type="line"/>
    </contour>
  </outline>
</glyph>
<glyph name="w" format="1">
  <advance width="1557.6"/>
  <unicode hex="0077"/>
  <outline>
    <contour>
      <point x="352.4" y="0.0" type="line"/>
      <point x="497.2" y="0.0" type="line"/>
      <point x="796.8" y="985.6" type="line"/>
      <point x="765.8" y="985.6" type="line"/>
      <point x="1088.0" y="0.0" type="line"/>
      <point x="1218.8" y="0.0" type="line"/>
      <point x="1500.0" y="1057.4" type="line"/>
      <point x="1362.8" y="1057.4" type="line"/>
      <point x="1134.4" y="101.4" type="line"/>
      <point x="1170.4" y="101.4" type="line"/>
      <point x="862.6" y="1057.4" type="line"/>
      <point x="698.2" y="1057.4" type="line"/>
      <point x="409.2" y="101.4" type="line"/>
      <point x="443.4" y="101.4" type="line"/>
      <point x="198.8" y="1057.4" type="line"/>
      <point x="57.6" y="1057.4" type="line"/>
    </contour>
  </outline>
</glyph>
<glyph name="x" format="1">
  <advance width="1058.0"/>
  <unicode hex="0078"/>
  <outline>
    <contour>
      <point x="43.0" y="0.0" type="line"/>
      <point x="211.0" y="0.0" type="line"/>
      <point x="550.2" y="455.0" type="line"/>
      <point x="606.2" y="498.2" type="line"/>
      <point x="1011.2" y="1057.4" type="line"/>
      <point x="843.2" y="1057.4" type="line"/>
      <point x="519.8" y="601.4" type="line"/>
      <point x="466.8" y="565.6" type="line"/>
    </contour>
    <contour>
      <point x="845.8" y="0.0" type="line"/>
      <point x="1013.4" y="0.0" type="line"/>
      <point x="239.4" y="1057.4" type="line"/>
      <point x="70.8" y="1057.4" type="line"/>
    </contour>
  </outline>
</glyph>
<glyph name="y" format="1">
  <advance width="1085.4"/>
  <unicode hex="0079"/>
  <outline>
    <contour>
      <point x="475.6" y="-399.0" type="line"/>
      <point x="1036.2" y="1057.4" type="line"/>
      <point x="884.2" y="1057.4" type="line"/>
      <point x="551.8" y="145.6" type="line"/>
      <point x="590.4" y="145.6" type="line"/>
      <point x="230.2" y="1057.4" type="line"/>
      <point x="76.2" y="1057.4" type="line"/>
      <point x="525.0" y="-35.2" type="line"/>
      <point x="525.0" y="85.2" type="line"/>
      <point x="347.0" y="-366.8" type="line"/>
    </contour>
  </outline>
</glyph>
<glyph name="z" format="1">
  <advance width="929.4"/>
  <unicode hex="007A"/>
  <outline>
    <contour>
      <point x="118.4" y="0.0" type="line"/>
      <point x="826.6" y="0.0" type="line"/>
      <point x="826.6" y="106.8" type="line"/>
      <point x="214.4" y="106.8" type="line"/>
      <point x="237.4" y="48.6" type="line"/>
      <point x="818.4" y="954.0" type="line"/>
      <point x="818.4" y="1057.4" type="line"/>
      <point x="139.8" y="1057.4" type="line"/>
      <point x="139.8" y="952.4" type="line"/>
      <point x="724.8" y="952.4" type="line"/>
      <point x="701.8" y="1005.6" type="line"/>
      <point x="118.4" y="98.8" type="line"/>
    </contour>
  </outline>
</glyph>
<glyph name="braceleft" format="1">
  <advance width="781.4"/>
  <unicode hex="007B"/>
  <outline>
    <contour>
      <point x="632.4" y="-276.2" type="line"/>
      <point x="403.2" y="-276.2"/>
      <point x="320.8" y="-150.2"/>
      <point x="320.8" y="68.0" type="curve" smooth="yes"/>
      <point x="320.8" y="243.8" type="line" smooth="yes"/>
      <point x="320.8" y="418.8"/>
      <point x="302.8" y="549.0"/>
      <point x="110.2" y="551.4" type="curve"/>
      <point x="110.2" y="663.4" type="line"/>
      <point x="299.4" y="663.6"/>
      <point x="320.8" y="797.2"/>
      <point x="320.8" y="969.4" type="curve" smooth="yes"/>
      <point x="320.8" y="1192.8" type="line" smooth="yes"/>
      <point x="320.8" y="1384.0"/>
      <point x="427.2" y="1497.6"/>
      <point x="632.4" y="1498.4" type="curve"/>
      <point x="632.4" y="1389.2" type="line"/>
      <point x="489.2" y="1387.2"/>
      <point x="440.2" y="1325.6"/>
      <point x="440.2" y="1147.4" type="curve" smooth="yes"/>
      <point x="440.2" y="889.6" type="line"/>
      <point x="439.8" y="736.4"/>
      <point x="394.8" y="654.2"/>
      <point x="261.2" y="603.2" type="curve"/>
      <point x="394.6" y="565.4"/>
      <point x="440.2" y="488.8"/>
      <point x="440.2" y="329.8" type="curve" smooth="yes"/>
      <point x="440.2" y="72.4" type="line" smooth="yes"/>
      <point x="440.2" y="-99.4"/>
      <point x="486.6" y="-168.6"/>
      <point x="632.4" y="-170.6" type="curve"/>
    </contour>
  </outline>
</glyph>
<glyph name="bar" format="1">
  <advance width="299.4"/>
  <unicode hex="007C"/>
  <outline>
    <contour>
      <point x="95.2" y="-380.2" type="line"/>
      <point x="95.2" y="1553.0" type="line"/>
      <point x="206.2" y="1553.0" type="line"/>
      <point x="206.2" y="-380.2" type="line"/>
    </contour>
  </outline>
</glyph>
<glyph name="braceright" format="1">
  <advance width="781.4"/>
  <unicode hex="007D"/>
  <outline>
    <contour>
      <point x="116.8" y="-276.2" type="curve"/>
      <point x="116.8" y="-168.2" type="line"/>
      <point x="260.0" y="-166.2"/>
      <point x="308.6" y="-105.2"/>
      <point x="308.6" y="73.2" type="curve" smooth="yes"/>
      <point x="308.6" y="331.4" type="line" smooth="yes"/>
      <point x="308.6" y="453.0"/>
      <point x="346.4" y="552.6"/>
      <point x="488.0" y="616.8" type="curve"/>
      <point x="353.4" y="656.6"/>
      <point x="309.0" y="780.2"/>
      <point x="308.6" y="891.2" type="curve"/>
      <point x="308.6" y="1148.2" type="line" smooth="yes"/>
      <point x="308.6" y="1320.2"/>
      <point x="262.6" y="1390.4"/>
      <point x="116.8" y="1392.4" type="curve"/>
      <point x="116.8" y="1498.4" type="line"/>
      <point x="345.8" y="1498.4"/>
      <point x="428.0" y="1372.0"/>
      <point x="428.0" y="1152.6" type="curve" smooth="yes"/>
      <point x="428.0" y="974.8" type="line" smooth="yes"/>
      <point x="428.0" y="799.8"/>
      <point x="445.0" y="670.8"/>
      <point x="638.8" y="668.2" type="curve"/>
      <point x="638.8" y="557.0" type="line"/>
      <point x="451.0" y="557.0"/>
      <point x="428.0" y="422.6"/>
      <point x="428.0" y="250.2" type="curve" smooth="yes"/>
      <point x="428.0" y="27.8" type="line" smooth="yes"/>
      <point x="428.0" y="-163.0"/>
      <point x="323.2" y="-275.4"/>
    </contour>
  </outline>
</glyph>
<glyph name="asciitilde" format="1">
  <advance width="1191.8"/>
  <unicode hex="007E"/>
  <outline>
    <contour>
      <point x="135.6" y="496.6" type="curve"/>
      <point x="101.2" y="583.2" type="line"/>
      <point x="145.4" y="692.2"/>
      <point x="233.0" y="776.0"/>
      <point x="358.0" y="776.0" type="curve" smooth="yes"/>
      <point x="436.8" y="776.0"/>
      <point x="489.6" y="754.6"/>
      <point x="592.0" y="709.2" type="curve" smooth="yes"/>
      <point x="688.6" y="668.2"/>
      <point x="770.6" y="627.0"/>
      <point x="831.4" y="627.0" type="curve" smooth="yes"/>
      <point x="915.0" y="627.0"/>
      <point x="996.6" y="704.0"/>
      <point x="1029.0" y="787.0" type="curve"/>
      <point x="1071.8" y="708.6" type="line"/>
      <point x="1023.4" y="583.4"/>
      <point x="952.2" y="510.6"/>
      <point x="831.6" y="510.6" type="curve" smooth="yes"/>
      <point x="766.2" y="510.6"/>
      <point x="693.4" y="537.8"/>
      <point x="613.2" y="573.8" type="curve"/>
      <point x="503.6" y="622.0"/>
      <point x="425.6" y="657.8"/>
      <point x="355.4" y="657.8" type="curve" smooth="yes"/>
      <point x="266.2" y="657.8"/>
      <point x="183.2" y="585.0"/>
    </contour>
  </outline>
</glyph>
<glyph name="cent" format="1">
  <advance width="989.0"/>
  <unicode hex="00A2"/>
  <outline>
    <contour>
      <point x="557.6" y="-155.4" type="line"/>
      <point x="638.4" y="-155.4" type="line"/>
      <point x="638.4" y="1232.4" type="line"/>
      <point x="557.6" y="1232.4" type="line"/>
    </contour>
    <component base="c"/>
  </outline>
</glyph>
<glyph name="sterling" format="1">
  <advance width="1161.2"/>
  <unicode hex="00A3"/>
  <outline>
    <contour>
      <point x="131.8" y="-7.2" type="line"/>
      <point x="120.2" y="105.2" type="line"/>
      <point x="304.2" y="120.8" type="line"/>
      <point x="304.2" y="666.2" type="line"/>
      <point x="120.8" y="666.2" type="line"/>
      <point x="120.8" y="776.0" type="line"/>
      <point x="304.2" y="776.0" type="line"/>
      <point x="304.2" y="882.8" type="line" smooth="yes"/>
      <point x="304.2" y="1177.6"/>
      <point x="350.6" y="1462.8"/>
      <point x="710.0" y="1462.8" type="curve" smooth="yes"/>
      <point x="853.0" y="1462.8"/>
      <point x="964.0" y="1409.2"/>
      <point x="1047.2" y="1338.6" type="curve"/>
      <point x="986.0" y="1242.4" type="line"/>
      <point x="899.4" y="1310.4"/>
      <point x="811.2" y="1346.8"/>
      <point x="708.2" y="1346.8" type="curve" smooth="yes"/>
      <point x="497.0" y="1346.8"/>
      <point x="435.2" y="1189.2"/>
      <point x="435.2" y="954.8" type="curve" smooth="yes"/>
      <point x="435.2" y="776.0" type="line"/>
      <point x="844.8" y="776.0" type="line"/>
      <point x="844.8" y="665.6" type="line"/>
      <point x="435.2" y="665.6" type="line"/>
      <point x="435.2" y="122.8" type="line"/>
      <point x="1060.4" y="122.8" type="line"/>
      <point x="1046.4" y="-7.2" type="line"/>
    </contour>
  </outline>
</glyph>
<glyph name="currency" format="1">
  <advance width="1318.6"/>
  <unicode hex="00A4"/>
  <outline>
    <contour>
      <point x="1105.4" y="225.6" type="line"/>
      <point x="1159.4" y="285.4" type="line"/>
      <point x="981.2" y="459.8" type="line"/>
      <point x="1035.4" y="529.2"/>
      <point x="1062.4" y="612.6"/>
      <point x="1062.4" y="706.6" type="curve" smooth="yes"/>
      <point x="1062.4" y="794.2"/>
      <point x="1035.6" y="879.0"/>
      <point x="980.2" y="954.2" type="curve"/>
      <point x="1160.4" y="1126.6" type="line"/>
      <point x="1105.4" y="1187.0" type="line"/>
      <point x="923.2" y="1015.6" type="line"/>
      <point x="851.4" y="1076.2"/>
      <point x="761.0" y="1110.6"/>
      <point x="661.0" y="1110.6" type="curve" smooth="yes"/>
      <point x="561.4" y="1110.6"/>
      <point x="469.8" y="1078.2"/>
      <point x="397.0" y="1016.8" type="curve"/>
      <point x="216.6" y="1187.0" type="line"/>
      <point x="157.4" y="1129.2" type="line"/>
      <point x="341.0" y="954.2" type="line"/>
      <point x="286.0" y="883.0"/>
      <point x="258.0" y="797.2"/>
      <point x="258.0" y="706.6" type="curve" smooth="yes"/>
      <point x="258.0" y="615.0"/>
      <point x="285.6" y="531.8"/>
      <point x="341.0" y="459.8" type="curve"/>
      <point x="158.4" y="286.6" type="line"/>
      <point x="216.6" y="226.8" type="line"/>
      <point x="397.4" y="397.4" type="line"/>
      <point x="469.8" y="336.2"/>
      <point x="560.0" y="304.4"/>
      <point x="661.0" y="304.4" type="curve" smooth="yes"/>
      <point x="761.6" y="304.4"/>
      <point x="851.0" y="336.8"/>
      <point x="923.2" y="396.8" type="curve"/>
    </contour>
    <contour>
      <point x="661.0" y="384.8" type="curve" smooth="yes"/>
      <point x="466.6" y="384.8"/>
      <point x="347.4" y="532.8"/>
      <point x="347.4" y="706.6" type="curve" smooth="yes"/>
      <point x="347.4" y="880.2"/>
      <point x="466.6" y="1029.4"/>
      <point x="661.0" y="1029.4" type="curve" smooth="yes"/>
      <point x="855.8" y="1029.4"/>
      <point x="975.0" y="879.6"/>
      <point x="975.0" y="706.6" type="curve" smooth="yes"/>
      <point x="975.0" y="533.6"/>
      <point x="856.8" y="384.8"/>
    </contour>
  </outline>
</glyph>
<glyph name="yen" format="1">
  <advance width="1232.2"/>
  <unicode hex="00A5"/>
  <outline>
    <contour>
      <point x="559.0" y="0.0" type="line"/>
      <point x="715.8" y="0.0" type="line"/>
      <point x="715.8" y="293.0" type="line"/>
      <point x="1029.6" y="293.0" type="line"/>
      <point x="1029.6" y="387.0" type="line"/>
      <point x="715.8" y="387.0" type="line"/>
      <point x="715.8" y="585.8" type="line"/>
      <point x="1028.0" y="585.8" type="line"/>
      <point x="1028.0" y="681.0" type="line"/>
      <point x="762.0" y="681.0" type="line"/>
      <point x="1182.8" y="1443.2" type="line"/>
      <point x="1029.0" y="1443.2" type="line"/>
      <point x="637.0" y="710.4" type="line"/>
      <point x="216.0" y="1443.2" type="line"/>
      <point x="62.0" y="1443.2" type="line"/>
      <point x="508.8" y="681.0" type="line"/>
      <point x="236.4" y="681.0" type="line"/>
      <point x="236.4" y="585.8" type="line"/>
      <point x="559.0" y="585.8" type="line"/>
      <point x="559.0" y="387.0" type="line"/>
      <point x="234.8" y="387.0" type="line"/>
      <point x="234.8" y="293.0" type="line"/>
      <point x="559.0" y="293.0" type="line"/>
    </contour>
  </outline>
</glyph>
<glyph name="brokenbar" format="1">
  <advance width="279.6"/>
  <unicode hex="00A6"/>
  <outline>
    <contour>
      <point x="85.4" y="-202.8" type="line"/>
      <point x="85.4" y="476.8" type="line"/>
      <point x="197.2" y="476.8" type="line"/>
      <point x="197.2" y="-202.8" type="line"/>
    </contour>
    <contour>
      <point x="85.4" y="770.0" type="line"/>
      <point x="85.4" y="1446.8" type="line"/>
      <point x="197.2" y="1446.8" type="line"/>
      <point x="197.2" y="770.0" type="line"/>
    </contour>
  </outline>
</glyph>
<glyph name="dieresis" format="1">
  <advance width="748.6"/>
  <unicode hex="00A8"/>
  <outline>
    <contour>
      <point x="133.2" y="1246.0" type="line"/>
      <point x="260.4" y="1246.0" type="line"/>
      <point x="260.4" y="1408.8" type="line"/>
      <point x="133.2" y="1408.8" type="line"/>
    </contour>
    <contour>
      <point x="502.6" y="1246.0" type="line"/>
      <point x="630.4" y="1246.0" type="line"/>
      <point x="630.4" y="1408.8" type="line"/>
      <point x="502.6" y="1408.8" type="line"/>
    </contour>
  </outline>
</glyph>
<glyph name="copyright" format="1">
  <advance width="1826.8"/>
  <unicode hex="00A9"/>
  <outline>
    <contour>
      <point x="936.2" y="232.8" type="curve" smooth="yes"/>
      <point x="1035.8" y="232.8"/>
      <point x="1135.0" y="261.0"/>
      <point x="1225.4" y="318.8" type="curve"/>
      <point x="1192.6" y="401.6" type="line"/>
      <point x="1102.6" y="346.4"/>
      <point x="1020.8" y="327.8"/>
      <point x="938.2" y="327.8" type="curve" smooth="yes"/>
      <point x="728.4" y="327.8"/>
      <point x="560.0" y="487.8"/>
      <point x="560.0" y="753.0" type="curve" smooth="yes"/>
      <point x="560.0" y="993.2"/>
      <point x="728.2" y="1163.4"/>
      <point x="930.2" y="1163.4" type="curve" smooth="yes"/>
      <point x="1004.8" y="1163.4"/>
      <point x="1103.8" y="1137.8"/>
      <point x="1179.6" y="1078.6" type="curve"/>
      <point x="1222.0" y="1165.4" type="line"/>
      <point x="1129.6" y="1229.4"/>
      <point x="1027.6" y="1259.4"/>
      <point x="926.4" y="1259.4" type="curve" smooth="yes"/>
      <point x="662.6" y="1259.4"/>
      <point x="439.8" y="1040.6"/>
      <point x="439.8" y="746.6" type="curve" smooth="yes"/>
      <point x="439.8" y="446.2"/>
      <point x="669.0" y="232.8"/>
    </contour>
    <contour>
      <point x="911.6" y="51.4" type="curve" smooth="yes"/>
      <point x="570.6" y="51.4"/>
      <point x="232.2" y="285.8"/>
      <point x="232.2" y="749.2" type="curve" smooth="yes"/>
      <point x="232.2" y="1212.2"/>
      <point x="570.4" y="1446.4"/>
      <point x="911.2" y="1446.4" type="curve" smooth="yes"/>
      <point x="1253.0" y="1446.4"/>
      <point x="1594.8" y="1211.4"/>
      <point x="1594.8" y="749.0" type="curve" smooth="yes"/>
      <point x="1594.8" y="286.6"/>
      <point x="1253.4" y="51.4"/>
    </contour>
    <contour>
      <point x="911.6" y="-32.0" type="curve" smooth="yes"/>
      <point x="1300.0" y="-32.0"/>
      <point x="1698.8" y="227.8"/>
      <point x="1698.8" y="749.2" type="curve" smooth="yes"/>
      <point x="1698.8" y="1270.4"/>
      <point x="1299.4" y="1530.8"/>
      <point x="911.2" y="1530.8" type="curve" smooth="yes"/>
      <point x="523.6" y="1530.8"/>
      <point x="128.0" y="1270.6"/>
      <point x="128.0" y="749.2" type="curve" smooth="yes"/>
      <point x="128.0" y="227.8"/>
      <point x="524.0" y="-32.0"/>
    </contour>
  </outline>
</glyph>
<glyph name="guillemotleft" format="1">
  <advance width="990.4"/>
  <unicode hex="00AB"/>
  <outline>
    <contour>
      <point x="735.4" y="150.8" type="line"/>
      <point x="839.6" y="178.0" type="line"/>
      <point x="582.6" y="541.8" type="line"/>
      <point x="846.0" y="901.8" type="line"/>
      <point x="738.2" y="928.8" type="line"/>
      <point x="454.4" y="538.8" type="line"/>
    </contour>
    <contour>
      <point x="390.8" y="150.8" type="line"/>
      <point x="495.0" y="178.0" type="line"/>
      <point x="238.8" y="541.8" type="line"/>
      <point x="502.4" y="901.8" type="line"/>
      <point x="394.6" y="928.8" type="line"/>
      <point x="109.8" y="538.8" type="line"/>
    </contour>
  </outline>
</glyph>
<glyph name="logicalnot" format="1">
  <advance width="1189.8"/>
  <unicode hex="00AC"/>
  <outline>
    <contour>
      <point x="947.8" y="255.2" type="line"/>
      <point x="1058.2" y="255.2" type="line"/>
      <point x="1058.2" y="788.4" type="line"/>
      <point x="103.6" y="788.4" type="line"/>
      <point x="103.6" y="674.6" type="line"/>
      <point x="947.8" y="674.6" type="line"/>
    </contour>
  </outline>
</glyph>
<glyph name="uni00AD" format="1">
  <advance width="1000.8"/>
  <unicode hex="00AD"/>
  <outline>
    <contour>
      <point x="120.8" y="182.0" type="line"/>
      <point x="886.8" y="182.0" type="line"/>
      <point x="886.8" y="303.0" type="line"/>
      <point x="120.8" y="303.0" type="line"/>
    </contour>
  </outline>
</glyph>
<glyph name="registered" format="1">
  <advance width="1825.2"/>
  <unicode hex="00AE"/>
  <outline>
    <contour>
      <point x="606.6" y="298.4" type="line"/>
      <point x="715.8" y="298.4" type="line"/>
      <point x="715.8" y="749.6" type="line"/>
      <point x="952.4" y="749.6" type="line"/>
      <point x="958.8" y="743.2"/>
      <point x="1173.0" y="298.4"/>
      <point x="1173.0" y="298.4" type="curve"/>
      <point x="1293.2" y="298.4" type="line"/>
      <point x="1293.2" y="298.4"/>
      <point x="1072.8" y="749.2"/>
      <point x="1061.4" y="764.4" type="curve"/>
      <point x="1195.2" y="775.6"/>
      <point x="1260.4" y="868.2"/>
      <point x="1260.4" y="1007.6" type="curve" smooth="yes"/>
      <point x="1260.4" y="1174.0"/>
      <point x="1184.0" y="1252.0"/>
      <point x="937.4" y="1252.0" type="curve" smooth="yes"/>
      <point x="606.6" y="1252.0" type="line"/>
    </contour>
    <contour>
      <point x="716.4" y="844.4" type="line"/>
      <point x="716.4" y="1157.2" type="line"/>
      <point x="923.8" y="1157.2" type="line" smooth="yes"/>
      <point x="1094.2" y="1157.2"/>
      <point x="1156.0" y="1135.4"/>
      <point x="1156.0" y="1003.0" type="curve" smooth="yes"/>
      <point x="1156.0" y="893.4"/>
      <point x="1114.6" y="844.4"/>
      <point x="966.2" y="844.4" type="curve" smooth="yes"/>
    </contour>
    <contour>
      <point x="910.8" y="50.0" type="curve" smooth="yes"/>
      <point x="570.0" y="50.0"/>
      <point x="231.8" y="284.4"/>
      <point x="231.8" y="747.8" type="curve" smooth="yes"/>
      <point x="231.8" y="1210.8"/>
      <point x="569.8" y="1446.4"/>
      <point x="910.6" y="1446.4" type="curve" smooth="yes"/>
      <point x="1252.2" y="1446.4"/>
      <point x="1593.4" y="1210.0"/>
      <point x="1593.4" y="747.6" type="curve" smooth="yes"/>
      <point x="1593.4" y="285.2"/>
      <point x="1252.2" y="50.0"/>
    </contour>
    <contour>
      <point x="910.8" y="-33.4" type="curve" smooth="yes"/>
      <point x="1298.8" y="-33.4"/>
      <point x="1697.6" y="226.4"/>
      <point x="1697.6" y="747.8" type="curve" smooth="yes"/>
      <point x="1697.6" y="1269.0"/>
      <point x="1298.6" y="1530.8"/>
      <point x="910.6" y="1530.8" type="curve" smooth="yes"/>
      <point x="523.0" y="1530.8"/>
      <point x="127.6" y="1269.2"/>
      <point x="127.6" y="747.8" type="curve" smooth="yes"/>
      <point x="127.6" y="226.4"/>
      <point x="523.2" y="-33.4"/>
    </contour>
  </outline>
</glyph>
<glyph name="macron" format="1">
  <advance width="1093.2"/>
  <unicode hex="00AF"/>
  <outline>
    <contour>
      <point x="247.2" y="1274.6" type="line"/>
      <point x="818.8" y="1274.6" type="line"/>
      <point x="818.8" y="1387.2" type="line"/>
      <point x="247.2" y="1387.2" type="line"/>
    </contour>
  </outline>
</glyph>
<glyph name="degree" format="1">
  <advance width="817.8"/>
  <unicode hex="00B0"/>
  <outline>
    <contour>
      <point x="408.6" y="993.2" type="curve" smooth="yes"/>
      <point x="297.8" y="993.2"/>
      <point x="210.2" y="1074.6"/>
      <point x="210.2" y="1192.2" type="curve" smooth="yes"/>
      <point x="210.2" y="1309.2"/>
      <point x="299.4" y="1390.2"/>
      <point x="408.8" y="1390.2" type="curve" smooth="yes"/>
      <point x="520.0" y="1390.2"/>
      <point x="608.2" y="1309.2"/>
      <point x="608.2" y="1192.2" type="curve" smooth="yes"/>
      <point x="608.2" y="1076.2"/>
      <point x="520.2" y="993.2"/>
    </contour>
    <contour>
      <point x="407.8" y="905.0" type="curve" smooth="yes"/>
      <point x="566.8" y="905.0"/>
      <point x="708.6" y="1026.4"/>
      <point x="708.6" y="1192.4" type="curve" smooth="yes"/>
      <point x="708.6" y="1363.2"/>
      <point x="563.4" y="1478.0"/>
      <point x="407.8" y="1478.0" type="curve" smooth="yes"/>
      <point x="255.6" y="1478.0"/>
      <point x="110.0" y="1363.2"/>
      <point x="110.0" y="1192.4" type="curve" smooth="yes"/>
      <point x="110.0" y="1019.0"/>
      <point x="256.6" y="905.0"/>
    </contour>
  </outline>
</glyph>
<glyph name="plusminus" format="1">
  <advance width="1158.2"/>
  <unicode hex="00B1"/>
  <outline>
    <contour>
      <point x="112.8" y="0.0" type="line"/>
      <point x="112.8" y="105.2" type="line"/>
      <point x="1045.4" y="105.2" type="line"/>
      <point x="1045.4" y="0.0" type="line"/>
    </contour>
    <contour>
      <point x="512.0" y="200.2" type="line"/>
      <point x="626.4" y="200.2" type="line"/>
      <point x="626.4" y="593.6" type="line"/>
      <point x="993.4" y="593.6" type="line"/>
      <point x="993.4" y="696.4" type="line"/>
      <point x="626.2" y="696.4" type="line"/>
      <point x="626.2" y="1080.0" type="line"/>
      <point x="512.0" y="1080.0" type="line"/>
      <point x="512.0" y="696.4" type="line"/>
      <point x="137.6" y="696.4" type="line"/>
      <point x="137.6" y="593.6" type="line"/>
      <point x="512.0" y="593.6" type="line"/>
    </contour>
  </outline>
</glyph>
<glyph name="uni00B3" format="1">
  <advance width="814.4"/>
  <unicode hex="00B3"/>
  <outline>
    <contour>
      <point x="427.2" y="613.4" type="curve" smooth="yes"/>
      <point x="571.0" y="613.4"/>
      <point x="682.8" y="709.8"/>
      <point x="682.8" y="865.4" type="curve" smooth="yes"/>
      <point x="682.8" y="964.6"/>
      <point x="624.0" y="1044.2"/>
      <point x="512.2" y="1075.2" type="curve"/>
      <point x="617.6" y="1096.4"/>
      <point x="663.6" y="1174.2"/>
      <point x="664.0" y="1252.4" type="curve"/>
      <point x="664.0" y="1407.0"/>
      <point x="544.2" y="1483.4"/>
      <point x="419.8" y="1483.4" type="curve" smooth="yes"/>
      <point x="335.0" y="1483.4"/>
      <point x="220.6" y="1449.0"/>
      <point x="165.8" y="1388.6" type="curve"/>
      <point x="214.8" y="1305.0" type="line"/>
      <point x="255.2" y="1346.4"/>
      <point x="349.4" y="1377.6"/>
      <point x="416.2" y="1377.6" type="curve" smooth="yes"/>
      <point x="486.6" y="1377.6"/>
      <point x="541.2" y="1337.2"/>
      <point x="541.2" y="1252.0" type="curve" smooth="yes"/>
      <point x="541.2" y="1165.8"/>
      <point x="457.0" y="1124.2"/>
      <point x="358.0" y="1124.2" type="curve" smooth="yes"/>
      <point x="289.0" y="1124.2" type="line"/>
      <point x="289.0" y="1015.6" type="line"/>
      <point x="360.8" y="1015.8" type="line"/>
      <point x="472.2" y="1015.8"/>
      <point x="560.4" y="966.8"/>
      <point x="560.4" y="869.6" type="curve" smooth="yes"/>
      <point x="560.4" y="768.8"/>
      <point x="495.4" y="720.6"/>
      <point x="416.6" y="720.6" type="curve" smooth="yes"/>
      <point x="354.4" y="720.6"/>
      <point x="262.0" y="748.0"/>
      <point x="211.4" y="793.4" type="curve"/>
      <point x="164.8" y="701.2" type="line"/>
      <point x="223.8" y="638.2"/>
      <point x="345.4" y="613.4"/>
    </contour>
  </outline>
</glyph>
<glyph name="acute" format="1">
  <advance width="630.6"/>
  <unicode hex="00B4"/>
  <outline>
    <contour>
      <point x="103.8" y="1218.2" type="line"/>
      <point x="191.2" y="1218.2" type="line"/>
      <point x="480.4" y="1591.6" type="line"/>
      <point x="288.6" y="1591.6" type="line"/>
    </contour>
  </outline>
</glyph>
<glyph name="paragraph" format="1">
  <advance width="1096.4"/>
  <unicode hex="00B6"/>
  <outline>
    <contour>
      <point x="497.6" y="-129.6" type="line"/>
      <point x="603.2" y="-129.6" type="line"/>
      <point x="603.2" y="1433.4" type="line"/>
      <point x="806.6" y="1433.4" type="line"/>
      <point x="806.6" y="-129.6" type="line"/>
      <point x="912.2" y="-129.6" type="line"/>
      <point x="912.2" y="1433.4" type="line"/>
      <point x="985.2" y="1433.4" type="line"/>
      <point x="985.2" y="1534.4" type="line"/>
      <point x="510.4" y="1534.4" type="line" smooth="yes"/>
      <point x="184.0" y="1534.4"/>
      <point x="108.6" y="1343.2"/>
      <point x="108.6" y="1201.6" type="curve" smooth="yes"/>
      <point x="108.6" y="1032.0"/>
      <point x="204.0" y="857.8"/>
      <point x="497.6" y="857.8" type="curve"/>
    </contour>
  </outline>
</glyph>
<glyph name="periodcentered" format="1">
  <advance width="398"/>
  <unicode hex="00B7"/>
  <outline>
    <contour>
      <point x="114" y="547" type="line"/>
      <point x="114" y="707" type="line"/>
      <point x="278" y="707" type="line"/>
      <point x="278" y="547" type="line"/>
    </contour>
  </outline>
</glyph>
<glyph name="cedilla" format="1">
  <advance width="584.4"/>
  <unicode hex="00B8"/>
  <outline>
    <contour>
      <point x="136.0" y="-380.8" type="line"/>
      <point x="256.0" y="-380.8" type="line"/>
      <point x="292.0" y="3.2" type="line"/>
      <point x="218.8" y="3.2" type="line"/>
    </contour>
  </outline>
</glyph>
<glyph name="uni00B9" format="1">
  <advance width="823.8"/>
  <unicode hex="00B9"/>
  <outline>
    <contour>
      <point x="205.4" y="673.0" type="line"/>
      <point x="707.6" y="673.0" type="line"/>
      <point x="707.6" y="790.4" type="line"/>
      <point x="536.6" y="790.4" type="line"/>
      <point x="536.6" y="1474.8" type="line"/>
      <point x="409.8" y="1475.0" type="line"/>
      <point x="378.6" y="1443.8"/>
      <point x="241.2" y="1383.2"/>
      <point x="202.0" y="1374.4" type="curve"/>
      <point x="202.0" y="1246.8" type="line"/>
      <point x="246.0" y="1256.4"/>
      <point x="349.6" y="1296.0"/>
      <point x="386.4" y="1319.4" type="curve"/>
      <point x="386.4" y="790.4" type="line"/>
      <point x="205.4" y="790.4" type="line"/>
    </contour>
  </outline>
</glyph>
<glyph name="guillemotright" format="1">
  <advance width="984.2"/>
  <unicode hex="00BB"/>
  <outline>
    <contour>
      <point x="593.2" y="928.8" type="line"/>
      <point x="489.4" y="902.6" type="line"/>
      <point x="745.8" y="537.8" type="line"/>
      <point x="483.0" y="178.8" type="line"/>
      <point x="590.2" y="150.8" type="line"/>
      <point x="874.4" y="540.8" type="line"/>
    </contour>
    <contour>
      <point x="251.4" y="928.8" type="line"/>
      <point x="147.2" y="902.6" type="line"/>
      <point x="404.6" y="537.8" type="line"/>
      <point x="140.4" y="178.8" type="line"/>
      <point x="248.8" y="150.8" type="line"/>
      <point x="532.6" y="540.8" type="line"/>
    </contour>
  </outline>
</glyph>
<glyph name="onequarter" format="1">
  <advance width="1593.8"/>
  <unicode hex="00BC"/>
  <outline>
    <contour>
      <point x="88.0" y="620.6" type="line"/>
      <point x="514.8" y="620.6" type="line"/>
      <point x="514.8" y="722.2" type="line"/>
      <point x="375.0" y="722.2" type="line"/>
      <point x="375.0" y="1483.6" type="line"/>
      <point x="270.2" y="1483.8" type="line"/>
      <point x="239.0" y="1452.6"/>
      <point x="120.6" y="1396.8"/>
      <point x="79.8" y="1382.4" type="curve"/>
      <point x="79.8" y="1279.6" type="line"/>
      <point x="119.0" y="1293.2"/>
      <point x="209.2" y="1328.2"/>
      <point x="246.0" y="1351.6" type="curve"/>
      <point x="246.0" y="722.2" type="line"/>
      <point x="88.0" y="722.2" type="line"/>
    </contour>
    <contour>
      <point x="1325.8" y="2.6" type="line"/>
      <point x="1443.2" y="2.6" type="line"/>
      <point x="1443.4" y="190.6" type="line"/>
      <point x="1567.8" y="190.6" type="line"/>
      <point x="1559.2" y="288.0" type="line"/>
      <point x="1445.2" y="288.0" type="line"/>
      <point x="1445.2" y="838.0" type="line"/>
      <point x="1315.8" y="838.0" type="line"/>
      <point x="947.6" y="273.6" type="line"/>
      <point x="947.6" y="190.6" type="line"/>
      <point x="1325.8" y="190.6" type="line"/>
    </contour>
    <contour>
      <point x="342.4" y="0.0" type="line"/>
      <point x="463.8" y="0.0" type="line"/>
      <point x="1363.0" y="1488.4" type="line"/>
      <point x="1243.6" y="1488.4" type="line"/>
    </contour>
    <contour>
      <point x="1088.4" y="288.0" type="line"/>
      <point x="1325.4" y="662.4" type="line"/>
      <point x="1325.4" y="288.0" type="line"/>
    </contour>
  </outline>
</glyph>
<glyph name="onehalf" format="1">
  <advance width="1653.0"/>
  <unicode hex="00BD"/>
  <outline>
    <contour>
      <point x="131.8" y="622.6" type="line"/>
      <point x="502.4" y="622.6" type="line"/>
      <point x="502.4" y="726.8" type="line"/>
      <point x="379.6" y="726.8" type="line"/>
      <point x="379.6" y="1483.6" type="line"/>
      <point x="270.0" y="1483.8" type="line"/>
      <point x="238.8" y="1452.6"/>
      <point x="165.8" y="1406.6"/>
      <point x="117.8" y="1382.6" type="curve"/>
      <point x="117.8" y="1271.2" type="line"/>
      <point x="152.2" y="1288.8"/>
      <point x="213.8" y="1322.6"/>
      <point x="250.4" y="1346.6" type="curve"/>
      <point x="250.4" y="726.8" type="line"/>
      <point x="131.8" y="726.8" type="line"/>
    </contour>
    <contour>
      <point x="1021.6" y="-6.2" type="line"/>
      <point x="1540.4" y="-6.2" type="line"/>
      <point x="1544.0" y="100.0" type="line"/>
      <point x="1188.0" y="100.0" type="line"/>
      <point x="1391.4" y="283.6"/>
      <point x="1553.6" y="410.2"/>
      <point x="1553.6" y="597.8" type="curve" smooth="yes"/>
      <point x="1553.6" y="760.0"/>
      <point x="1419.2" y="845.4"/>
      <point x="1281.6" y="845.4" type="curve" smooth="yes"/>
      <point x="1167.0" y="845.4"/>
      <point x="1050.2" y="784.4"/>
      <point x="997.6" y="690.4" type="curve"/>
      <point x="1069.0" y="618.8" type="line" smooth="yes"/>
      <point x="1128.8" y="699.4"/>
      <point x="1207.6" y="734.6"/>
      <point x="1287.2" y="734.6" type="curve" smooth="yes"/>
      <point x="1360.6" y="734.6"/>
      <point x="1428.0" y="688.8"/>
      <point x="1428.0" y="589.6" type="curve" smooth="yes"/>
      <point x="1428.0" y="466.4"/>
      <point x="1213.8" y="287.8"/>
      <point x="1021.8" y="95.0" type="curve"/>
    </contour>
    <contour>
      <point x="309.4" y="4.0" type="line"/>
      <point x="431.8" y="4.0" type="line"/>
      <point x="1331.8" y="1488.4" type="line"/>
      <point x="1210.6" y="1488.4" type="line"/>
    </contour>
  </outline>
</glyph>
<glyph name="threequarters" format="1">
  <advance width="1634.8"/>
  <unicode hex="00BE"/>
  <outline>
    <contour>
      <point x="356.8" y="618.8" type="curve" smooth="yes"/>
      <point x="500.2" y="618.8"/>
      <point x="613.2" y="714.4"/>
      <point x="613.2" y="869.6" type="curve" smooth="yes"/>
      <point x="613.2" y="968.2"/>
      <point x="555.0" y="1047.4"/>
      <point x="443.4" y="1078.2" type="curve"/>
      <point x="552.2" y="1101.2"/>
      <point x="594.2" y="1186.0"/>
      <point x="594.2" y="1254.6" type="curve" smooth="yes"/>
      <point x="594.2" y="1407.2"/>
      <point x="473.6" y="1483.4"/>
      <point x="350.2" y="1483.4" type="curve" smooth="yes"/>
      <point x="265.0" y="1483.4"/>
      <point x="147.2" y="1448.8"/>
      <point x="92.4" y="1388.0" type="curve"/>
      <point x="144.2" y="1305.0" type="line"/>
      <point x="184.6" y="1346.4"/>
      <point x="279.0" y="1377.0"/>
      <point x="345.8" y="1377.0" type="curve" smooth="yes"/>
      <point x="416.4" y="1377.0"/>
      <point x="470.4" y="1337.6"/>
      <point x="470.4" y="1253.2" type="curve" smooth="yes"/>
      <point x="470.4" y="1167.8"/>
      <point x="386.4" y="1126.2"/>
      <point x="287.4" y="1126.2" type="curve" smooth="yes"/>
      <point x="218.6" y="1126.2" type="line"/>
      <point x="218.6" y="1017.4" type="line"/>
      <point x="291.2" y="1017.6" type="line"/>
      <point x="402.4" y="1017.6"/>
      <point x="488.4" y="969.8"/>
      <point x="488.4" y="874.0" type="curve" smooth="yes"/>
      <point x="488.4" y="774.2"/>
      <point x="423.6" y="726.6"/>
      <point x="344.8" y="726.6" type="curve" smooth="yes"/>
      <point x="282.6" y="726.6"/>
      <point x="192.4" y="753.0"/>
      <point x="142.0" y="797.8" type="curve"/>
      <point x="94.2" y="706.4" type="line"/>
      <point x="153.0" y="643.4"/>
      <point x="275.0" y="618.8"/>
    </contour>
    <contour>
      <point x="1316.0" y="4.8" type="line"/>
      <point x="1433.4" y="4.8" type="line"/>
      <point x="1433.6" y="194.4" type="line"/>
      <point x="1558.0" y="194.4" type="line"/>
      <point x="1549.6" y="291.6" type="line"/>
      <point x="1435.4" y="291.6" type="line"/>
      <point x="1435.4" y="842.6" type="line"/>
      <point x="1305.8" y="842.6" type="line"/>
      <point x="938.0" y="276.2" type="line"/>
      <point x="938.0" y="194.4" type="line"/>
      <point x="1316.0" y="194.4" type="line"/>
    </contour>
    <contour>
      <point x="371.4" y="4.0" type="line"/>
      <point x="493.4" y="4.0" type="line"/>
      <point x="1392.0" y="1488.4" type="line"/>
      <point x="1272.0" y="1488.4" type="line"/>
    </contour>
    <contour>
      <point x="1078.4" y="291.6" type="line"/>
      <point x="1315.6" y="665.6" type="line"/>
      <point x="1315.6" y="291.6" type="line"/>
    </contour>
  </outline>
</glyph>
<glyph name="Eth" format="1">
  <advance width="1531.8"/>
  <unicode hex="00D0"/>
  <outline>
    <contour>
      <point x="657.4" y="793.8" type="line"/>
      <point x="68.6" y="793.8" type="line"/>
      <point x="68.6" y="688.8" type="line"/>
      <point x="657.4" y="688.8" type="line"/>
    </contour>
    <component base="D"/>
  </outline>
</glyph>
<glyph name="multiply" format="1">
  <advance width="835.0"/>
  <unicode hex="00D7"/>
  <outline>
    <contour>
      <point x="688.0" y="212.0" type="line"/>
      <point x="759.6" y="288.4" type="line"/>
      <point x="759.6" y="288.4"/>
      <point x="508.8" y="560.2"/>
      <point x="495.2" y="573.8" type="curve"/>
      <point x="756.4" y="849.0" type="line"/>
      <point x="677.4" y="926.8" type="line"/>
      <point x="420.6" y="652.8" type="line"/>
      <point x="161.6" y="931.6" type="line"/>
      <point x="85.8" y="853.2" type="line"/>
      <point x="346.4" y="574.6" type="line"/>
      <point x="75.4" y="285.8" type="line"/>
      <point x="150.4" y="211.2" type="line"/>
      <point x="420.6" y="495.4" type="line"/>
    </contour>
  </outline>
</glyph>
<glyph name="Oslash" format="1">
  <advance width="1639.4"/>
  <unicode hex="00D8"/>
  <outline>
    <contour>
      <point x="510.6" y="-226.2" type="line"/>
      <point x="1236.0" y="1628.8" type="line"/>
      <point x="1139.6" y="1664.8" type="line"/>
      <point x="419.4" y="-195.2" type="line"/>
    </contour>
    <component base="O"/>
  </outline>
</glyph>
<glyph name="germandbls" format="1">
  <advance width="1176.4"/>
  <unicode hex="00DF"/>
  <outline>
    <contour>
      <point x="331.8" y="0.0" type="line"/>
      <point x="182.0" y="0.0" type="line"/>
      <point x="182.0" y="1012.8" type="line" smooth="yes"/>
      <point x="182.0" y="1300.2"/>
      <point x="298.0" y="1475.6"/>
      <point x="596.2" y="1475.6" type="curve" smooth="yes"/>
      <point x="819.8" y="1475.6"/>
      <point x="954.6" y="1348.8"/>
      <point x="954.6" y="1169.2" type="curve" smooth="yes"/>
      <point x="954.6" y="964.0"/>
      <point x="740.2" y="844.8"/>
      <point x="740.2" y="750.8" type="curve" smooth="yes"/>
      <point x="740.2" y="632.4"/>
      <point x="1122.2" y="572.8"/>
      <point x="1122.2" y="283.6" type="curve" smooth="yes"/>
      <point x="1122.2" y="100.2"/>
      <point x="1004.2" y="-19.6"/>
      <point x="806.2" y="-19.6" type="curve" smooth="yes"/>
      <point x="675.4" y="-19.6"/>
      <point x="548.0" y="19.4"/>
      <point x="475.6" y="57.4" type="curve"/>
      <point x="517.4" y="171.0" type="line"/>
      <point x="575.2" y="140.4"/>
      <point x="676.6" y="101.0"/>
      <point x="792.2" y="101.0" type="curve" smooth="yes"/>
      <point x="926.6" y="101.0"/>
      <point x="977.2" y="191.2"/>
      <point x="977.2" y="278.2" type="curve" smooth="yes"/>
      <point x="977.2" y="492.8"/>
      <point x="603.2" y="543.8"/>
      <point x="603.2" y="738.0" type="curve" smooth="yes"/>
      <point x="603.2" y="901.2"/>
      <point x="808.0" y="961.6"/>
      <point x="808.8" y="1168.4" type="curve" smooth="yes"/>
      <point x="809.6" y="1279.4"/>
      <point x="741.8" y="1361.8"/>
      <point x="599.2" y="1361.8" type="curve" smooth="yes"/>
      <point x="408.4" y="1361.8"/>
      <point x="331.8" y="1268.2"/>
      <point x="331.8" y="1019.0" type="curve" smooth="yes"/>
    </contour>
  </outline>
</glyph>
<glyph name="ae" format="1">
  <advance width="1748.6"/>
  <unicode hex="00E6"/>
  <outline>
    <contour>
      <point x="439.4" y="-15.2" type="curve" smooth="yes"/>
      <point x="611.4" y="-15.2"/>
      <point x="808.6" y="65.4"/>
      <point x="895.6" y="167.4" type="curve"/>
      <point x="973.2" y="48.4"/>
      <point x="1096.4" y="-19.0"/>
      <point x="1266.2" y="-19.0" type="curve" smooth="yes"/>
      <point x="1423.6" y="-19.0"/>
      <point x="1526.4" y="18.0"/>
      <point x="1624.2" y="76.8" type="curve"/>
      <point x="1579.6" y="174.2" type="line"/>
      <point x="1468.8" y="117.4"/>
      <point x="1389.2" y="95.2"/>
      <point x="1282.4" y="95.2" type="curve"/>
      <point x="1080.8" y="95.6"/>
      <point x="942.6" y="209.8"/>
      <point x="932.6" y="501.4" type="curve"/>
      <point x="1486.0" y="501.4"/>
      <point x="1637.8" y="574.6"/>
      <point x="1637.8" y="784.6" type="curve" smooth="yes"/>
      <point x="1637.8" y="933.6"/>
      <point x="1521.0" y="1079.4"/>
      <point x="1265.2" y="1079.4" type="curve" smooth="yes"/>
      <point x="1103.6" y="1079.4"/>
      <point x="931.2" y="988.8"/>
      <point x="889.4" y="824.4" type="curve"/>
      <point x="872.6" y="1008.0"/>
      <point x="732.2" y="1080.2"/>
      <point x="546.6" y="1080.2" type="curve" smooth="yes"/>
      <point x="417.0" y="1080.2"/>
      <point x="258.2" y="1039.8"/>
      <point x="170.2" y="990.4" type="curve"/>
      <point x="216.6" y="886.2" type="line"/>
      <point x="305.4" y="932.8"/>
      <point x="446.6" y="967.2"/>
      <point x="556.4" y="967.2" type="curve"/>
      <point x="729.0" y="966.0"/>
      <point x="791.8" y="877.2"/>
      <point x="791.8" y="722.6" type="curve" smooth="yes"/>
      <point x="791.8" y="604.4" type="line"/>
      <point x="619.6" y="604.4" type="line" smooth="yes"/>
      <point x="277.4" y="604.4"/>
      <point x="117.0" y="515.2"/>
      <point x="117.0" y="299.2" type="curve" smooth="yes"/>
      <point x="117.0" y="81.8"/>
      <point x="261.8" y="-15.2"/>
    </contour>
    <contour>
      <point x="459.4" y="100.2" type="curve" smooth="yes"/>
      <point x="341.6" y="100.2"/>
      <point x="260.0" y="162.0"/>
      <point x="260.0" y="305.4" type="curve" smooth="yes"/>
      <point x="260.0" y="440.6"/>
      <point x="338.6" y="503.8"/>
      <point x="633.4" y="503.8" type="curve" smooth="yes"/>
      <point x="792.8" y="503.8" type="line"/>
      <point x="793.6" y="425.0"/>
      <point x="809.4" y="330.6"/>
      <point x="837.4" y="263.4" type="curve"/>
      <point x="749.2" y="168.6"/>
      <point x="585.6" y="100.2"/>
    </contour>
    <contour>
      <point x="936.0" y="600.4" type="curve"/>
      <point x="958.2" y="829.8"/>
      <point x="1084.0" y="970.6"/>
      <point x="1273.6" y="970.6" type="curve" smooth="yes"/>
      <point x="1436.6" y="970.6"/>
      <point x="1518.4" y="882.2"/>
      <point x="1518.4" y="780.0" type="curve" smooth="yes"/>
      <point x="1518.4" y="637.6"/>
      <point x="1346.2" y="600.4"/>
    </contour>
  </outline>
</glyph>
<glyph name="eth" format="1">
  <advance width="1268.6"/>
  <unicode hex="00F0"/>
  <outline>
    <contour>
      <point x="628.4" y="-26.8" type="curve" smooth="yes"/>
      <point x="963.8" y="-26.8"/>
      <point x="1121.2" y="197.8"/>
      <point x="1121.2" y="478.6" type="curve"/>
      <point x="1121.0" y="612.2"/>
      <point x="1088.4" y="752.0"/>
      <point x="1039.0" y="849.6" type="curve"/>
      <point x="974.2" y="976.2"/>
      <point x="875.0" y="1106.4"/>
      <point x="670.8" y="1320.8" type="curve"/>
      <point x="932.2" y="1417.2" type="line"/>
      <point x="885.4" y="1513.8" type="line"/>
      <point x="593.2" y="1401.8" type="line"/>
      <point x="431.6" y="1559.2" type="line"/>
      <point x="262.8" y="1559.2" type="line"/>
      <point x="481.8" y="1358.2" type="line"/>
      <point x="250.2" y="1269.6" type="line"/>
      <point x="295.0" y="1172.6" type="line"/>
      <point x="553.0" y="1271.2" type="line"/>
      <point x="756.6" y="1075.8"/>
      <point x="856.0" y="939.6"/>
      <point x="911.2" y="834.4" type="curve"/>
      <point x="847.2" y="884.4"/>
      <point x="780.2" y="951.4"/>
      <point x="617.2" y="951.4" type="curve" smooth="yes"/>
      <point x="337.8" y="951.4"/>
      <point x="136.2" y="759.6"/>
      <point x="136.2" y="474.2" type="curve" smooth="yes"/>
      <point x="136.2" y="214.4"/>
      <point x="301.2" y="-26.8"/>
    </contour>
    <contour>
      <point x="634.6" y="84.8" type="curve" smooth="yes"/>
      <point x="395.2" y="84.8"/>
      <point x="282.8" y="278.4"/>
      <point x="282.8" y="472.8" type="curve" smooth="yes"/>
      <point x="282.8" y="681.4"/>
      <point x="410.0" y="841.2"/>
      <point x="627.8" y="841.2" type="curve" smooth="yes"/>
      <point x="859.2" y="841.2"/>
      <point x="985.6" y="664.8"/>
      <point x="985.6" y="484.0" type="curve" smooth="yes"/>
      <point x="985.6" y="244.0"/>
      <point x="867.8" y="84.8"/>
    </contour>
  </outline>
</glyph>
<glyph name="divide" format="1">
  <advance width="1108.6"/>
  <unicode hex="00F7"/>
  <outline>
    <contour>
      <point x="457.2" y="33.4" type="line"/>
      <point x="635.8" y="33.4" type="line"/>
      <point x="635.8" y="224.2" type="line"/>
      <point x="457.2" y="224.2" type="line"/>
    </contour>
    <contour>
      <point x="76.6" y="498.8" type="line"/>
      <point x="1014.4" y="498.8" type="line"/>
      <point x="1014.4" y="626.0" type="line"/>
      <point x="76.6" y="626.0" type="line"/>
    </contour>
    <contour>
      <point x="457.2" y="876.2" type="line"/>
      <point x="637.4" y="876.2" type="line"/>
      <point x="637.4" y="1063.8" type="line"/>
      <point x="457.2" y="1063.8" type="line"/>
    </contour>
  </outline>
</glyph>
<glyph name="oslash" format="1">
  <advance width="1214.0"/>
  <unicode hex="00F8"/>
  <outline>
    <contour>
      <point x="293.2" y="-150.4" type="line"/>
      <point x="1019.4" y="1181.4" type="line"/>
      <point x="950.0" y="1216.4" type="line"/>
      <point x="229.8" y="-114.6" type="line"/>
    </contour>
    <component base="o"/>
  </outline>
</glyph>
<glyph name="Dcroat" format="1">
  <advance width="1530.8"/>
  <unicode hex="0110"/>
  <outline>
    <contour>
      <point x="60.8" y="695.4" type="line"/>
      <point x="60.8" y="786.0" type="line"/>
      <point x="579.8" y="786.0" type="line"/>
      <point x="579.8" y="695.4" type="line"/>
    </contour>
    <component base="D"/>
  </outline>
</glyph>
<glyph name="dcroat" format="1">
  <advance width="1276"/>
  <unicode hex="0111"/>
  <outline>
    <contour>
      <point x="137" y="1196" type="line"/>
      <point x="137" y="1305" type="line"/>
      <point x="632" y="1305" type="line"/>
      <point x="632" y="1196" type="line"/>
    </contour>
    <component base="d"/>
  </outline>
</glyph>
<glyph name="Hbar" format="1">
  <advance width="1604.6"/>
  <unicode hex="0126"/>
  <outline>
    <contour>
      <point x="246.4" y="0.0" type="line"/>
      <point x="246.4" y="1103.4" type="line"/>
      <point x="155.4" y="1103.4" type="line"/>
      <point x="155.4" y="1189.8" type="line"/>
      <point x="246.4" y="1189.8" type="line"/>
      <point x="246.4" y="1459.6" type="line"/>
      <point x="375.4" y="1459.6" type="line"/>
      <point x="375.4" y="1189.8" type="line"/>
      <point x="1232.4" y="1189.8" type="line"/>
      <point x="1232.4" y="1459.6" type="line"/>
      <point x="1361.8" y="1459.6" type="line"/>
      <point x="1361.8" y="1189.8" type="line"/>
      <point x="1452.8" y="1189.8" type="line"/>
      <point x="1452.8" y="1103.4" type="line"/>
      <point x="1361.8" y="1103.4" type="line"/>
      <point x="1361.8" y="0.0" type="line"/>
      <point x="1232.4" y="0.0" type="line"/>
      <point x="1232.4" y="688.2" type="line"/>
      <point x="375.4" y="688.2" type="line"/>
      <point x="375.4" y="0.0" type="line"/>
    </contour>
    <contour>
      <point x="375.4" y="816.6" type="line"/>
      <point x="1232.4" y="816.6" type="line"/>
      <point x="1232.4" y="1103.4" type="line"/>
      <point x="375.4" y="1103.4" type="line"/>
    </contour>
  </outline>
</glyph>
<glyph name="hbar" format="1">
  <advance width="1231.6"/>
  <unicode hex="0127"/>
  <outline>
    <contour>
      <point x="253.8" y="0.0" type="line"/>
      <point x="376.8" y="0.0" type="line"/>
      <point x="376.8" y="724.0" type="line"/>
      <point x="396.0" y="828.2"/>
      <point x="541.6" y="968.4"/>
      <point x="726.2" y="968.4" type="curve" smooth="yes"/>
      <point x="928.4" y="968.4"/>
      <point x="962.2" y="844.4"/>
      <point x="962.2" y="582.2" type="curve" smooth="yes"/>
      <point x="962.2" y="0.0" type="line"/>
      <point x="1085.0" y="0.0" type="line"/>
      <point x="1085.0" y="640.4" type="line" smooth="yes"/>
      <point x="1085.0" y="903.2"/>
      <point x="1006.8" y="1086.8"/>
      <point x="777.8" y="1086.8" type="curve" smooth="yes"/>
      <point x="603.8" y="1086.8"/>
      <point x="470.0" y="1019.8"/>
      <point x="376.8" y="901.6" type="curve"/>
      <point x="376.8" y="1249.4" type="line"/>
      <point x="640.2" y="1249.4" type="line"/>
      <point x="640.2" y="1348.6" type="line"/>
      <point x="376.8" y="1348.6" type="line"/>
      <point x="376.8" y="1460.0" type="line"/>
      <point x="253.8" y="1440.2" type="line"/>
      <point x="253.8" y="1348.6" type="line"/>
      <point x="166.2" y="1348.6" type="line"/>
      <point x="166.2" y="1249.4" type="line"/>
      <point x="253.8" y="1249.4" type="line"/>
    </contour>
  </outline>
</glyph>
<glyph name="dotlessi" format="1">
  <advance width="414.6"/>
  <unicode hex="0131"/>
  <outline>
    <contour>
      <point x="153.6" y="0.0" type="line"/>
      <point x="279.4" y="0.0" type="line"/>
      <point x="279.4" y="1057.4" type="line"/>
      <point x="153.6" y="1057.4" type="line"/>
    </contour>
  </outline>
</glyph>
<glyph name="Eng" format="1">
  <advance width="1384.4"/>
  <unicode hex="014A"/>
  <outline>
    <contour>
      <point x="832.6" y="-315.2" type="curve" smooth="yes"/>
      <point x="797.8" y="-315.2"/>
      <point x="747.0" y="-313.6"/>
      <point x="594.8" y="-299.2" type="curve"/>
      <point x="573.0" y="-187.8" type="line"/>
      <point x="741.4" y="-197.2"/>
      <point x="743.6" y="-198.2"/>
      <point x="769.4" y="-198.2" type="curve" smooth="yes"/>
      <point x="1078.8" y="-198.2"/>
      <point x="1098.8" y="-120.8"/>
      <point x="1098.8" y="172.4" type="curve" smooth="yes"/>
      <point x="1098.8" y="990.2" type="line" smooth="yes"/>
      <point x="1098.8" y="1258.2"/>
      <point x="1023.2" y="1345.8"/>
      <point x="791.6" y="1345.8" type="curve" smooth="yes"/>
      <point x="540.6" y="1345.8"/>
      <point x="374.8" y="1202.8"/>
      <point x="279.8" y="1066.2" type="curve"/>
      <point x="279.8" y="0.0" type="line"/>
      <point x="165.8" y="0.0" type="line"/>
      <point x="162.6" y="1457.8" type="line"/>
      <point x="270.0" y="1457.8" type="line"/>
      <point x="285.0" y="1235.0" type="line"/>
      <point x="491.8" y="1451.6"/>
      <point x="662.4" y="1481.4"/>
      <point x="837.8" y="1481.4" type="curve" smooth="yes"/>
      <point x="1083.2" y="1481.4"/>
      <point x="1212.2" y="1315.2"/>
      <point x="1212.2" y="994.0" type="curve" smooth="yes"/>
      <point x="1212.2" y="162.8" type="line" smooth="yes"/>
      <point x="1212.2" y="-132.0"/>
      <point x="1176.8" y="-315.2"/>
    </contour>
  </outline>
</glyph>
<glyph name="eng" format="1">
  <advance width="1181.0"/>
  <unicode hex="014B"/>
  <outline>
    <contour>
      <point x="631.2" y="-273.0" type="line"/>
      <point x="698.8" y="-273.0" type="line" smooth="yes"/>
      <point x="966.2" y="-273.0"/>
      <point x="1002.8" y="-124.4"/>
      <point x="1003.0" y="168.4" type="curve"/>
      <point x="1003.0" y="643.2" type="line" smooth="yes"/>
      <point x="1003.0" y="935.2"/>
      <point x="901.8" y="1078.6"/>
      <point x="658.8" y="1078.6" type="curve" smooth="yes"/>
      <point x="506.0" y="1078.6"/>
      <point x="394.6" y="1020.8"/>
      <point x="321.0" y="895.0" type="curve"/>
      <point x="303.2" y="1057.4" type="line"/>
      <point x="170.6" y="1057.4" type="line"/>
      <point x="170.6" y="0.0" type="line"/>
      <point x="322.0" y="0.0" type="line"/>
      <point x="322.0" y="600.2" type="line" smooth="yes"/>
      <point x="322.0" y="642.2"/>
      <point x="325.0" y="681.0"/>
      <point x="327.8" y="721.8" type="curve"/>
      <point x="357.8" y="858.6"/>
      <point x="435.8" y="963.6"/>
      <point x="636.4" y="963.6" type="curve" smooth="yes"/>
      <point x="811.6" y="963.6"/>
      <point x="851.4" y="849.4"/>
      <point x="851.6" y="667.8" type="curve"/>
      <point x="851.6" y="116.2" type="line" smooth="yes"/>
      <point x="851.6" y="-102.8"/>
      <point x="834.2" y="-131.2"/>
      <point x="657.6" y="-131.2" type="curve" smooth="yes"/>
      <point x="625.8" y="-131.2" type="line"/>
    </contour>
  </outline>
</glyph>
<glyph name="OE" format="1">
  <advance width="1945.2"/>
  <unicode hex="0152"/>
  <outline>
    <contour>
      <point x="839.0" y="-24.4" type="curve" smooth="yes"/>
      <point x="466.4" y="-24.4"/>
      <point x="327.6" y="236.0"/>
      <point x="343.6" y="629.2" type="curve"/>
      <point x="355.6" y="969.2"/>
      <point x="566.8" y="1201.6"/>
      <point x="874.8" y="1201.6" type="curve"/>
      <point x="998.8" y="1201.6"/>
      <point x="1285.0" y="1159.2"/>
      <point x="1332.2" y="1105.6" type="curve"/>
      <point x="1336.0" y="1219.6" type="line"/>
      <point x="1647.4" y="1219.6" type="line"/>
      <point x="1636.2" y="1218.0" type="line"/>
      <point x="1403.0" y="1218.0" type="line"/>
      <point x="1403.0" y="809.2" type="line"/>
      <point x="1603.4" y="809.2" type="line"/>
      <point x="1603.4" y="796.4" type="line"/>
      <point x="1408.4" y="796.4" type="line"/>
      <point x="1412.2" y="365.8" type="line"/>
      <point x="1611.6" y="365.8" type="line"/>
      <point x="1602.0" y="266.0" type="line"/>
      <point x="1584.2" y="277.4"/>
      <point x="1113.2" y="283.8"/>
      <point x="1087.6" y="283.8" type="curve" smooth="yes"/>
      <point x="1009.2" y="283.8"/>
      <point x="950.2" y="294.2"/>
      <point x="949.6" y="210.8" type="curve"/>
      <point x="940.0" y="93.6"/>
      <point x="843.0" y="-24.4"/>
    </contour>
    <contour>
      <point x="841.8" y="100.0" type="curve" smooth="yes"/>
      <point x="870.6" y="100.2"/>
      <point x="976.4" y="204.0"/>
      <point x="1002.8" y="265.2" type="curve"/>
      <point x="1003.2" y="319.0"/>
      <point x="1032.8" y="1280.4"/>
      <point x="1087.6" y="1280.4" type="curve" smooth="yes"/>
      <point x="1054.0" y="1326.0"/>
      <point x="982.2" y="1353.2"/>
      <point x="896.4" y="1340.0" type="curve"/>
      <point x="622.0" y="1340.0"/>
      <point x="450.0" y="986.2"/>
      <point x="440.4" y="679.8" type="curve"/>
      <point x="427.6" y="354.8"/>
      <point x="513.2" y="104.8"/>
    </contour>
  </outline>
</glyph>
<glyph name="uni0237" format="1">
  <advance width="440.4"/>
  <unicode hex="0237"/>
  <outline>
    <contour>
      <point x="-55.2" y="-462.8" type="line"/>
      <point x="0.6" y="-462.8" type="line" smooth="yes"/>
      <point x="243.4" y="-462.8"/>
      <point x="294.8" y="-389.6"/>
      <point x="294.8" y="-143.6" type="curve" smooth="yes"/>
      <point x="294.8" y="1073.6" type="line"/>
      <point x="127.2" y="1073.6" type="line"/>
      <point x="127.2" y="-108.8" type="line" smooth="yes"/>
      <point x="127.2" y="-273.6"/>
      <point x="157.2" y="-332.8"/>
      <point x="-30.0" y="-332.8" type="curve" smooth="yes"/>
      <point x="-88.6" y="-332.8" type="line"/>
    </contour>
  </outline>
</glyph>
<glyph name="uni02BC" format="1">
  <advance width="538.0"/>
  <unicode hex="02BC"/>
  <outline>
    <contour>
      <point x="142.4" y="1113.8" type="line"/>
      <point x="237.6" y="1113.8" type="line"/>
      <point x="399.4" y="1553.0" type="line"/>
      <point x="272.2" y="1553.0" type="line"/>
    </contour>
  </outline>
</glyph>
<glyph name="circumflex" format="1">
  <advance width="789.6"/>
  <unicode hex="02C6"/>
  <outline>
    <contour>
      <point x="124.4" y="1245.8" type="line"/>
      <point x="224.8" y="1245.8" type="line"/>
      <point x="384.2" y="1529.8" type="line"/>
      <point x="535.8" y="1245.8" type="line"/>
      <point x="636.4" y="1245.8" type="line"/>
      <point x="479.6" y="1616.8" type="line"/>
      <point x="295.2" y="1616.8" type="line"/>
    </contour>
  </outline>
</glyph>
<glyph name="caron" format="1">
  <advance width="789.2"/>
  <unicode hex="02C7"/>
  <outline>
    <contour>
      <point x="281.6" y="1252.4" type="line"/>
      <point x="464.6" y="1252.4" type="line"/>
      <point x="638.2" y="1616.8" type="line"/>
      <point x="532.8" y="1616.8" type="line"/>
      <point x="371.8" y="1337.6" type="line"/>
      <point x="226.0" y="1616.8" type="line"/>
      <point x="122.2" y="1616.8" type="line"/>
    </contour>
  </outline>
</glyph>
<glyph name="breve" format="1">
  <advance width="752.6"/>
  <unicode hex="02D8"/>
  <outline>
    <contour>
      <point x="372.6" y="1289.6" type="curve" smooth="yes"/>
      <point x="492.8" y="1289.6"/>
      <point x="600.4" y="1354.8"/>
      <point x="600.4" y="1519.2" type="curve"/>
      <point x="509.8" y="1519.2" type="line"/>
      <point x="509.8" y="1417.6"/>
      <point x="439.4" y="1378.0"/>
      <point x="372.6" y="1378.0" type="curve" smooth="yes"/>
      <point x="305.8" y="1378.0"/>
      <point x="241.0" y="1417.6"/>
      <point x="241.0" y="1519.2" type="curve"/>
      <point x="149.0" y="1519.2" type="line"/>
      <point x="149.0" y="1354.2"/>
      <point x="253.4" y="1289.6"/>
    </contour>
  </outline>
</glyph>
<glyph name="dotaccent" format="1">
  <advance width="350.0"/>
  <unicode hex="02D9"/>
  <outline>
    <contour>
      <point x="106.6" y="1279.4" type="line"/>
      <point x="249.8" y="1279.4" type="line"/>
      <point x="249.8" y="1443.2" type="line"/>
      <point x="106.6" y="1443.2" type="line"/>
    </contour>
  </outline>
</glyph>
<glyph name="ring" format="1">
  <advance width="606.0"/>
  <unicode hex="02DA"/>
  <outline>
    <contour>
      <point x="303.0" y="1318.6" type="curve" smooth="yes"/>
      <point x="247.0" y="1318.6"/>
      <point x="206.0" y="1363.6"/>
      <point x="206.0" y="1418.6" type="curve" smooth="yes"/>
      <point x="206.0" y="1472.6"/>
      <point x="247.8" y="1517.6"/>
      <point x="303.0" y="1517.6" type="curve" smooth="yes"/>
      <point x="358.6" y="1517.6"/>
      <point x="401.0" y="1472.8"/>
      <point x="401.0" y="1418.6" type="curve" smooth="yes"/>
      <point x="401.0" y="1363.8"/>
      <point x="358.6" y="1318.6"/>
    </contour>
    <contour>
      <point x="303.0" y="1247.0" type="curve" smooth="yes"/>
      <point x="405.2" y="1247.0"/>
      <point x="482.2" y="1322.6"/>
      <point x="482.2" y="1419.4" type="curve" smooth="yes"/>
      <point x="482.2" y="1516.0"/>
      <point x="405.8" y="1591.6"/>
      <point x="303.0" y="1591.6" type="curve" smooth="yes"/>
      <point x="200.6" y="1591.6"/>
      <point x="123.8" y="1516.2"/>
      <point x="123.8" y="1419.4" type="curve" smooth="yes"/>
      <point x="123.8" y="1322.6"/>
      <point x="200.8" y="1247.0"/>
    </contour>
  </outline>
</glyph>
<glyph name="ogonek" format="1">
  <advance width="580.0"/>
  <unicode hex="02DB"/>
  <outline>
    <contour>
      <point x="442.4" y="-384.4" type="curve"/>
      <point x="442.4" y="-384.4"/>
      <point x="440.2" y="-290.0"/>
      <point x="440.8" y="-290.0" type="curve" smooth="yes"/>
      <point x="420.6" y="-299.0"/>
      <point x="377.2" y="-312.4"/>
      <point x="336.6" y="-312.4" type="curve" smooth="yes"/>
      <point x="291.0" y="-312.4"/>
      <point x="251.2" y="-290.8"/>
      <point x="251.2" y="-232.4" type="curve" smooth="yes"/>
      <point x="251.2" y="-154.4"/>
      <point x="345.8" y="-40.0"/>
      <point x="402.2" y="0.0" type="curve"/>
      <point x="326.8" y="0.0" type="line"/>
      <point x="219.0" y="-40.6"/>
      <point x="117.6" y="-162.0"/>
      <point x="117.6" y="-271.0" type="curve" smooth="yes"/>
      <point x="117.6" y="-354.2"/>
      <point x="176.6" y="-412.6"/>
      <point x="304.0" y="-412.6" type="curve" smooth="yes"/>
      <point x="351.6" y="-412.6"/>
      <point x="414.0" y="-398.4"/>
    </contour>
  </outline>
</glyph>
<glyph name="tilde" format="1">
  <advance width="901.2"/>
  <unicode hex="02DC"/>
  <outline>
    <contour>
      <point x="219.4" y="1273.0" type="line"/>
      <point x="225.8" y="1342.0"/>
      <point x="250.8" y="1370.8"/>
      <point x="286.2" y="1370.8" type="curve" smooth="yes"/>
      <point x="359.8" y="1370.8"/>
      <point x="482.0" y="1273.0"/>
      <point x="584.8" y="1273.0" type="curve" smooth="yes"/>
      <point x="657.4" y="1273.0"/>
      <point x="719.0" y="1323.2"/>
      <point x="719.0" y="1464.8" type="curve"/>
      <point x="639.0" y="1464.8" type="line"/>
      <point x="632.2" y="1399.4"/>
      <point x="610.8" y="1378.2"/>
      <point x="579.2" y="1378.2" type="curve" smooth="yes"/>
      <point x="515.6" y="1378.2"/>
      <point x="409.2" y="1465.6"/>
      <point x="294.0" y="1465.6" type="curve" smooth="yes"/>
      <point x="208.6" y="1465.6"/>
      <point x="142.6" y="1413.8"/>
      <point x="142.6" y="1273.0" type="curve"/>
    </contour>
  </outline>
</glyph>
<glyph name="hungarumlaut" format="1">
  <advance width="729.4"/>
  <unicode hex="02DD"/>
  <outline>
    <contour>
      <point x="112.2" y="1257.2" type="line"/>
      <point x="187.0" y="1257.2" type="line"/>
      <point x="393.2" y="1570.2" type="line"/>
      <point x="248.2" y="1570.2" type="line"/>
    </contour>
    <contour>
      <point x="340.2" y="1257.2" type="line"/>
      <point x="417.0" y="1257.2" type="line"/>
      <point x="666.0" y="1570.2" type="line"/>
      <point x="511.6" y="1570.2" type="line"/>
    </contour>
  </outline>
</glyph>
<glyph name="uni0307" format="1">
  <advance width="323.0"/>
  <unicode hex="0307"/>
  <outline>
    <contour>
      <point x="86.8" y="1290.0" type="line"/>
      <point x="230.0" y="1290.0" type="line"/>
      <point x="230.0" y="1470.4" type="line"/>
      <point x="86.8" y="1470.4" type="line"/>
    </contour>
  </outline>
</glyph>
<glyph name="uni0311" format="1">
  <advance width="693.8"/>
  <unicode hex="0311"/>
  <outline>
    <contour>
      <point x="121.4" y="1282.0" type="curve"/>
      <point x="211.2" y="1282.0" type="line"/>
      <point x="211.2" y="1384.6"/>
      <point x="267.6" y="1432.6"/>
      <point x="344.8" y="1432.6" type="curve" smooth="yes"/>
      <point x="420.6" y="1432.6"/>
      <point x="480.6" y="1384.0"/>
      <point x="480.6" y="1282.0" type="curve"/>
      <point x="572.0" y="1282.0" type="line"/>
      <point x="572.0" y="1450.6"/>
      <point x="455.0" y="1519.0"/>
      <point x="343.2" y="1519.0" type="curve" smooth="yes"/>
      <point x="232.6" y="1519.0"/>
      <point x="121.4" y="1451.2"/>
    </contour>
  </outline>
</glyph>
<glyph name="uni031B" format="1">
  <advance width="476.8"/>
  <unicode hex="031B"/>
  <outline>
    <contour>
      <point x="222.6" y="492.0" type="line"/>
      <point x="229.4" y="474.2"/>
      <point x="235.0" y="444.8"/>
      <point x="235.0" y="412.8" type="curve" smooth="yes"/>
      <point x="235.0" y="339.2"/>
      <point x="208.2" y="239.8"/>
      <point x="95.4" y="239.8" type="curve" smooth="yes"/>
      <point x="88.2" y="239.8"/>
      <point x="79.4" y="240.6"/>
      <point x="71.4" y="241.4" type="curve"/>
      <point x="71.4" y="164.2" type="line"/>
      <point x="92.8" y="161.4"/>
      <point x="113.8" y="158.8"/>
      <point x="132.6" y="158.8" type="curve" smooth="yes"/>
      <point x="293.8" y="158.8"/>
      <point x="334.8" y="271.2"/>
      <point x="334.8" y="368.4" type="curve" smooth="yes"/>
      <point x="334.8" y="417.8"/>
      <point x="323.0" y="465.6"/>
      <point x="311.4" y="492.0" type="curve"/>
    </contour>
  </outline>
</glyph>
<glyph name="Delta" format="1">
  <advance width="1526.8"/>
  <unicode hex="0394"/>
  <outline>
    <contour>
      <point x="142.2" y="0.0" type="line"/>
      <point x="687.6" y="1446.4" type="line"/>
      <point x="844.2" y="1446.4" type="line"/>
      <point x="1391.0" y="0.0" type="line"/>
    </contour>
    <contour>
      <point x="348.4" y="134.4" type="line"/>
      <point x="1188.0" y="134.4" type="line"/>
      <point x="765.2" y="1287.2" type="line"/>
    </contour>
  </outline>
</glyph>
<glyph name="Lambda" format="1">
  <advance width="1526.8"/>
  <unicode hex="039B"/>
  <outline>
    <contour>
      <point x="142.8" y="0.0" type="line"/>
      <point x="678.4" y="1447.6" type="line"/>
      <point x="854.6" y="1447.6" type="line"/>
      <point x="1391.0" y="0.0" type="line"/>
      <point x="1222.4" y="0.0" type="line"/>
      <point x="765.8" y="1278.6" type="line"/>
      <point x="316.4" y="0.0" type="line"/>
    </contour>
  </outline>
</glyph>
<glyph name="Pi" format="1">
  <advance width="1433.6"/>
  <unicode hex="03A0"/>
  <outline>
    <contour>
      <point x="149.4" y="0.0" type="line"/>
      <point x="149.4" y="1447.6" type="line"/>
      <point x="1291.4" y="1447.6" type="line"/>
      <point x="1291.4" y="0.0" type="line"/>
      <point x="1127.0" y="0.0" type="line"/>
      <point x="1127.0" y="1306.4" type="line"/>
      <point x="316.2" y="1306.4" type="line"/>
      <point x="316.2" y="0.0" type="line"/>
    </contour>
  </outline>
</glyph>
<glyph name="Sigma" format="1">
  <advance width="1162.6"/>
  <unicode hex="03A3"/>
  <outline>
    <contour>
      <point x="148.4" y="0.0" type="line"/>
      <point x="148.4" y="1436.2" type="line"/>
      <point x="1011.6" y="1436.2" type="line"/>
      <point x="1006.0" y="1316.4" type="line"/>
      <point x="285.8" y="1316.4" type="line"/>
      <point x="285.8" y="802.6" type="line"/>
      <point x="941.2" y="802.6" type="line"/>
      <point x="941.2" y="682.6" type="line"/>
      <point x="285.8" y="682.6" type="line"/>
      <point x="285.8" y="119.8" type="line"/>
      <point x="1008.0" y="119.8" type="line"/>
      <point x="1000.2" y="0.0" type="line"/>
    </contour>
  </outline>
</glyph>
<glyph name="Phi" format="1">
  <advance width="1670.8"/>
  <unicode hex="03A6"/>
  <outline>
    <contour>
      <point x="753.0" y="0.0" type="line"/>
      <point x="753.0" y="166.0" type="line"/>
      <point x="339.2" y="194.4"/>
      <point x="125.6" y="436.6"/>
      <point x="125.6" y="748.2" type="curve" smooth="yes"/>
      <point x="125.6" y="1066.0"/>
      <point x="354.4" y="1287.6"/>
      <point x="753.0" y="1314.8" type="curve"/>
      <point x="753.0" y="1447.6" type="line"/>
      <point x="918.6" y="1447.6" type="line"/>
      <point x="918.6" y="1314.8" type="line"/>
      <point x="1323.4" y="1288.8"/>
      <point x="1549.6" y="1066.6"/>
      <point x="1549.6" y="748.2" type="curve" smooth="yes"/>
      <point x="1549.6" y="434.4"/>
      <point x="1334.6" y="191.8"/>
      <point x="918.6" y="166.0" type="curve"/>
      <point x="918.6" y="0.0" type="line"/>
    </contour>
    <contour>
      <point x="753.0" y="305.8" type="curve"/>
      <point x="753.0" y="1175.8" type="line"/>
      <point x="453.8" y="1149.4"/>
      <point x="302.6" y="984.4"/>
      <point x="302.6" y="748.2" type="curve" smooth="yes"/>
      <point x="302.6" y="520.2"/>
      <point x="441.6" y="333.8"/>
    </contour>
    <contour>
      <point x="918.6" y="305.8" type="line"/>
      <point x="1234.6" y="332.6"/>
      <point x="1373.2" y="519.6"/>
      <point x="1373.2" y="748.2" type="curve" smooth="yes"/>
      <point x="1373.2" y="984.6"/>
      <point x="1222.2" y="1150.4"/>
      <point x="918.6" y="1175.8" type="curve"/>
    </contour>
  </outline>
</glyph>
<glyph name="Omega" format="1">
  <advance width="1604.4"/>
  <unicode hex="03A9"/>
  <outline>
    <contour>
      <point x="809.4" y="144.8" type="curve" smooth="yes"/>
      <point x="1129.2" y="144.8"/>
      <point x="1288.0" y="383.0"/>
      <point x="1288.0" y="712.6" type="curve" smooth="yes"/>
      <point x="1288.0" y="1053.6"/>
      <point x="1124.2" y="1290.6"/>
      <point x="810.2" y="1290.6" type="curve" smooth="yes"/>
      <point x="496.2" y="1290.6"/>
      <point x="329.6" y="1054.4"/>
      <point x="329.6" y="712.6" type="curve" smooth="yes"/>
      <point x="329.6" y="383.0"/>
      <point x="489.6" y="144.8"/>
    </contour>
    <contour>
      <point x="809.4" y="-20.6" type="curve" smooth="yes"/>
      <point x="371.6" y="-20.6"/>
      <point x="120.2" y="266.2"/>
      <point x="120.2" y="713.8" type="curve" smooth="yes"/>
      <point x="120.2" y="1171.0"/>
      <point x="378.4" y="1457.2"/>
      <point x="810.2" y="1457.2" type="curve" smooth="yes"/>
      <point x="1235.6" y="1457.2"/>
      <point x="1498.8" y="1168.6"/>
      <point x="1498.8" y="713.0" type="curve" smooth="yes"/>
      <point x="1498.8" y="271.0"/>
      <point x="1243.2" y="-20.6"/>
    </contour>
  </outline>
</glyph>
<glyph name="rho" format="1">
  <advance width="1272.2"/>
  <unicode hex="03C1"/>
  <outline>
    <contour>
      <point x="138.4" y="-469.6" type="line"/>
      <point x="291.0" y="-460.6" type="line"/>
      <point x="291.0" y="-72.8" type="line" smooth="yes"/>
      <point x="291.0" y="5.0"/>
      <point x="289.8" y="80.2"/>
      <point x="286.0" y="157.6" type="curve"/>
      <point x="356.0" y="51.4"/>
      <point x="503.8" y="-23.8"/>
      <point x="652.0" y="-23.8" type="curve" smooth="yes"/>
      <point x="929.0" y="-23.8"/>
      <point x="1128.8" y="206.0"/>
      <point x="1128.8" y="519.8" type="curve" smooth="yes"/>
      <point x="1128.8" y="851.0"/>
      <point x="951.6" y="1078.6"/>
      <point x="641.2" y="1078.6" type="curve" smooth="yes"/>
      <point x="491.2" y="1078.6"/>
      <point x="353.6" y="1007.4"/>
      <point x="296.4" y="864.6" type="curve"/>
      <point x="280.4" y="1056.8" type="line"/>
      <point x="138.4" y="1056.8" type="line"/>
    </contour>
    <contour>
      <point x="630.6" y="88.8" type="curve" smooth="yes"/>
      <point x="370.0" y="88.8"/>
      <point x="291.4" y="266.8"/>
      <point x="291.4" y="544.8" type="curve"/>
      <point x="291.0" y="791.2"/>
      <point x="383.6" y="964.4"/>
      <point x="633.0" y="964.4" type="curve" smooth="yes"/>
      <point x="869.2" y="964.4"/>
      <point x="976.4" y="778.4"/>
      <point x="976.4" y="527.4" type="curve" smooth="yes"/>
      <point x="976.4" y="267.6"/>
      <point x="862.6" y="88.8"/>
    </contour>
  </outline>
</glyph>
<glyph name="uni040A" format="1">
  <advance width="2146.0"/>
  <unicode hex="040A"/>
  <outline>
    <contour>
      <point x="1076.8" y="0.0" type="line"/>
      <point x="1534.2" y="0.0" type="line" smooth="yes"/>
      <point x="1909.2" y="0.0"/>
      <point x="2024.0" y="168.2"/>
      <point x="2024.0" y="406.2" type="curve" smooth="yes"/>
      <point x="2024.0" y="637.2"/>
      <point x="1907.8" y="801.2"/>
      <point x="1530.0" y="801.2" type="curve" smooth="yes"/>
      <point x="1184.0" y="801.2" type="line"/>
      <point x="1233.2" y="759.0" type="line"/>
      <point x="1234.8" y="1439.8" type="line"/>
      <point x="1076.8" y="1439.8" type="line"/>
      <point x="1076.8" y="757.4" type="line"/>
      <point x="1138.6" y="801.2" type="line"/>
      <point x="310.0" y="801.2" type="line"/>
      <point x="370.8" y="757.4" type="line"/>
      <point x="370.8" y="1439.8" type="line"/>
      <point x="212.8" y="1439.8" type="line"/>
      <point x="212.8" y="0.0" type="line"/>
      <point x="370.8" y="0.0" type="line"/>
      <point x="370.8" y="732.2" type="line"/>
      <point x="310.0" y="687.0" type="line"/>
      <point x="1141.6" y="687.0" type="line"/>
      <point x="1076.8" y="732.2" type="line"/>
    </contour>
    <contour>
      <point x="1233.4" y="46.4" type="line"/>
      <point x="1233.4" y="737.8" type="line"/>
      <point x="1183.6" y="687.0" type="line"/>
      <point x="1525.6" y="687.0" type="line" smooth="yes"/>
      <point x="1781.2" y="687.0"/>
      <point x="1872.4" y="615.2"/>
      <point x="1872.4" y="405.2" type="curve" smooth="yes"/>
      <point x="1872.4" y="197.6"/>
      <point x="1771.8" y="114.2"/>
      <point x="1531.4" y="114.2" type="curve" smooth="yes"/>
      <point x="1174.0" y="114.2" type="line"/>
    </contour>
  </outline>
</glyph>
<glyph name="uni0411" format="1">
  <advance width="1270.8"/>
  <unicode hex="0411"/>
  <outline>
    <contour>
      <point x="202.4" y="0.0" type="line"/>
      <point x="694.8" y="0.0" type="line" smooth="yes"/>
      <point x="1069.8" y="0.0"/>
      <point x="1176.6" y="177.8"/>
      <point x="1176.6" y="415.8" type="curve" smooth="yes"/>
      <point x="1176.6" y="646.8"/>
      <point x="1068.2" y="822.2"/>
      <point x="690.4" y="822.2" type="curve" smooth="yes"/>
      <point x="303.4" y="822.2" type="line"/>
      <point x="360.4" y="770.8" type="line"/>
      <point x="360.4" y="1382.6" type="line"/>
      <point x="301.6" y="1322.6" type="line"/>
      <point x="1034.6" y="1322.6" type="line"/>
      <point x="1034.6" y="1442.4" type="line"/>
      <point x="202.4" y="1442.4" type="line"/>
    </contour>
    <contour>
      <point x="360.4" y="54.4" type="line"/>
      <point x="360.4" y="746.4" type="line"/>
      <point x="301.8" y="700.8" type="line"/>
      <point x="686.0" y="700.8" type="line" smooth="yes"/>
      <point x="935.2" y="700.8"/>
      <point x="1018.4" y="622.6"/>
      <point x="1018.4" y="412.6" type="curve" smooth="yes"/>
      <point x="1018.4" y="205.0"/>
      <point x="923.4" y="120.6"/>
      <point x="691.8" y="120.6" type="curve" smooth="yes"/>
      <point x="303.6" y="120.6" type="line"/>
    </contour>
  </outline>
</glyph>
<glyph name="uni041B" format="1">
  <advance width="1569.4"/>
  <unicode hex="041B"/>
  <outline>
    <contour>
      <point x="10.2" y="-22.6" type="line"/>
      <point x="82.2" y="-22.6" type="line" smooth="yes"/>
      <point x="402.6" y="-22.6"/>
      <point x="477.2" y="123.2"/>
      <point x="477.2" y="419.0" type="curve" smooth="yes"/>
      <point x="477.2" y="1369.4" type="line"/>
      <point x="417.4" y="1325.0" type="line"/>
      <point x="1279.0" y="1324.2" type="line"/>
      <point x="1214.0" y="1368.6" type="line"/>
      <point x="1214.0" y="-0.8" type="line"/>
      <point x="1370.4" y="-1.6" type="line"/>
      <point x="1372.0" y="1439.0" type="line"/>
      <point x="319.2" y="1439.8" type="line"/>
      <point x="319.2" y="391.6" type="line" smooth="yes"/>
      <point x="319.2" y="186.8"/>
      <point x="281.2" y="105.4"/>
      <point x="74.0" y="105.4" type="curve" smooth="yes"/>
      <point x="10.2" y="105.4" type="line"/>
    </contour>
  </outline>
</glyph>
<glyph name="uni041F" format="1">
  <advance width="1509.4"/>
  <unicode hex="041F"/>
  <outline>
    <contour>
      <point x="212.8" y="0.0" type="line"/>
      <point x="370.8" y="0.0" type="line"/>
      <point x="370.8" y="1369.4" type="line"/>
      <point x="310.2" y="1325.0" type="line"/>
      <point x="1219.0" y="1325.0" type="line"/>
      <point x="1154.0" y="1369.4" type="line"/>
      <point x="1154.0" y="0.0" type="line"/>
      <point x="1312.0" y="0.0" type="line"/>
      <point x="1312.0" y="1439.8" type="line"/>
      <point x="212.8" y="1439.8" type="line"/>
    </contour>
  </outline>
</glyph>
<glyph name="uni0424" format="1">
  <advance width="1640.2"/>
  <unicode hex="0424"/>
  <outline>
    <contour>
      <point x="755.8" y="0.0" type="line"/>
      <point x="870.8" y="0.0" type="line"/>
      <point x="870.8" y="112.0" type="line"/>
      <point x="1298.0" y="145.6"/>
      <point x="1541.8" y="346.4"/>
      <point x="1541.8" y="718.4" type="curve" smooth="yes"/>
      <point x="1541.8" y="1093.2"/>
      <point x="1299.6" y="1297.2"/>
      <point x="870.8" y="1330.4" type="curve"/>
      <point x="870.8" y="1459.6" type="line"/>
      <point x="755.8" y="1459.6" type="line"/>
      <point x="756.2" y="1328.0" type="line"/>
      <point x="323.0" y="1284.6"/>
      <point x="104.8" y="1067.8"/>
      <point x="104.8" y="718.4" type="curve" smooth="yes"/>
      <point x="104.8" y="371.8"/>
      <point x="321.4" y="157.0"/>
      <point x="756.2" y="113.6" type="curve"/>
    </contour>
    <contour>
      <point x="756.2" y="241.6" type="line"/>
      <point x="410.6" y="282.6"/>
      <point x="252.6" y="449.4"/>
      <point x="252.6" y="719.4" type="curve" smooth="yes"/>
      <point x="252.6" y="990.6"/>
      <point x="409.6" y="1160.6"/>
      <point x="756.2" y="1201.6" type="curve"/>
    </contour>
    <contour>
      <point x="870.8" y="239.2" type="curve"/>
      <point x="870.8" y="1203.2" type="line"/>
      <point x="1235.6" y="1165.6"/>
      <point x="1394.2" y="992.8"/>
      <point x="1394.2" y="719.4" type="curve" smooth="yes"/>
      <point x="1394.2" y="449.0"/>
      <point x="1237.2" y="276.8"/>
    </contour>
  </outline>
</glyph>
<glyph name="uni0427" format="1">
  <advance width="998.0"/>
  <unicode hex="0427"/>
  <outline>
    <contour>
      <point x="855.6" y="-6.2" type="line"/>
      <point x="1014.6" y="-6.2" type="line"/>
      <point x="1014.6" y="1441.6" type="line"/>
      <point x="855.6" y="1441.6" type="line"/>
      <point x="855.6" y="604.8" type="line"/>
      <point x="870.6" y="610.0"/>
      <point x="495.8" y="617.2"/>
      <point x="507.2" y="617.2" type="curve" smooth="yes"/>
      <point x="345.6" y="617.2"/>
      <point x="263.0" y="658.0"/>
      <point x="263.0" y="904.2" type="curve" smooth="yes"/>
      <point x="263.0" y="1441.6" type="line"/>
      <point x="97.6" y="1441.6" type="line"/>
      <point x="97.6" y="865.6" type="line" smooth="yes"/>
      <point x="97.6" y="643.8"/>
      <point x="201.4" y="475.2"/>
      <point x="445.6" y="475.2" type="curve" smooth="yes"/>
      <point x="433.8" y="475.2"/>
      <point x="878.2" y="471.8"/>
      <point x="855.4" y="464.8" type="curve"/>
    </contour>
  </outline>
</glyph>
<glyph name="uni0428" format="1">
  <advance width="1592.0"/>
  <unicode hex="0428"/>
  <outline>
    <contour>
      <point x="166.4" y="0.0" type="line"/>
      <point x="1431.0" y="0.0" type="line"/>
      <point x="1431.0" y="1442.4" type="line"/>
      <point x="1298.4" y="1442.4" type="line"/>
      <point x="1298.4" y="131.2" type="line"/>
      <point x="857.2" y="131.2" type="line"/>
      <point x="857.2" y="1442.4" type="line"/>
      <point x="724.2" y="1442.4" type="line"/>
      <point x="724.2" y="131.2" type="line"/>
      <point x="298.6" y="131.2" type="line"/>
      <point x="298.6" y="1442.4" type="line"/>
      <point x="166.4" y="1442.4" type="line"/>
    </contour>
  </outline>
</glyph>
<glyph name="uni0429" format="1">
  <advance width="1664.8"/>
  <unicode hex="0429"/>
  <outline>
    <contour>
      <point x="1423.4" y="-283.6" type="line"/>
      <point x="1561.8" y="-283.6" type="line"/>
      <point x="1561.8" y="160.4" type="line"/>
      <point x="1467.0" y="160.4" type="line"/>
      <point x="1467.0" y="1442.4" type="line"/>
      <point x="1333.8" y="1442.4" type="line"/>
      <point x="1333.8" y="131.2" type="line"/>
      <point x="893.2" y="131.2" type="line"/>
      <point x="893.2" y="1442.4" type="line"/>
      <point x="760.2" y="1442.4" type="line"/>
      <point x="760.2" y="131.2" type="line"/>
      <point x="334.6" y="131.2" type="line"/>
      <point x="334.6" y="1442.4" type="line"/>
      <point x="202.4" y="1442.4" type="line"/>
      <point x="202.4" y="0.0" type="line"/>
      <point x="1424.0" y="0.0" type="line"/>
    </contour>
  </outline>
</glyph>
<glyph name="uni042A" format="1">
  <advance width="1297.2"/>
  <unicode hex="042A"/>
  <outline>
    <contour>
      <point x="244.0" y="0.0" type="line"/>
      <point x="708.4" y="0.0" type="line" smooth="yes"/>
      <point x="1083.4" y="0.0"/>
      <point x="1190.2" y="177.8"/>
      <point x="1190.2" y="415.8" type="curve" smooth="yes"/>
      <point x="1190.2" y="646.8"/>
      <point x="1082.6" y="822.2"/>
      <point x="704.8" y="822.2" type="curve" smooth="yes"/>
      <point x="345.0" y="822.2" type="line"/>
      <point x="402.0" y="770.8" type="line"/>
      <point x="402.2" y="1439.6" type="line"/>
      <point x="-9.2" y="1439.6" type="line"/>
      <point x="-9.4" y="1319.2" type="line"/>
      <point x="307.0" y="1320.8" type="line"/>
      <point x="244.0" y="1380.0" type="line"/>
    </contour>
    <contour>
      <point x="402.0" y="54.4" type="line"/>
      <point x="402.0" y="747.2" type="line"/>
      <point x="343.4" y="701.4" type="line"/>
      <point x="700.4" y="701.4" type="line" smooth="yes"/>
      <point x="949.6" y="701.4"/>
      <point x="1032.0" y="623.2"/>
      <point x="1032.0" y="413.2" type="curve" smooth="yes"/>
      <point x="1032.0" y="205.6"/>
      <point x="937.0" y="120.6"/>
      <point x="705.4" y="120.6" type="curve" smooth="yes"/>
      <point x="345.0" y="120.6" type="line"/>
    </contour>
  </outline>
</glyph>
<glyph name="uni042C" format="1">
  <advance width="1278.4"/>
  <unicode hex="042C"/>
  <outline>
    <contour>
      <point x="202.4" y="0.0" type="line"/>
      <point x="691.0" y="0.0" type="line" smooth="yes"/>
      <point x="1066.0" y="0.0"/>
      <point x="1172.8" y="177.8"/>
      <point x="1172.8" y="415.8" type="curve" smooth="yes"/>
      <point x="1172.8" y="646.8"/>
      <point x="1064.4" y="822.2"/>
      <point x="686.6" y="822.2" type="curve" smooth="yes"/>
      <point x="303.4" y="822.2" type="line"/>
      <point x="360.4" y="770.8" type="line"/>
      <point x="360.6" y="1438.8" type="line"/>
      <point x="202.4" y="1438.6" type="line"/>
    </contour>
    <contour>
      <point x="360.4" y="54.4" type="line"/>
      <point x="360.4" y="747.2" type="line"/>
      <point x="301.8" y="701.4" type="line"/>
      <point x="682.2" y="701.4" type="line" smooth="yes"/>
      <point x="931.4" y="701.4"/>
      <point x="1014.6" y="623.2"/>
      <point x="1014.6" y="413.2" type="curve" smooth="yes"/>
      <point x="1014.6" y="205.6"/>
      <point x="919.6" y="120.6"/>
      <point x="688.0" y="120.6" type="curve" smooth="yes"/>
      <point x="303.6" y="120.6" type="line"/>
    </contour>
  </outline>
</glyph>
<glyph name="uni043B" format="1">
  <advance width="1219"/>
  <unicode hex="043B"/>
  <outline>
    <contour>
      <point x="43" y="-7" type="curve"/>
      <point x="25" y="93" type="line"/>
      <point x="201" y="93"/>
      <point x="267" y="135"/>
      <point x="314" y="489" type="curve"/>
      <point x="379" y="1055" type="line"/>
      <point x="1027" y="1055" type="line"/>
      <point x="1027" y="-1" type="line"/>
      <point x="898" y="-1" type="line"/>
      <point x="898" y="962" type="line"/>
      <point x="490" y="962" type="line"/>
      <point x="428" y="477" type="line"/>
      <point x="379" y="63"/>
      <point x="291" y="-7"/>
    </contour>
  </outline>
</glyph>
<glyph name="uni0447" format="1">
  <advance width="1063.2"/>
  <unicode hex="0447"/>
  <outline>
    <contour>
      <point x="724.8" y="0.0" type="line"/>
      <point x="879.0" y="0.0" type="line"/>
      <point x="879.0" y="1057.4" type="line"/>
      <point x="724.8" y="1057.4" type="line"/>
      <point x="724.8" y="532.8" type="line"/>
      <point x="723.6" y="521.8"/>
      <point x="563.8" y="504.0"/>
      <point x="533.2" y="504.0" type="curve" smooth="yes"/>
      <point x="382.2" y="504.0"/>
      <point x="302.6" y="542.2"/>
      <point x="302.6" y="803.6" type="curve" smooth="yes"/>
      <point x="302.6" y="1057.4" type="line"/>
      <point x="147.0" y="1057.4" type="line"/>
      <point x="147.0" y="796.8" type="line" smooth="yes"/>
      <point x="147.0" y="442.8"/>
      <point x="298.8" y="389.2"/>
      <point x="526.0" y="388.6" type="curve"/>
      <point x="552.0" y="388.6"/>
      <point x="713.8" y="396.0"/>
      <point x="724.8" y="406.8" type="curve"/>
    </contour>
  </outline>
</glyph>
<glyph name="uni0449" format="1">
  <advance width="1446"/>
  <unicode hex="0449"/>
  <outline>
    <contour>
      <point x="1203" y="-280" type="line"/>
      <point x="1214" y="0" type="line"/>
      <point x="210" y="0" type="line"/>
      <point x="210" y="1057" type="line"/>
      <point x="349" y="1057" type="line"/>
      <point x="349" y="77" type="line"/>
      <point x="696" y="77" type="line"/>
      <point x="696" y="1057" type="line"/>
      <point x="837" y="1057" type="line"/>
      <point x="837" y="77" type="line"/>
      <point x="1124" y="77" type="line"/>
      <point x="1124" y="1057" type="line"/>
      <point x="1265" y="1057" type="line"/>
      <point x="1265" y="134" type="line"/>
      <point x="1361" y="134" type="line"/>
      <point x="1361" y="-280" type="line"/>
    </contour>
  </outline>
</glyph>
<glyph name="uni045A" format="1">
  <advance width="1590.8"/>
  <unicode hex="045A"/>
  <outline>
    <contour>
      <point x="173.0" y="0.0" type="line"/>
      <point x="322.6" y="0.0" type="line"/>
      <point x="322.6" y="504.6" type="line"/>
      <point x="825.4" y="504.6" type="line"/>
      <point x="825.4" y="0.0" type="line"/>
      <point x="1215.6" y="0.0" type="line" smooth="yes"/>
      <point x="1446.6" y="0.0"/>
      <point x="1545.2" y="148.0"/>
      <point x="1545.2" y="308.0" type="curve" smooth="yes"/>
      <point x="1545.2" y="474.2"/>
      <point x="1454.4" y="615.8"/>
      <point x="1215.8" y="615.8" type="curve" smooth="yes"/>
      <point x="973.4" y="615.8" type="line"/>
      <point x="973.4" y="1059.0" type="line"/>
      <point x="825.4" y="1059.0" type="line"/>
      <point x="825.4" y="615.6" type="line"/>
      <point x="322.6" y="615.6" type="line"/>
      <point x="322.6" y="1059.0" type="line"/>
      <point x="173.0" y="1059.0" type="line"/>
    </contour>
    <contour>
      <point x="973.4" y="109.0" type="line"/>
      <point x="973.4" y="510.0" type="line"/>
      <point x="1212.4" y="510.0" type="line" smooth="yes"/>
      <point x="1369.8" y="510.0"/>
      <point x="1419.2" y="415.8"/>
      <point x="1419.2" y="310.0" type="curve" smooth="yes"/>
      <point x="1419.2" y="204.8"/>
      <point x="1367.8" y="109.0"/>
      <point x="1212.6" y="109.0" type="curve" smooth="yes"/>
    </contour>
  </outline>
</glyph>
<glyph name="uni045F" format="1">
  <advance width="1085.8"/>
  <unicode hex="045F"/>
  <outline>
    <contour>
      <point x="528.2" y="-251.0" type="line"/>
      <point x="624.4" y="-251.0" type="line"/>
      <point x="626.8" y="0.0" type="line"/>
      <point x="934.8" y="0.0" type="line"/>
      <point x="934.8" y="1057.4" type="line"/>
      <point x="811.8" y="1057.4" type="line"/>
      <point x="811.8" y="102.2" type="line"/>
      <point x="278.6" y="102.2" type="line"/>
      <point x="278.6" y="1057.4" type="line"/>
      <point x="156.2" y="1057.4" type="line"/>
      <point x="156.2" y="0.0" type="line"/>
      <point x="524.8" y="0.0" type="line"/>
    </contour>
  </outline>
</glyph>
<glyph name="endash" format="1">
  <advance width="1254.6"/>
  <unicode hex="2013"/>
  <outline>
    <contour>
      <point x="124.8" y="532.8" type="line"/>
      <point x="1124.0" y="532.8" type="line"/>
      <point x="1124.0" y="657.8" type="line"/>
      <point x="124.8" y="657.8" type="line"/>
    </contour>
  </outline>
</glyph>
<glyph name="emdash" format="1">
  <advance width="2422.8"/>
  <unicode hex="2014"/>
  <outline>
    <contour>
      <point x="148.0" y="532.8" type="line"/>
      <point x="2281.6" y="532.8" type="line"/>
      <point x="2281.6" y="657.8" type="line"/>
      <point x="148.0" y="657.8" type="line"/>
    </contour>
  </outline>
</glyph>
<glyph name="quoteleft" format="1">
  <advance width="475.2"/>
  <unicode hex="2018"/>
  <outline>
    <contour>
      <point x="201.8" y="1013.6" type="line"/>
      <point x="322.6" y="1013.6" type="line"/>
      <point x="321.6" y="1443.2" type="line"/>
      <point x="224.4" y="1443.2" type="line"/>
    </contour>
  </outline>
</glyph>
<glyph name="quoteright" format="1">
  <advance width="467.0"/>
  <unicode hex="2019"/>
  <outline>
    <contour>
      <point x="140.8" y="1013.6" type="line"/>
      <point x="226.6" y="1013.6" type="line"/>
      <point x="345.6" y="1443.2" type="line"/>
      <point x="224.8" y="1443.2" type="line"/>
    </contour>
  </outline>
</glyph>
<glyph name="quotesinglbase" format="1">
  <advance width="429.6"/>
  <unicode hex="201A"/>
  <outline>
    <contour>
      <point x="96.2" y="-249.2" type="line"/>
      <point x="183.8" y="-249.2" type="line"/>
      <point x="303.8" y="198.8" type="line"/>
      <point x="178.8" y="198.8" type="line"/>
    </contour>
  </outline>
</glyph>
<glyph name="quotedblleft" format="1">
  <advance width="778.6"/>
  <unicode hex="201C"/>
  <outline>
    <contour>
      <point x="288.2" y="1106.8" type="line"/>
      <point x="351.0" y="1676.6" type="line"/>
      <point x="231.4" y="1545.0" type="line"/>
      <point x="138.8" y="974.2" type="line"/>
    </contour>
    <contour>
      <point x="598.8" y="1106.8" type="line"/>
      <point x="652.4" y="1676.6" type="line"/>
      <point x="539.0" y="1545.2" type="line"/>
      <point x="441.8" y="974.2" type="line"/>
    </contour>
  </outline>
</glyph>
<glyph name="quotedblright" format="1">
  <advance width="660.2"/>
  <unicode hex="201D"/>
  <outline>
    <contour>
      <point x="82.8" y="1118.4" type="line"/>
      <point x="169.0" y="1118.4" type="line"/>
      <point x="294.0" y="1540.8" type="line"/>
      <point x="166.6" y="1540.8" type="line"/>
    </contour>
    <contour>
      <point x="369.6" y="1122.4" type="line"/>
      <point x="459.2" y="1122.4" type="line"/>
      <point x="582.4" y="1540.8" type="line"/>
      <point x="453.0" y="1540.8" type="line"/>
    </contour>
  </outline>
</glyph>
<glyph name="quotedblbase" format="1">
  <advance width="684.0"/>
  <unicode hex="201E"/>
  <outline>
    <contour>
      <point x="122.8" y="-249.2" type="line"/>
      <point x="208.4" y="-249.2" type="line"/>
      <point x="322.4" y="198.8" type="line"/>
      <point x="201.0" y="198.8" type="line"/>
    </contour>
    <contour>
      <point x="375.6" y="-249.2" type="line"/>
      <point x="459.2" y="-249.2" type="line"/>
      <point x="578.4" y="198.8" type="line"/>
      <point x="452.6" y="198.8" type="line"/>
    </contour>
  </outline>
</glyph>
<glyph name="dagger" format="1">
  <advance width="919.2"/>
  <unicode hex="2020"/>
  <outline>
    <contour>
      <point x="407.2" y="119.8" type="line"/>
      <point x="504.0" y="119.8" type="line"/>
      <point x="504.0" y="979.2" type="line"/>
      <point x="791.0" y="979.2" type="line"/>
      <point x="791.0" y="1065.0" type="line"/>
      <point x="500.8" y="1065.0" type="line"/>
      <point x="500.8" y="1444.8" type="line"/>
      <point x="407.2" y="1444.8" type="line"/>
      <point x="407.2" y="1065.0" type="line"/>
      <point x="121.0" y="1065.0" type="line"/>
      <point x="121.0" y="979.2" type="line"/>
      <point x="407.2" y="979.2" type="line"/>
    </contour>
  </outline>
</glyph>
<glyph name="daggerdbl" format="1">
  <advance width="994.8"/>
  <unicode hex="2021"/>
  <outline>
    <contour>
      <point x="783.2" y="456.0" type="line"/>
      <point x="783.2" y="537.4" type="line"/>
      <point x="509.4" y="537.4" type="line"/>
      <point x="509.2" y="977.2" type="line"/>
      <point x="783.8" y="977.2" type="line"/>
      <point x="783.8" y="1061.8" type="line"/>
      <point x="504.4" y="1061.8" type="line"/>
      <point x="504.4" y="1443.6" type="line"/>
      <point x="410.8" y="1443.6" type="line"/>
      <point x="410.8" y="1061.8" type="line"/>
      <point x="132.4" y="1061.8" type="line"/>
      <point x="132.4" y="977.2" type="line"/>
      <point x="410.8" y="977.2" type="line"/>
      <point x="410.8" y="537.4" type="line"/>
      <point x="132.0" y="537.4" type="line"/>
      <point x="132.0" y="456.0" type="line"/>
      <point x="410.8" y="456.0" type="line"/>
      <point x="410.8" y="93.6" type="line"/>
      <point x="509.4" y="93.6" type="line"/>
      <point x="509.4" y="456.0" type="line"/>
    </contour>
  </outline>
</glyph>
<glyph name="bullet" format="1">
  <advance width="825.4"/>
  <unicode hex="2022"/>
  <outline>
    <contour>
      <point x="415.4" y="423.2" type="curve" smooth="yes"/>
      <point x="255.8" y="423.2"/>
      <point x="107.8" y="534.4"/>
      <point x="107.8" y="741.4" type="curve" smooth="yes"/>
      <point x="107.8" y="950.8"/>
      <point x="260.2" y="1066.0"/>
      <point x="421.2" y="1066.0" type="curve" smooth="yes"/>
      <point x="581.2" y="1066.0"/>
      <point x="731.0" y="953.6"/>
      <point x="731.0" y="745.8" type="curve" smooth="yes"/>
      <point x="731.0" y="537.8"/>
      <point x="576.6" y="423.2"/>
    </contour>
  </outline>
</glyph>
<glyph name="guilsinglleft" format="1">
  <advance width="612.6"/>
  <unicode hex="2039"/>
  <outline>
    <contour>
      <point x="526.0" y="985.4" type="line"/>
      <point x="405.2" y="985.4" type="line"/>
      <point x="102.2" y="561.2" type="line"/>
      <point x="400.6" y="146.2" type="line"/>
      <point x="520.6" y="146.2" type="line"/>
      <point x="230.2" y="560.4" type="line"/>
    </contour>
  </outline>
</glyph>
<glyph name="guilsinglright" format="1">
  <advance width="621.4"/>
  <unicode hex="203A"/>
  <outline>
    <contour>
      <point x="121.6" y="146.2" type="line"/>
      <point x="242.4" y="146.2" type="line"/>
      <point x="546.0" y="570.2" type="line"/>
      <point x="246.8" y="985.4" type="line"/>
      <point x="126.8" y="985.4" type="line"/>
      <point x="416.4" y="571.0" type="line"/>
    </contour>
  </outline>
</glyph>
<glyph name="fraction" format="1">
  <advance width="1154.6"/>
  <unicode hex="2044"/>
  <outline>
    <contour>
      <point x="141.2" y="0.0" type="line"/>
      <point x="267.4" y="0.0" type="line"/>
      <point x="1028.0" y="1522.0" type="line"/>
      <point x="910.6" y="1522.0" type="line"/>
    </contour>
  </outline>
</glyph>
<glyph name="uni2074" format="1">
  <advance width="730.2"/>
  <unicode hex="2074"/>
  <outline>
    <contour>
      <point x="443.4" y="657.8" type="line"/>
      <point x="519.4" y="657.8" type="line"/>
      <point x="518.8" y="866.2" type="line"/>
      <point x="618.4" y="866.2" type="line"/>
      <point x="611.6" y="955.8" type="line"/>
      <point x="521.4" y="955.8" type="line"/>
      <point x="521.4" y="1496.6" type="line"/>
      <point x="427.4" y="1496.6" type="line"/>
      <point x="127.2" y="950.8" type="line"/>
      <point x="127.2" y="866.2" type="line"/>
      <point x="443.4" y="866.2" type="line"/>
    </contour>
    <contour>
      <point x="204.0" y="955.8" type="line"/>
      <point x="444.6" y="1360.4" type="line"/>
      <point x="443.0" y="955.8" type="line"/>
    </contour>
  </outline>
</glyph>
<glyph name="Euro" format="1">
  <advance width="1296.8"/>
  <unicode hex="20AC"/>
  <outline>
    <contour>
      <point x="1203.2" y="66.6" type="line"/>
      <point x="1129.4" y="25.8"/>
      <point x="1008.0" y="-19.0"/>
      <point x="829.4" y="-19.0" type="curve" smooth="yes"/>
      <point x="483.2" y="-19.0"/>
      <point x="216.2" y="190.6"/>
      <point x="151.8" y="569.6" type="curve"/>
      <point x="208.2" y="529.2" type="line"/>
      <point x="22.8" y="529.2" type="line"/>
      <point x="31.6" y="632.8" type="line"/>
      <point x="198.0" y="632.8" type="line"/>
      <point x="149.8" y="590.8" type="line"/>
      <point x="147.0" y="620.8"/>
      <point x="142.6" y="695.0"/>
      <point x="142.6" y="726.2" type="curve" smooth="yes"/>
      <point x="142.6" y="756.8"/>
      <point x="145.8" y="826.4"/>
      <point x="148.4" y="856.0" type="curve"/>
      <point x="196.0" y="816.0" type="line"/>
      <point x="30.0" y="816.0" type="line"/>
      <point x="38.0" y="917.2" type="line"/>
      <point x="200.2" y="917.2" type="line"/>
      <point x="149.8" y="873.0" type="line"/>
      <point x="211.4" y="1247.6"/>
      <point x="461.4" y="1462.0"/>
      <point x="818.8" y="1462.0" type="curve" smooth="yes"/>
      <point x="992.4" y="1462.0"/>
      <point x="1132.2" y="1415.4"/>
      <point x="1221.4" y="1349.8" type="curve"/>
      <point x="1165.2" y="1246.6" type="line"/>
      <point x="1077.8" y="1302.0"/>
      <point x="955.4" y="1336.6"/>
      <point x="833.8" y="1336.6" type="curve" smooth="yes"/>
      <point x="556.6" y="1336.6"/>
      <point x="368.6" y="1171.6"/>
      <point x="312.2" y="873.0" type="curve"/>
      <point x="254.6" y="917.2" type="line"/>
      <point x="934.4" y="917.2" type="line"/>
      <point x="925.6" y="816.0" type="line"/>
      <point x="244.8" y="816.0" type="line"/>
      <point x="307.4" y="856.0" type="line"/>
      <point x="304.0" y="825.4"/>
      <point x="300.8" y="752.4"/>
      <point x="300.8" y="720.0" type="curve" smooth="yes"/>
      <point x="300.8" y="690.4"/>
      <point x="305.0" y="619.0"/>
      <point x="307.8" y="590.8" type="curve"/>
      <point x="248.2" y="632.8" type="line"/>
      <point x="925.6" y="632.8" type="line"/>
      <point x="916.8" y="529.2" type="line"/>
      <point x="261.8" y="529.2" type="line"/>
      <point x="312.4" y="569.6" type="line"/>
      <point x="370.0" y="270.8"/>
      <point x="556.8" y="106.6"/>
      <point x="853.6" y="106.6" type="curve" smooth="yes"/>
      <point x="979.4" y="106.6"/>
      <point x="1080.4" y="140.0"/>
      <point x="1165.0" y="181.4" type="curve"/>
    </contour>
  </outline>
</glyph>
<glyph name="trademark" format="1">
  <advance width="1794.6"/>
  <unicode hex="2122"/>
  <outline>
    <contour>
      <point x="843.6" y="576.2" type="line"/>
      <point x="923.8" y="576.2" type="line"/>
      <point x="923.8" y="1377.0" type="line"/>
      <point x="1210.6" y="663.2" type="line"/>
      <point x="1282.4" y="663.2" type="line"/>
      <point x="1588.0" y="1373.2" type="line"/>
      <point x="1588.0" y="576.2" type="line"/>
      <point x="1671.6" y="576.2" type="line"/>
      <point x="1671.6" y="1456.2" type="line"/>
      <point x="1554.0" y="1456.2" type="line"/>
      <point x="1254.2" y="759.4" type="line"/>
      <point x="967.4" y="1456.2" type="line"/>
      <point x="843.6" y="1456.2" type="line"/>
    </contour>
    <contour>
      <point x="344.6" y="576.2" type="line"/>
      <point x="428.2" y="576.2" type="line"/>
      <point x="428.2" y="1381.6" type="line"/>
      <point x="693.2" y="1381.6" type="line"/>
      <point x="693.2" y="1456.2" type="line"/>
      <point x="89.4" y="1456.2" type="line"/>
      <point x="88.8" y="1381.6" type="line"/>
      <point x="344.6" y="1381.6" type="line"/>
    </contour>
  </outline>
</glyph>
<glyph name="summation" format="1">
  <advance width="1280.2"/>
  <unicode hex="2211"/>
  <outline>
    <contour>
      <point x="104.2" y="-354.6" type="line"/>
      <point x="1179.6" y="-354.6" type="line"/>
      <point x="1179.6" y="-214.0" type="line"/>
      <point x="264.6" y="-214.0" type="line"/>
      <point x="898.6" y="592.8" type="line"/>
      <point x="288.0" y="1376.0" type="line"/>
      <point x="1141.8" y="1376.0" type="line"/>
      <point x="1141.8" y="1506.8" type="line"/>
      <point x="126.4" y="1506.8" type="line"/>
      <point x="126.4" y="1419.8" type="line"/>
      <point x="717.2" y="585.0" type="line"/>
      <point x="104.2" y="-270.4" type="line"/>
    </contour>
  </outline>
</glyph>
<glyph name="minus" format="1">
  <advance width="1135.4"/>
  <unicode hex="2212"/>
  <outline>
    <contour>
      <point x="82.4" y="539.6" type="line"/>
      <point x="1033.8" y="539.6" type="line"/>
      <point x="1033.8" y="666.2" type="line"/>
      <point x="82.4" y="666.2" type="line"/>
    </contour>
  </outline>
</glyph>
<glyph name="approxequal" format="1">
  <advance width="1254.2"/>
  <unicode hex="2248"/>
  <outline>
    <contour>
      <point x="124.8" y="400.8" type="line"/>
      <point x="149.8" y="585.2"/>
      <point x="246.4" y="689.6"/>
      <point x="401.8" y="689.6" type="curve" smooth="yes"/>
      <point x="493.8" y="689.6"/>
      <point x="576.2" y="643.4"/>
      <point x="653.8" y="596.6" type="curve"/>
      <point x="730.0" y="551.8"/>
      <point x="799.4" y="502.4"/>
      <point x="862.2" y="502.4" type="curve" smooth="yes"/>
      <point x="952.4" y="502.4"/>
      <point x="1004.8" y="574.2"/>
      <point x="1025.6" y="689.6" type="curve"/>
      <point x="1121.0" y="691.0" type="line"/>
      <point x="1096.8" y="512.4"/>
      <point x="1038.0" y="403.6"/>
      <point x="863.0" y="403.6" type="curve" smooth="yes"/>
      <point x="787.6" y="403.6"/>
      <point x="704.0" y="437.0"/>
      <point x="589.2" y="509.4" type="curve"/>
      <point x="521.0" y="554.2"/>
      <point x="460.0" y="588.0"/>
      <point x="405.2" y="588.0" type="curve" smooth="yes"/>
      <point x="302.8" y="588.0"/>
      <point x="247.4" y="516.8"/>
      <point x="218.2" y="402.4" type="curve"/>
    </contour>
    <contour>
      <point x="121.6" y="633.0" type="line"/>
      <point x="146.0" y="814.2"/>
      <point x="248.2" y="919.6"/>
      <point x="402.8" y="919.6" type="curve" smooth="yes"/>
      <point x="488.6" y="919.6"/>
      <point x="559.8" y="882.0"/>
      <point x="655.0" y="821.4" type="curve"/>
      <point x="747.6" y="763.4"/>
      <point x="803.0" y="733.2"/>
      <point x="859.0" y="733.2" type="curve" smooth="yes"/>
      <point x="949.2" y="733.2"/>
      <point x="1000.6" y="802.8"/>
      <point x="1021.8" y="919.6" type="curve"/>
      <point x="1118.6" y="924.0" type="line"/>
      <point x="1093.6" y="744.8"/>
      <point x="1031.0" y="636.8"/>
      <point x="861.6" y="636.8" type="curve" smooth="yes"/>
      <point x="781.4" y="636.8"/>
      <point x="699.6" y="670.8"/>
      <point x="586.8" y="744.8" type="curve"/>
      <point x="518.6" y="789.6"/>
      <point x="456.2" y="821.2"/>
      <point x="401.4" y="821.2" type="curve" smooth="yes"/>
      <point x="298.0" y="821.2"/>
      <point x="244.4" y="752.2"/>
      <point x="218.2" y="638.6" type="curve"/>
    </contour>
  </outline>
</glyph>
<glyph name="notequal" format="1">
  <advance width="1161.2"/>
  <unicode hex="2260"/>
  <outline>
    <contour>
      <point x="349.8" y="48.8" type="line"/>
      <point x="494.8" y="352.4" type="line"/>
      <point x="1038.8" y="352.4" type="line"/>
      <point x="1034.6" y="458.0" type="line"/>
      <point x="541.2" y="458.0" type="line"/>
      <point x="711.6" y="782.4" type="line"/>
      <point x="1038.8" y="782.4" type="line"/>
      <point x="1031.2" y="888.2" type="line"/>
      <point x="757.8" y="888.2" type="line"/>
      <point x="872.6" y="1170.2" type="line"/>
      <point x="787.4" y="1182.0" type="line"/>
      <point x="647.0" y="888.2" type="line"/>
      <point x="120.4" y="888.2" type="line"/>
      <point x="127.0" y="781.8" type="line"/>
      <point x="600.2" y="781.8" type="line"/>
      <point x="435.0" y="458.2" type="line"/>
      <point x="120.8" y="458.2" type="line"/>
      <point x="127.0" y="352.4" type="line"/>
      <point x="382.0" y="352.4" type="line"/>
      <point x="266.6" y="65.2" type="line"/>
    </contour>
  </outline>
</glyph>
<glyph name="lessequal" format="1">
  <advance width="1194.0"/>
  <unicode hex="2264"/>
  <outline>
    <contour>
      <point x="1037.2" y="247.2" type="line"/>
      <point x="1037.2" y="371.6" type="line"/>
      <point x="328.6" y="751.8" type="line"/>
      <point x="1037.2" y="1152.6" type="line"/>
      <point x="1037.2" y="1279.0" type="line"/>
      <point x="162.6" y="787.8" type="line"/>
      <point x="162.6" y="713.2" type="line"/>
    </contour>
    <contour>
      <point x="123.0" y="0.4" type="line"/>
      <point x="1069.6" y="0.4" type="line"/>
      <point x="1069.6" y="111.0" type="line"/>
      <point x="123.0" y="111.0" type="line"/>
    </contour>
  </outline>
</glyph>
<glyph name="greaterequal" format="1">
  <advance width="1190.8"/>
  <unicode hex="2265"/>
  <outline>
    <contour>
      <point x="161.4" y="233.8" type="line"/>
      <point x="1045.6" y="707.8" type="line"/>
      <point x="1045.6" y="779.8" type="line"/>
      <point x="165.6" y="1282.4" type="line"/>
      <point x="165.6" y="1157.0" type="line"/>
      <point x="940.2" y="743.6" type="line"/>
      <point x="161.4" y="357.2" type="line"/>
    </contour>
    <contour>
      <point x="127.4" y="9.2" type="line"/>
      <point x="1067.2" y="9.2" type="line"/>
      <point x="1067.2" y="126.2" type="line"/>
      <point x="127.4" y="124.8" type="line"/>
    </contour>
  </outline>
</glyph>
<glyph name="lozenge" format="1">
  <advance width="1153.0"/>
  <unicode hex="25CA"/>
  <outline>
    <contour>
      <point x="522.2" y="-47.8" type="line"/>
      <point x="617.6" y="-47.8" type="line"/>
      <point x="1030.8" y="756.0" type="line"/>
      <point x="626.0" y="1558.8" type="line"/>
      <point x="528.4" y="1558.8" type="line"/>
      <point x="116.2" y="753.4" type="line"/>
    </contour>
    <contour>
      <point x="567.8" y="76.8" type="curve"/>
      <point x="444.4" y="296.6"/>
      <point x="331.2" y="529.6"/>
      <point x="209.8" y="755.4" type="curve"/>
      <point x="333.4" y="980.4"/>
      <point x="455.8" y="1206.4"/>
      <point x="580.2" y="1427.8" type="curve"/>
      <point x="697.6" y="1201.6"/>
      <point x="818.0" y="977.0"/>
      <point x="937.8" y="753.6" type="curve"/>
      <point x="814.2" y="527.8"/>
      <point x="690.2" y="300.2"/>
    </contour>
  </outline>
</glyph>
<glyph name=".notdef" format="1">
  <advance width="941.6"/>
  <outline>
    <contour>
      <point x="190.0" y="272.4" type="line"/>
      <point x="762.6" y="272.4" type="line"/>
      <point x="762.6" y="784.2" type="line"/>
      <point x="190.0" y="784.2" type="line"/>
    </contour>
    <contour>
      <point x="95.0" y="176.6" type="line"/>
      <point x="95.0" y="880.0" type="line"/>
      <point x="857.6" y="880.0" type="line"/>
      <point x="857.6" y="176.6" type="line"/>
    </contour>
  </outline>
</glyph>
